ISO-10303-21;
HEADER;
FILE_DESCRIPTION(('STEP AP214'),
    '1');
FILE_NAME('PLSS (DS1004-xx2 CONNFLY)',
    '',
    ('UNSPECIFIED'),
    ('UNSPECIFIED'),
    'ASCON STEP Converter 1.6',
    'ASCON Math Kernel',
    '');
FILE_SCHEMA(('AUTOMOTIVE_DESIGN { 1 0 10303 214 3 1 1}'));
ENDSEC;

DATA;
#1=SHAPE_REPRESENTATION('NONE',(#2),#6);
#2=AXIS2_PLACEMENT_3D('',#3,#4,#5);
#3=CARTESIAN_POINT('',(0.,0.,0.));
#4=DIRECTION('',(0.,0.,1.));
#5=DIRECTION('',(1.,0.,0.));
#6=(GEOMETRIC_REPRESENTATION_CONTEXT(3)GLOBAL_UNCERTAINTY_ASSIGNED_CONTEXT((#8))
GLOBAL_UNIT_ASSIGNED_CONTEXT((#7,#9,#10))REPRESENTATION_CONTEXT('NONE','NONE'));
#7=(LENGTH_UNIT()NAMED_UNIT(*)SI_UNIT(.MILLI.,.METRE.));
#8=UNCERTAINTY_MEASURE_WITH_UNIT(LENGTH_MEASURE(1.E-005),#7,'NONE','NONE');
#9=(NAMED_UNIT(*)PLANE_ANGLE_UNIT()SI_UNIT($,.RADIAN.));
#10=(NAMED_UNIT(*)SI_UNIT($,.STERADIAN.)SOLID_ANGLE_UNIT());
#11=SHAPE_DEFINITION_REPRESENTATION(#12,#1);
#12=PRODUCT_DEFINITION_SHAPE('NONE','NONE',#13);
#13=PRODUCT_DEFINITION('','UNSPECIFIED',#14,#22);
#14=PRODUCT_DEFINITION_FORMATION_WITH_SPECIFIED_SOURCE('ANY','UNSPECIFIED',#15,.NOT_KNOWN.);
#15=PRODUCT('','PLSS (DS1004-xx2 CONNFLY)','NONE',(#25));
#16=PERSON('UNSPECIFIED','dima','UNSPECIFIED',('UNSPECIFIED'),('UNSPECIFIED'),('UNSPECIFIED'));
#17=ORGANIZATION('UNSPECIFIED','UNSPECIFIED','UNSPECIFIED');
#18=PERSON_AND_ORGANIZATION(#16,#17);
#19=PERSON_AND_ORGANIZATION_ROLE('design_owner');
#20=CC_DESIGN_PERSON_AND_ORGANIZATION_ASSIGNMENT(#18,#19,(#15));
#21=PRODUCT_RELATED_PRODUCT_CATEGORY('detail','',(#15));
#22=DESIGN_CONTEXT('detailed design',#23,'design');
#23=APPLICATION_CONTEXT('configuration controlled 3d designs of mechanical parts and assemblies');
#24=APPLICATION_PROTOCOL_DEFINITION('international standard','automotive_design',
2011,#23);
#25=MECHANICAL_CONTEXT('NONE',#23,'mechanical');
#26=CC_DESIGN_DATE_AND_TIME_ASSIGNMENT(#27,#31,(#13));
#27=DATE_AND_TIME(#28,#29);
#28=CALENDAR_DATE(0,1,1);
#29=LOCAL_TIME(0,0,0.,#30);
#30=COORDINATED_UNIVERSAL_TIME_OFFSET(0,0,.AHEAD.);
#31=DATE_TIME_ROLE('creation_date');
#32=CC_DESIGN_APPROVAL(#33,(#13));
#33=APPROVAL(#34,'UNSPECIFIED');
#34=APPROVAL_STATUS('not_yet_approved');
#35=APPROVAL_DATE_TIME(#36,#33);
#36=DATE_AND_TIME(#37,#38);
#37=CALENDAR_DATE(0,1,1);
#38=LOCAL_TIME(0,0,0.,#39);
#39=COORDINATED_UNIVERSAL_TIME_OFFSET(0,0,.AHEAD.);
#40=MANIFOLD_SOLID_BREP('',#41);
#41=CLOSED_SHELL('',(#63,#72,#81,#90,#99,#108,#117,#126,#135,#144,#153,#162,#171,
#180,#189,#198,#207));
#42=COLOUR_RGB('',0.156862745098039,0.156862745098039,0.156862745098039);
#43=FILL_AREA_STYLE_COLOUR('',#42);
#44=FILL_AREA_STYLE($,(#43));
#45=SURFACE_STYLE_FILL_AREA(#44);
#46=SURFACE_SIDE_STYLE('',(#45));
#47=SURFACE_STYLE_USAGE(.BOTH.,#46);
#48=PRESENTATION_STYLE_ASSIGNMENT((#47));
#49=MECHANICAL_DESIGN_GEOMETRIC_PRESENTATION_REPRESENTATION('NONE',(#50,#60,#71,
#80,#89,#98,#107,#116,#125,#134,#143,#152,#161,#170,#179,#188,#197,#206,#215,#224,
#233,#242,#251,#260,#269,#278,#287,#296),#6);
#50=STYLED_ITEM('',(#48),#40);
#51=MANIFOLD_SOLID_BREP('',#52);
#52=CLOSED_SHELL('',(#216,#225,#234,#243,#252,#261,#270,#279,#288));
#53=COLOUR_RGB('',0.156862745098039,0.156862745098039,0.156862745098039);
#54=FILL_AREA_STYLE_COLOUR('',#53);
#55=FILL_AREA_STYLE($,(#54));
#56=SURFACE_STYLE_FILL_AREA(#55);
#57=SURFACE_SIDE_STYLE('',(#56));
#58=SURFACE_STYLE_USAGE(.BOTH.,#57);
#59=PRESENTATION_STYLE_ASSIGNMENT((#58));
#60=STYLED_ITEM('',(#59),#51);
#61=ADVANCED_BREP_SHAPE_REPRESENTATION('NONE',(#40,#51),#6);
#62=SHAPE_REPRESENTATION_RELATIONSHIP('','',#1,#61);
#63=ADVANCED_FACE('',(#297,#299),#301,.F.);
#64=COLOUR_RGB('',0.156862745098039,0.156862745098039,0.156862745098039);
#65=FILL_AREA_STYLE_COLOUR('',#64);
#66=FILL_AREA_STYLE($,(#65));
#67=SURFACE_STYLE_FILL_AREA(#66);
#68=SURFACE_SIDE_STYLE('',(#67));
#69=SURFACE_STYLE_USAGE(.BOTH.,#68);
#70=PRESENTATION_STYLE_ASSIGNMENT((#69));
#71=STYLED_ITEM('',(#70),#63);
#72=ADVANCED_FACE('',(#306,#308),#310,.T.);
#73=COLOUR_RGB('',0.156862745098039,0.156862745098039,0.156862745098039);
#74=FILL_AREA_STYLE_COLOUR('',#73);
#75=FILL_AREA_STYLE($,(#74));
#76=SURFACE_STYLE_FILL_AREA(#75);
#77=SURFACE_SIDE_STYLE('',(#76));
#78=SURFACE_STYLE_USAGE(.BOTH.,#77);
#79=PRESENTATION_STYLE_ASSIGNMENT((#78));
#80=STYLED_ITEM('',(#79),#72);
#81=ADVANCED_FACE('',(#315,#317),#319,.T.);
#82=COLOUR_RGB('',0.156862745098039,0.156862745098039,0.156862745098039);
#83=FILL_AREA_STYLE_COLOUR('',#82);
#84=FILL_AREA_STYLE($,(#83));
#85=SURFACE_STYLE_FILL_AREA(#84);
#86=SURFACE_SIDE_STYLE('',(#85));
#87=SURFACE_STYLE_USAGE(.BOTH.,#86);
#88=PRESENTATION_STYLE_ASSIGNMENT((#87));
#89=STYLED_ITEM('',(#88),#81);
#90=ADVANCED_FACE('',(#324,#326),#328,.F.);
#91=COLOUR_RGB('',0.156862745098039,0.156862745098039,0.156862745098039);
#92=FILL_AREA_STYLE_COLOUR('',#91);
#93=FILL_AREA_STYLE($,(#92));
#94=SURFACE_STYLE_FILL_AREA(#93);
#95=SURFACE_SIDE_STYLE('',(#94));
#96=SURFACE_STYLE_USAGE(.BOTH.,#95);
#97=PRESENTATION_STYLE_ASSIGNMENT((#96));
#98=STYLED_ITEM('',(#97),#90);
#99=ADVANCED_FACE('',(#333,#335),#337,.F.);
#100=COLOUR_RGB('',0.156862745098039,0.156862745098039,0.156862745098039);
#101=FILL_AREA_STYLE_COLOUR('',#100);
#102=FILL_AREA_STYLE($,(#101));
#103=SURFACE_STYLE_FILL_AREA(#102);
#104=SURFACE_SIDE_STYLE('',(#103));
#105=SURFACE_STYLE_USAGE(.BOTH.,#104);
#106=PRESENTATION_STYLE_ASSIGNMENT((#105));
#107=STYLED_ITEM('',(#106),#99);
#108=ADVANCED_FACE('',(#342),#344,.T.);
#109=COLOUR_RGB('',0.156862745098039,0.156862745098039,0.156862745098039);
#110=FILL_AREA_STYLE_COLOUR('',#109);
#111=FILL_AREA_STYLE($,(#110));
#112=SURFACE_STYLE_FILL_AREA(#111);
#113=SURFACE_SIDE_STYLE('',(#112));
#114=SURFACE_STYLE_USAGE(.BOTH.,#113);
#115=PRESENTATION_STYLE_ASSIGNMENT((#114));
#116=STYLED_ITEM('',(#115),#108);
#117=ADVANCED_FACE('',(#349),#351,.T.);
#118=COLOUR_RGB('',0.156862745098039,0.156862745098039,0.156862745098039);
#119=FILL_AREA_STYLE_COLOUR('',#118);
#120=FILL_AREA_STYLE($,(#119));
#121=SURFACE_STYLE_FILL_AREA(#120);
#122=SURFACE_SIDE_STYLE('',(#121));
#123=SURFACE_STYLE_USAGE(.BOTH.,#122);
#124=PRESENTATION_STYLE_ASSIGNMENT((#123));
#125=STYLED_ITEM('',(#124),#117);
#126=ADVANCED_FACE('',(#356),#358,.T.);
#127=COLOUR_RGB('',0.156862745098039,0.156862745098039,0.156862745098039);
#128=FILL_AREA_STYLE_COLOUR('',#127);
#129=FILL_AREA_STYLE($,(#128));
#130=SURFACE_STYLE_FILL_AREA(#129);
#131=SURFACE_SIDE_STYLE('',(#130));
#132=SURFACE_STYLE_USAGE(.BOTH.,#131);
#133=PRESENTATION_STYLE_ASSIGNMENT((#132));
#134=STYLED_ITEM('',(#133),#126);
#135=ADVANCED_FACE('',(#363),#365,.T.);
#136=COLOUR_RGB('',0.156862745098039,0.156862745098039,0.156862745098039);
#137=FILL_AREA_STYLE_COLOUR('',#136);
#138=FILL_AREA_STYLE($,(#137));
#139=SURFACE_STYLE_FILL_AREA(#138);
#140=SURFACE_SIDE_STYLE('',(#139));
#141=SURFACE_STYLE_USAGE(.BOTH.,#140);
#142=PRESENTATION_STYLE_ASSIGNMENT((#141));
#143=STYLED_ITEM('',(#142),#135);
#144=ADVANCED_FACE('',(#370),#372,.T.);
#145=COLOUR_RGB('',0.156862745098039,0.156862745098039,0.156862745098039);
#146=FILL_AREA_STYLE_COLOUR('',#145);
#147=FILL_AREA_STYLE($,(#146));
#148=SURFACE_STYLE_FILL_AREA(#147);
#149=SURFACE_SIDE_STYLE('',(#148));
#150=SURFACE_STYLE_USAGE(.BOTH.,#149);
#151=PRESENTATION_STYLE_ASSIGNMENT((#150));
#152=STYLED_ITEM('',(#151),#144);
#153=ADVANCED_FACE('',(#377),#379,.T.);
#154=COLOUR_RGB('',0.156862745098039,0.156862745098039,0.156862745098039);
#155=FILL_AREA_STYLE_COLOUR('',#154);
#156=FILL_AREA_STYLE($,(#155));
#157=SURFACE_STYLE_FILL_AREA(#156);
#158=SURFACE_SIDE_STYLE('',(#157));
#159=SURFACE_STYLE_USAGE(.BOTH.,#158);
#160=PRESENTATION_STYLE_ASSIGNMENT((#159));
#161=STYLED_ITEM('',(#160),#153);
#162=ADVANCED_FACE('',(#384),#386,.T.);
#163=COLOUR_RGB('',0.156862745098039,0.156862745098039,0.156862745098039);
#164=FILL_AREA_STYLE_COLOUR('',#163);
#165=FILL_AREA_STYLE($,(#164));
#166=SURFACE_STYLE_FILL_AREA(#165);
#167=SURFACE_SIDE_STYLE('',(#166));
#168=SURFACE_STYLE_USAGE(.BOTH.,#167);
#169=PRESENTATION_STYLE_ASSIGNMENT((#168));
#170=STYLED_ITEM('',(#169),#162);
#171=ADVANCED_FACE('',(#391),#393,.T.);
#172=COLOUR_RGB('',0.156862745098039,0.156862745098039,0.156862745098039);
#173=FILL_AREA_STYLE_COLOUR('',#172);
#174=FILL_AREA_STYLE($,(#173));
#175=SURFACE_STYLE_FILL_AREA(#174);
#176=SURFACE_SIDE_STYLE('',(#175));
#177=SURFACE_STYLE_USAGE(.BOTH.,#176);
#178=PRESENTATION_STYLE_ASSIGNMENT((#177));
#179=STYLED_ITEM('',(#178),#171);
#180=ADVANCED_FACE('',(#398),#400,.T.);
#181=COLOUR_RGB('',0.156862745098039,0.156862745098039,0.156862745098039);
#182=FILL_AREA_STYLE_COLOUR('',#181);
#183=FILL_AREA_STYLE($,(#182));
#184=SURFACE_STYLE_FILL_AREA(#183);
#185=SURFACE_SIDE_STYLE('',(#184));
#186=SURFACE_STYLE_USAGE(.BOTH.,#185);
#187=PRESENTATION_STYLE_ASSIGNMENT((#186));
#188=STYLED_ITEM('',(#187),#180);
#189=ADVANCED_FACE('',(#405),#407,.T.);
#190=COLOUR_RGB('',0.156862745098039,0.156862745098039,0.156862745098039);
#191=FILL_AREA_STYLE_COLOUR('',#190);
#192=FILL_AREA_STYLE($,(#191));
#193=SURFACE_STYLE_FILL_AREA(#192);
#194=SURFACE_SIDE_STYLE('',(#193));
#195=SURFACE_STYLE_USAGE(.BOTH.,#194);
#196=PRESENTATION_STYLE_ASSIGNMENT((#195));
#197=STYLED_ITEM('',(#196),#189);
#198=ADVANCED_FACE('',(#412),#414,.T.);
#199=COLOUR_RGB('',0.156862745098039,0.156862745098039,0.156862745098039);
#200=FILL_AREA_STYLE_COLOUR('',#199);
#201=FILL_AREA_STYLE($,(#200));
#202=SURFACE_STYLE_FILL_AREA(#201);
#203=SURFACE_SIDE_STYLE('',(#202));
#204=SURFACE_STYLE_USAGE(.BOTH.,#203);
#205=PRESENTATION_STYLE_ASSIGNMENT((#204));
#206=STYLED_ITEM('',(#205),#198);
#207=ADVANCED_FACE('',(#419),#421,.T.);
#208=COLOUR_RGB('',0.156862745098039,0.156862745098039,0.156862745098039);
#209=FILL_AREA_STYLE_COLOUR('',#208);
#210=FILL_AREA_STYLE($,(#209));
#211=SURFACE_STYLE_FILL_AREA(#210);
#212=SURFACE_SIDE_STYLE('',(#211));
#213=SURFACE_STYLE_USAGE(.BOTH.,#212);
#214=PRESENTATION_STYLE_ASSIGNMENT((#213));
#215=STYLED_ITEM('',(#214),#207);
#216=ADVANCED_FACE('',(#426),#428,.T.);
#217=COLOUR_RGB('',0.968627450980392,0.87843137254902,0.6);
#218=FILL_AREA_STYLE_COLOUR('',#217);
#219=FILL_AREA_STYLE($,(#218));
#220=SURFACE_STYLE_FILL_AREA(#219);
#221=SURFACE_SIDE_STYLE('',(#220));
#222=SURFACE_STYLE_USAGE(.BOTH.,#221);
#223=PRESENTATION_STYLE_ASSIGNMENT((#222));
#224=STYLED_ITEM('',(#223),#216);
#225=ADVANCED_FACE('',(#433,#435),#437,.T.);
#226=COLOUR_RGB('',0.968627450980392,0.87843137254902,0.6);
#227=FILL_AREA_STYLE_COLOUR('',#226);
#228=FILL_AREA_STYLE($,(#227));
#229=SURFACE_STYLE_FILL_AREA(#228);
#230=SURFACE_SIDE_STYLE('',(#229));
#231=SURFACE_STYLE_USAGE(.BOTH.,#230);
#232=PRESENTATION_STYLE_ASSIGNMENT((#231));
#233=STYLED_ITEM('',(#232),#225);
#234=ADVANCED_FACE('',(#442,#444),#446,.T.);
#235=COLOUR_RGB('',0.968627450980392,0.87843137254902,0.6);
#236=FILL_AREA_STYLE_COLOUR('',#235);
#237=FILL_AREA_STYLE($,(#236));
#238=SURFACE_STYLE_FILL_AREA(#237);
#239=SURFACE_SIDE_STYLE('',(#238));
#240=SURFACE_STYLE_USAGE(.BOTH.,#239);
#241=PRESENTATION_STYLE_ASSIGNMENT((#240));
#242=STYLED_ITEM('',(#241),#234);
#243=ADVANCED_FACE('',(#451,#453),#455,.T.);
#244=COLOUR_RGB('',0.968627450980392,0.87843137254902,0.6);
#245=FILL_AREA_STYLE_COLOUR('',#244);
#246=FILL_AREA_STYLE($,(#245));
#247=SURFACE_STYLE_FILL_AREA(#246);
#248=SURFACE_SIDE_STYLE('',(#247));
#249=SURFACE_STYLE_USAGE(.BOTH.,#248);
#250=PRESENTATION_STYLE_ASSIGNMENT((#249));
#251=STYLED_ITEM('',(#250),#243);
#252=ADVANCED_FACE('',(#460,#462),#464,.T.);
#253=COLOUR_RGB('',0.968627450980392,0.87843137254902,0.6);
#254=FILL_AREA_STYLE_COLOUR('',#253);
#255=FILL_AREA_STYLE($,(#254));
#256=SURFACE_STYLE_FILL_AREA(#255);
#257=SURFACE_SIDE_STYLE('',(#256));
#258=SURFACE_STYLE_USAGE(.BOTH.,#257);
#259=PRESENTATION_STYLE_ASSIGNMENT((#258));
#260=STYLED_ITEM('',(#259),#252);
#261=ADVANCED_FACE('',(#469,#471),#473,.T.);
#262=COLOUR_RGB('',0.968627450980392,0.87843137254902,0.6);
#263=FILL_AREA_STYLE_COLOUR('',#262);
#264=FILL_AREA_STYLE($,(#263));
#265=SURFACE_STYLE_FILL_AREA(#264);
#266=SURFACE_SIDE_STYLE('',(#265));
#267=SURFACE_STYLE_USAGE(.BOTH.,#266);
#268=PRESENTATION_STYLE_ASSIGNMENT((#267));
#269=STYLED_ITEM('',(#268),#261);
#270=ADVANCED_FACE('',(#478,#480),#482,.T.);
#271=COLOUR_RGB('',0.968627450980392,0.87843137254902,0.6);
#272=FILL_AREA_STYLE_COLOUR('',#271);
#273=FILL_AREA_STYLE($,(#272));
#274=SURFACE_STYLE_FILL_AREA(#273);
#275=SURFACE_SIDE_STYLE('',(#274));
#276=SURFACE_STYLE_USAGE(.BOTH.,#275);
#277=PRESENTATION_STYLE_ASSIGNMENT((#276));
#278=STYLED_ITEM('',(#277),#270);
#279=ADVANCED_FACE('',(#487,#489),#491,.T.);
#280=COLOUR_RGB('',0.968627450980392,0.87843137254902,0.6);
#281=FILL_AREA_STYLE_COLOUR('',#280);
#282=FILL_AREA_STYLE($,(#281));
#283=SURFACE_STYLE_FILL_AREA(#282);
#284=SURFACE_SIDE_STYLE('',(#283));
#285=SURFACE_STYLE_USAGE(.BOTH.,#284);
#286=PRESENTATION_STYLE_ASSIGNMENT((#285));
#287=STYLED_ITEM('',(#286),#279);
#288=ADVANCED_FACE('',(#496),#498,.T.);
#289=COLOUR_RGB('',0.968627450980392,0.87843137254902,0.6);
#290=FILL_AREA_STYLE_COLOUR('',#289);
#291=FILL_AREA_STYLE($,(#290));
#292=SURFACE_STYLE_FILL_AREA(#291);
#293=SURFACE_SIDE_STYLE('',(#292));
#294=SURFACE_STYLE_USAGE(.BOTH.,#293);
#295=PRESENTATION_STYLE_ASSIGNMENT((#294));
#296=STYLED_ITEM('',(#295),#288);
#297=FACE_OUTER_BOUND('',#298,.T.);
#298=EDGE_LOOP('',(#503));
#299=FACE_OUTER_BOUND('',#300,.T.);
#300=EDGE_LOOP('',(#504));
#301=CYLINDRICAL_SURFACE('',#302,0.66);
#302=AXIS2_PLACEMENT_3D('',#303,#304,#305);
#303=CARTESIAN_POINT('',(0.,0.,1.5));
#304=DIRECTION('',(0.,0.,1.));
#305=DIRECTION('',(1.,0.,0.));
#306=FACE_BOUND('',#307,.T.);
#307=EDGE_LOOP('',(#505,#506,#507,#508,#509,#510,#511,#512,#513,#514,#515,#516));
#308=FACE_BOUND('',#309,.T.);
#309=EDGE_LOOP('',(#517));
#310=PLANE('',#311);
#311=AXIS2_PLACEMENT_3D('',#312,#313,#314);
#312=CARTESIAN_POINT('',(0.,0.,4.5));
#313=DIRECTION('',(0.,0.,1.));
#314=DIRECTION('',(1.,0.,0.));
#315=FACE_BOUND('',#316,.T.);
#316=EDGE_LOOP('',(#518));
#317=FACE_BOUND('',#318,.T.);
#318=EDGE_LOOP('',(#519));
#319=PLANE('',#320);
#320=AXIS2_PLACEMENT_3D('',#321,#322,#323);
#321=CARTESIAN_POINT('',(0.,0.,4.));
#322=DIRECTION('',(0.,0.,1.));
#323=DIRECTION('',(1.,0.,0.));
#324=FACE_OUTER_BOUND('',#325,.T.);
#325=EDGE_LOOP('',(#520));
#326=FACE_OUTER_BOUND('',#327,.T.);
#327=EDGE_LOOP('',(#521));
#328=CYLINDRICAL_SURFACE('',#329,0.9);
#329=AXIS2_PLACEMENT_3D('',#330,#331,#332);
#330=CARTESIAN_POINT('',(0.,0.,4.));
#331=DIRECTION('',(0.,0.,1.));
#332=DIRECTION('',(1.,0.,0.));
#333=FACE_BOUND('',#334,.T.);
#334=EDGE_LOOP('',(#522,#523,#524,#525,#526,#527,#528,#529,#530,#531,#532,#533));
#335=FACE_BOUND('',#336,.T.);
#336=EDGE_LOOP('',(#534));
#337=PLANE('',#338);
#338=AXIS2_PLACEMENT_3D('',#339,#340,#341);
#339=CARTESIAN_POINT('',(0.,0.,1.5));
#340=DIRECTION('',(0.,0.,1.));
#341=DIRECTION('',(1.,0.,0.));
#342=FACE_BOUND('',#343,.T.);
#343=EDGE_LOOP('',(#535,#536,#537,#538));
#344=PLANE('',#345);
#345=AXIS2_PLACEMENT_3D('',#346,#347,#348);
#346=CARTESIAN_POINT('',(-1.27,-0.75,1.5));
#347=DIRECTION('',(0.,-1.,0.));
#348=DIRECTION('',(1.,0.,0.));
#349=FACE_BOUND('',#350,.T.);
#350=EDGE_LOOP('',(#539,#540,#541,#542));
#351=PLANE('',#352);
#352=AXIS2_PLACEMENT_3D('',#353,#354,#355);
#353=CARTESIAN_POINT('',(-1.12,-0.75,1.5));
#354=DIRECTION('',(-0.866025403784438,-0.5,0.));
#355=DIRECTION('',(0.5,-0.866025403784438,0.));
#356=FACE_BOUND('',#357,.T.);
#357=EDGE_LOOP('',(#543,#544,#545,#546));
#358=PLANE('',#359);
#359=AXIS2_PLACEMENT_3D('',#360,#361,#362);
#360=CARTESIAN_POINT('',(-0.819777860021394,-1.27,1.5));
#361=DIRECTION('',(0.,-1.,0.));
#362=DIRECTION('',(1.,0.,0.));
#363=FACE_BOUND('',#364,.T.);
#364=EDGE_LOOP('',(#547,#548,#549,#550));
#365=PLANE('',#366);
#366=AXIS2_PLACEMENT_3D('',#367,#368,#369);
#367=CARTESIAN_POINT('',(0.819777860021395,-1.27,1.5));
#368=DIRECTION('',(0.866025403784439,-0.5,0.));
#369=DIRECTION('',(0.5,0.866025403784439,0.));
#370=FACE_BOUND('',#371,.T.);
#371=EDGE_LOOP('',(#551,#552,#553,#554));
#372=PLANE('',#373);
#373=AXIS2_PLACEMENT_3D('',#374,#375,#376);
#374=CARTESIAN_POINT('',(1.12,-0.75,1.5));
#375=DIRECTION('',(0.,-1.,0.));
#376=DIRECTION('',(1.,0.,0.));
#377=FACE_BOUND('',#378,.T.);
#378=EDGE_LOOP('',(#555,#556,#557,#558));
#379=PLANE('',#380);
#380=AXIS2_PLACEMENT_3D('',#381,#382,#383);
#381=CARTESIAN_POINT('',(1.27,-0.75,1.5));
#382=DIRECTION('',(1.,0.,0.));
#383=DIRECTION('',(0.,1.,0.));
#384=FACE_BOUND('',#385,.T.);
#385=EDGE_LOOP('',(#559,#560,#561,#562));
#386=PLANE('',#387);
#387=AXIS2_PLACEMENT_3D('',#388,#389,#390);
#388=CARTESIAN_POINT('',(1.27,0.75,1.5));
#389=DIRECTION('',(0.,1.,-0.));
#390=DIRECTION('',(-1.,0.,0.));
#391=FACE_BOUND('',#392,.T.);
#392=EDGE_LOOP('',(#563,#564,#565,#566));
#393=PLANE('',#394);
#394=AXIS2_PLACEMENT_3D('',#395,#396,#397);
#395=CARTESIAN_POINT('',(1.12,0.75,1.5));
#396=DIRECTION('',(0.866025403784438,0.5,-0.));
#397=DIRECTION('',(-0.5,0.866025403784438,0.));
#398=FACE_BOUND('',#399,.T.);
#399=EDGE_LOOP('',(#567,#568,#569,#570));
#400=PLANE('',#401);
#401=AXIS2_PLACEMENT_3D('',#402,#403,#404);
#402=CARTESIAN_POINT('',(0.819777860021394,1.27,1.5));
#403=DIRECTION('',(0.,1.,-0.));
#404=DIRECTION('',(-1.,0.,0.));
#405=FACE_BOUND('',#406,.T.);
#406=EDGE_LOOP('',(#571,#572,#573,#574));
#407=PLANE('',#408);
#408=AXIS2_PLACEMENT_3D('',#409,#410,#411);
#409=CARTESIAN_POINT('',(-0.819777860021395,1.27,1.5));
#410=DIRECTION('',(-0.866025403784439,0.5,0.));
#411=DIRECTION('',(-0.5,-0.866025403784439,0.));
#412=FACE_BOUND('',#413,.T.);
#413=EDGE_LOOP('',(#575,#576,#577,#578));
#414=PLANE('',#415);
#415=AXIS2_PLACEMENT_3D('',#416,#417,#418);
#416=CARTESIAN_POINT('',(-1.12,0.75,1.5));
#417=DIRECTION('',(0.,1.,-0.));
#418=DIRECTION('',(-1.,0.,0.));
#419=FACE_BOUND('',#420,.T.);
#420=EDGE_LOOP('',(#579,#580,#581,#582));
#421=PLANE('',#422);
#422=AXIS2_PLACEMENT_3D('',#423,#424,#425);
#423=CARTESIAN_POINT('',(-1.27,0.75,1.5));
#424=DIRECTION('',(-1.,0.,0.));
#425=DIRECTION('',(0.,-1.,0.));
#426=FACE_OUTER_BOUND('',#427,.T.);
#427=EDGE_LOOP('',(#583));
#428=SPHERICAL_SURFACE('',#429,0.3);
#429=AXIS2_PLACEMENT_3D('',#430,#431,#432);
#430=CARTESIAN_POINT('',(-4.71489017671731E-016,-4.71489017671731E-016,7.7));
#431=DIRECTION('',(-6.12323399573677E-017,-6.12323399573677E-017,1.));
#432=DIRECTION('',(-1.,-1.22464679914736E-016,-6.12323399573677E-017));
#433=FACE_OUTER_BOUND('',#434,.T.);
#434=EDGE_LOOP('',(#584));
#435=FACE_OUTER_BOUND('',#436,.T.);
#436=EDGE_LOOP('',(#585));
#437=CYLINDRICAL_SURFACE('',#438,0.3);
#438=AXIS2_PLACEMENT_3D('',#439,#440,#441);
#439=CARTESIAN_POINT('',(-3.06161699786838E-016,-3.06161699786838E-016,5.));
#440=DIRECTION('',(-6.12323399573677E-017,-6.12323399573677E-017,1.));
#441=DIRECTION('',(-1.,-1.22464679914735E-016,-6.12323399573677E-017));
#442=FACE_BOUND('',#443,.T.);
#443=EDGE_LOOP('',(#586));
#444=FACE_BOUND('',#445,.T.);
#445=EDGE_LOOP('',(#587));
#446=PLANE('',#447);
#447=AXIS2_PLACEMENT_3D('',#448,#449,#450);
#448=CARTESIAN_POINT('',(-3.06161699786838E-016,-3.06161699786838E-016,5.));
#449=DIRECTION('',(-6.12323399573677E-017,-6.12323399573677E-017,1.));
#450=DIRECTION('',(-1.,-1.22464679914735E-016,-6.12323399573677E-017));
#451=FACE_OUTER_BOUND('',#452,.T.);
#452=EDGE_LOOP('',(#588));
#453=FACE_OUTER_BOUND('',#454,.T.);
#454=EDGE_LOOP('',(#589));
#455=CYLINDRICAL_SURFACE('',#456,0.9);
#456=AXIS2_PLACEMENT_3D('',#457,#458,#459);
#457=CARTESIAN_POINT('',(-2.44929359829471E-016,-2.44929359829471E-016,4.));
#458=DIRECTION('',(-6.12323399573677E-017,-6.12323399573677E-017,1.));
#459=DIRECTION('',(-1.,-1.22464679914735E-016,-6.12323399573677E-017));
#460=FACE_BOUND('',#461,.T.);
#461=EDGE_LOOP('',(#590));
#462=FACE_BOUND('',#463,.T.);
#463=EDGE_LOOP('',(#591));
#464=PLANE('',#465);
#465=AXIS2_PLACEMENT_3D('',#466,#467,#468);
#466=CARTESIAN_POINT('',(-2.44929359829471E-016,-2.44929359829471E-016,4.));
#467=DIRECTION('',(6.12323399573677E-017,6.12323399573677E-017,-1.));
#468=DIRECTION('',(-1.,-1.22464679914735E-016,-6.12323399573677E-017));
#469=FACE_OUTER_BOUND('',#470,.T.);
#470=EDGE_LOOP('',(#592));
#471=FACE_OUTER_BOUND('',#472,.T.);
#472=EDGE_LOOP('',(#593));
#473=CYLINDRICAL_SURFACE('',#474,0.66);
#474=AXIS2_PLACEMENT_3D('',#475,#476,#477);
#475=CARTESIAN_POINT('',(-2.63299061816681E-017,-2.63299061816681E-017,0.43));
#476=DIRECTION('',(-6.12323399573677E-017,-6.12323399573677E-017,1.));
#477=DIRECTION('',(-1.,-1.22464679914735E-016,-6.12323399573677E-017));
#478=FACE_OUTER_BOUND('',#479,.T.);
#479=EDGE_LOOP('',(#594));
#480=FACE_OUTER_BOUND('',#481,.T.);
#481=EDGE_LOOP('',(#595));
#482=CONICAL_SURFACE('',#483,0.445,0.785398163397448);
#483=AXIS2_PLACEMENT_3D('',#484,#485,#486);
#484=CARTESIAN_POINT('',(-1.3164953090834E-017,-1.3164953090834E-017,0.215));
#485=DIRECTION('',(-6.12323399573677E-017,-6.12323399573677E-017,1.));
#486=DIRECTION('',(-1.,-1.22464679914735E-016,-6.12323399573677E-017));
#487=FACE_OUTER_BOUND('',#488,.T.);
#488=EDGE_LOOP('',(#596));
#489=FACE_OUTER_BOUND('',#490,.T.);
#490=EDGE_LOOP('',(#597));
#491=CYLINDRICAL_SURFACE('',#492,0.23);
#492=AXIS2_PLACEMENT_3D('',#493,#494,#495);
#493=CARTESIAN_POINT('',(2.11863896252492E-016,2.11863896252492E-016,-3.46));
#494=DIRECTION('',(-6.12323399573677E-017,-6.12323399573677E-017,1.));
#495=DIRECTION('',(-1.,-1.22464679914735E-016,-6.12323399573675E-017));
#496=FACE_OUTER_BOUND('',#497,.T.);
#497=EDGE_LOOP('',(#598));
#498=SPHERICAL_SURFACE('',#499,0.23);
#499=AXIS2_PLACEMENT_3D('',#500,#501,#502);
#500=CARTESIAN_POINT('',(2.11863896252492E-016,2.11863896252492E-016,-3.46));
#501=DIRECTION('',(-6.12323399573677E-017,-6.12323399573677E-017,1.));
#502=DIRECTION('',(-1.,-1.22464679914735E-016,-6.12323399573677E-017));
#503=ORIENTED_EDGE('',*,*,#599,.T.);
#504=ORIENTED_EDGE('',*,*,#600,.F.);
#505=ORIENTED_EDGE('',*,*,#601,.T.);
#506=ORIENTED_EDGE('',*,*,#602,.T.);
#507=ORIENTED_EDGE('',*,*,#603,.T.);
#508=ORIENTED_EDGE('',*,*,#604,.T.);
#509=ORIENTED_EDGE('',*,*,#605,.T.);
#510=ORIENTED_EDGE('',*,*,#606,.T.);
#511=ORIENTED_EDGE('',*,*,#607,.T.);
#512=ORIENTED_EDGE('',*,*,#608,.T.);
#513=ORIENTED_EDGE('',*,*,#609,.T.);
#514=ORIENTED_EDGE('',*,*,#610,.T.);
#515=ORIENTED_EDGE('',*,*,#611,.T.);
#516=ORIENTED_EDGE('',*,*,#612,.T.);
#517=ORIENTED_EDGE('',*,*,#613,.T.);
#518=ORIENTED_EDGE('',*,*,#614,.T.);
#519=ORIENTED_EDGE('',*,*,#599,.F.);
#520=ORIENTED_EDGE('',*,*,#613,.F.);
#521=ORIENTED_EDGE('',*,*,#614,.F.);
#522=ORIENTED_EDGE('',*,*,#615,.F.);
#523=ORIENTED_EDGE('',*,*,#616,.F.);
#524=ORIENTED_EDGE('',*,*,#617,.F.);
#525=ORIENTED_EDGE('',*,*,#618,.F.);
#526=ORIENTED_EDGE('',*,*,#619,.F.);
#527=ORIENTED_EDGE('',*,*,#620,.F.);
#528=ORIENTED_EDGE('',*,*,#621,.F.);
#529=ORIENTED_EDGE('',*,*,#622,.F.);
#530=ORIENTED_EDGE('',*,*,#623,.F.);
#531=ORIENTED_EDGE('',*,*,#624,.F.);
#532=ORIENTED_EDGE('',*,*,#625,.F.);
#533=ORIENTED_EDGE('',*,*,#626,.F.);
#534=ORIENTED_EDGE('',*,*,#600,.T.);
#535=ORIENTED_EDGE('',*,*,#626,.T.);
#536=ORIENTED_EDGE('',*,*,#627,.T.);
#537=ORIENTED_EDGE('',*,*,#601,.F.);
#538=ORIENTED_EDGE('',*,*,#628,.F.);
#539=ORIENTED_EDGE('',*,*,#625,.T.);
#540=ORIENTED_EDGE('',*,*,#629,.T.);
#541=ORIENTED_EDGE('',*,*,#602,.F.);
#542=ORIENTED_EDGE('',*,*,#627,.F.);
#543=ORIENTED_EDGE('',*,*,#624,.T.);
#544=ORIENTED_EDGE('',*,*,#630,.T.);
#545=ORIENTED_EDGE('',*,*,#603,.F.);
#546=ORIENTED_EDGE('',*,*,#629,.F.);
#547=ORIENTED_EDGE('',*,*,#623,.T.);
#548=ORIENTED_EDGE('',*,*,#631,.T.);
#549=ORIENTED_EDGE('',*,*,#604,.F.);
#550=ORIENTED_EDGE('',*,*,#630,.F.);
#551=ORIENTED_EDGE('',*,*,#622,.T.);
#552=ORIENTED_EDGE('',*,*,#632,.T.);
#553=ORIENTED_EDGE('',*,*,#605,.F.);
#554=ORIENTED_EDGE('',*,*,#631,.F.);
#555=ORIENTED_EDGE('',*,*,#621,.T.);
#556=ORIENTED_EDGE('',*,*,#633,.T.);
#557=ORIENTED_EDGE('',*,*,#606,.F.);
#558=ORIENTED_EDGE('',*,*,#632,.F.);
#559=ORIENTED_EDGE('',*,*,#620,.T.);
#560=ORIENTED_EDGE('',*,*,#634,.T.);
#561=ORIENTED_EDGE('',*,*,#607,.F.);
#562=ORIENTED_EDGE('',*,*,#633,.F.);
#563=ORIENTED_EDGE('',*,*,#619,.T.);
#564=ORIENTED_EDGE('',*,*,#635,.T.);
#565=ORIENTED_EDGE('',*,*,#608,.F.);
#566=ORIENTED_EDGE('',*,*,#634,.F.);
#567=ORIENTED_EDGE('',*,*,#618,.T.);
#568=ORIENTED_EDGE('',*,*,#636,.T.);
#569=ORIENTED_EDGE('',*,*,#609,.F.);
#570=ORIENTED_EDGE('',*,*,#635,.F.);
#571=ORIENTED_EDGE('',*,*,#617,.T.);
#572=ORIENTED_EDGE('',*,*,#637,.T.);
#573=ORIENTED_EDGE('',*,*,#610,.F.);
#574=ORIENTED_EDGE('',*,*,#636,.F.);
#575=ORIENTED_EDGE('',*,*,#616,.T.);
#576=ORIENTED_EDGE('',*,*,#638,.T.);
#577=ORIENTED_EDGE('',*,*,#611,.F.);
#578=ORIENTED_EDGE('',*,*,#637,.F.);
#579=ORIENTED_EDGE('',*,*,#615,.T.);
#580=ORIENTED_EDGE('',*,*,#628,.T.);
#581=ORIENTED_EDGE('',*,*,#612,.F.);
#582=ORIENTED_EDGE('',*,*,#638,.F.);
#583=ORIENTED_EDGE('',*,*,#639,.T.);
#584=ORIENTED_EDGE('',*,*,#639,.F.);
#585=ORIENTED_EDGE('',*,*,#640,.T.);
#586=ORIENTED_EDGE('',*,*,#641,.T.);
#587=ORIENTED_EDGE('',*,*,#640,.F.);
#588=ORIENTED_EDGE('',*,*,#641,.F.);
#589=ORIENTED_EDGE('',*,*,#642,.T.);
#590=ORIENTED_EDGE('',*,*,#642,.F.);
#591=ORIENTED_EDGE('',*,*,#643,.T.);
#592=ORIENTED_EDGE('',*,*,#643,.F.);
#593=ORIENTED_EDGE('',*,*,#644,.T.);
#594=ORIENTED_EDGE('',*,*,#645,.T.);
#595=ORIENTED_EDGE('',*,*,#644,.F.);
#596=ORIENTED_EDGE('',*,*,#645,.F.);
#597=ORIENTED_EDGE('',*,*,#646,.T.);
#598=ORIENTED_EDGE('',*,*,#646,.F.);
#599=EDGE_CURVE('',#647,#647,#648,.T.);
#600=EDGE_CURVE('',#649,#649,#650,.T.);
#601=EDGE_CURVE('',#651,#652,#653,.T.);
#602=EDGE_CURVE('',#652,#654,#655,.T.);
#603=EDGE_CURVE('',#654,#656,#657,.T.);
#604=EDGE_CURVE('',#656,#658,#659,.T.);
#605=EDGE_CURVE('',#658,#660,#661,.T.);
#606=EDGE_CURVE('',#660,#662,#663,.T.);
#607=EDGE_CURVE('',#662,#664,#665,.T.);
#608=EDGE_CURVE('',#664,#666,#667,.T.);
#609=EDGE_CURVE('',#666,#668,#669,.T.);
#610=EDGE_CURVE('',#668,#670,#671,.T.);
#611=EDGE_CURVE('',#670,#672,#673,.T.);
#612=EDGE_CURVE('',#672,#651,#674,.T.);
#613=EDGE_CURVE('',#675,#675,#676,.F.);
#614=EDGE_CURVE('',#677,#677,#678,.T.);
#615=EDGE_CURVE('',#679,#680,#681,.T.);
#616=EDGE_CURVE('',#682,#679,#683,.T.);
#617=EDGE_CURVE('',#684,#682,#685,.T.);
#618=EDGE_CURVE('',#686,#684,#687,.T.);
#619=EDGE_CURVE('',#688,#686,#689,.T.);
#620=EDGE_CURVE('',#690,#688,#691,.T.);
#621=EDGE_CURVE('',#692,#690,#693,.T.);
#622=EDGE_CURVE('',#694,#692,#695,.T.);
#623=EDGE_CURVE('',#696,#694,#697,.T.);
#624=EDGE_CURVE('',#698,#696,#699,.T.);
#625=EDGE_CURVE('',#700,#698,#701,.T.);
#626=EDGE_CURVE('',#680,#700,#702,.T.);
#627=EDGE_CURVE('',#700,#652,#703,.T.);
#628=EDGE_CURVE('',#680,#651,#704,.T.);
#629=EDGE_CURVE('',#698,#654,#705,.T.);
#630=EDGE_CURVE('',#696,#656,#706,.T.);
#631=EDGE_CURVE('',#694,#658,#707,.T.);
#632=EDGE_CURVE('',#692,#660,#708,.T.);
#633=EDGE_CURVE('',#690,#662,#709,.T.);
#634=EDGE_CURVE('',#688,#664,#710,.T.);
#635=EDGE_CURVE('',#686,#666,#711,.T.);
#636=EDGE_CURVE('',#684,#668,#712,.T.);
#637=EDGE_CURVE('',#682,#670,#713,.T.);
#638=EDGE_CURVE('',#679,#672,#714,.T.);
#639=EDGE_CURVE('',#715,#715,#716,.T.);
#640=EDGE_CURVE('',#717,#717,#718,.T.);
#641=EDGE_CURVE('',#719,#719,#720,.T.);
#642=EDGE_CURVE('',#721,#721,#722,.T.);
#643=EDGE_CURVE('',#723,#723,#724,.T.);
#644=EDGE_CURVE('',#725,#725,#726,.T.);
#645=EDGE_CURVE('',#727,#727,#728,.T.);
#646=EDGE_CURVE('',#729,#729,#730,.T.);
#647=VERTEX_POINT('',#731);
#648=CIRCLE('',#732,0.66);
#649=VERTEX_POINT('',#736);
#650=CIRCLE('',#737,0.66);
#651=VERTEX_POINT('',#741);
#652=VERTEX_POINT('',#742);
#653=LINE('',#743,#744);
#654=VERTEX_POINT('',#746);
#655=LINE('',#747,#748);
#656=VERTEX_POINT('',#750);
#657=LINE('',#751,#752);
#658=VERTEX_POINT('',#754);
#659=LINE('',#755,#756);
#660=VERTEX_POINT('',#758);
#661=LINE('',#759,#760);
#662=VERTEX_POINT('',#762);
#663=LINE('',#763,#764);
#664=VERTEX_POINT('',#766);
#665=LINE('',#767,#768);
#666=VERTEX_POINT('',#770);
#667=LINE('',#771,#772);
#668=VERTEX_POINT('',#774);
#669=LINE('',#775,#776);
#670=VERTEX_POINT('',#778);
#671=LINE('',#779,#780);
#672=VERTEX_POINT('',#782);
#673=LINE('',#783,#784);
#674=LINE('',#786,#787);
#675=VERTEX_POINT('',#789);
#676=CIRCLE('',#790,0.9);
#677=VERTEX_POINT('',#794);
#678=CIRCLE('',#795,0.9);
#679=VERTEX_POINT('',#799);
#680=VERTEX_POINT('',#800);
#681=LINE('',#801,#802);
#682=VERTEX_POINT('',#804);
#683=LINE('',#805,#806);
#684=VERTEX_POINT('',#808);
#685=LINE('',#809,#810);
#686=VERTEX_POINT('',#812);
#687=LINE('',#813,#814);
#688=VERTEX_POINT('',#816);
#689=LINE('',#817,#818);
#690=VERTEX_POINT('',#820);
#691=LINE('',#821,#822);
#692=VERTEX_POINT('',#824);
#693=LINE('',#825,#826);
#694=VERTEX_POINT('',#828);
#695=LINE('',#829,#830);
#696=VERTEX_POINT('',#832);
#697=LINE('',#833,#834);
#698=VERTEX_POINT('',#836);
#699=LINE('',#837,#838);
#700=VERTEX_POINT('',#840);
#701=LINE('',#841,#842);
#702=LINE('',#844,#845);
#703=LINE('',#847,#848);
#704=LINE('',#850,#851);
#705=LINE('',#853,#854);
#706=LINE('',#856,#857);
#707=LINE('',#859,#860);
#708=LINE('',#862,#863);
#709=LINE('',#865,#866);
#710=LINE('',#868,#869);
#711=LINE('',#871,#872);
#712=LINE('',#874,#875);
#713=LINE('',#877,#878);
#714=LINE('',#880,#881);
#715=VERTEX_POINT('',#883);
#716=CIRCLE('',#884,0.3);
#717=VERTEX_POINT('',#888);
#718=CIRCLE('',#889,0.3);
#719=VERTEX_POINT('',#893);
#720=CIRCLE('',#894,0.9);
#721=VERTEX_POINT('',#898);
#722=CIRCLE('',#899,0.9);
#723=VERTEX_POINT('',#903);
#724=CIRCLE('',#904,0.66);
#725=VERTEX_POINT('',#908);
#726=CIRCLE('',#909,0.66);
#727=VERTEX_POINT('',#913);
#728=CIRCLE('',#914,0.23);
#729=VERTEX_POINT('',#918);
#730=CIRCLE('',#919,0.23);
#731=CARTESIAN_POINT('',(0.66,-8.08266887437253E-017,4.));
#732=AXIS2_PLACEMENT_3D('',#733,#734,#735);
#733=CARTESIAN_POINT('',(0.,0.,4.));
#734=DIRECTION('',(0.,0.,1.));
#735=DIRECTION('',(1.,0.,0.));
#736=CARTESIAN_POINT('',(0.66,0.,1.5));
#737=AXIS2_PLACEMENT_3D('',#738,#739,#740);
#738=CARTESIAN_POINT('',(0.,0.,1.5));
#739=DIRECTION('',(0.,0.,1.));
#740=DIRECTION('',(1.,0.,0.));
#741=CARTESIAN_POINT('',(-1.27,-0.75,4.5));
#742=CARTESIAN_POINT('',(-1.12,-0.75,4.5));
#743=CARTESIAN_POINT('',(-1.27,-0.75,4.5));
#744=VECTOR('',#745,1.);
#745=DIRECTION('',(1.,0.,0.));
#746=CARTESIAN_POINT('',(-0.819777860021394,-1.27,4.5));
#747=CARTESIAN_POINT('',(-1.12,-0.75,4.5));
#748=VECTOR('',#749,1.);
#749=DIRECTION('',(0.5,-0.866025403784438,0.));
#750=CARTESIAN_POINT('',(0.819777860021395,-1.27,4.5));
#751=CARTESIAN_POINT('',(-0.819777860021394,-1.27,4.5));
#752=VECTOR('',#753,1.);
#753=DIRECTION('',(1.,0.,0.));
#754=CARTESIAN_POINT('',(1.12,-0.75,4.5));
#755=CARTESIAN_POINT('',(0.819777860021395,-1.27,4.5));
#756=VECTOR('',#757,1.);
#757=DIRECTION('',(0.5,0.866025403784439,0.));
#758=CARTESIAN_POINT('',(1.27,-0.75,4.5));
#759=CARTESIAN_POINT('',(1.12,-0.75,4.5));
#760=VECTOR('',#761,1.);
#761=DIRECTION('',(1.,0.,0.));
#762=CARTESIAN_POINT('',(1.27,0.75,4.5));
#763=CARTESIAN_POINT('',(1.27,-0.75,4.5));
#764=VECTOR('',#765,1.);
#765=DIRECTION('',(0.,1.,0.));
#766=CARTESIAN_POINT('',(1.12,0.75,4.5));
#767=CARTESIAN_POINT('',(1.27,0.75,4.5));
#768=VECTOR('',#769,1.);
#769=DIRECTION('',(-1.,0.,0.));
#770=CARTESIAN_POINT('',(0.819777860021394,1.27,4.5));
#771=CARTESIAN_POINT('',(1.12,0.75,4.5));
#772=VECTOR('',#773,1.);
#773=DIRECTION('',(-0.5,0.866025403784438,0.));
#774=CARTESIAN_POINT('',(-0.819777860021395,1.27,4.5));
#775=CARTESIAN_POINT('',(0.819777860021394,1.27,4.5));
#776=VECTOR('',#777,1.);
#777=DIRECTION('',(-1.,0.,0.));
#778=CARTESIAN_POINT('',(-1.12,0.75,4.5));
#779=CARTESIAN_POINT('',(-0.819777860021395,1.27,4.5));
#780=VECTOR('',#781,1.);
#781=DIRECTION('',(-0.5,-0.866025403784439,0.));
#782=CARTESIAN_POINT('',(-1.27,0.75,4.5));
#783=CARTESIAN_POINT('',(-1.12,0.75,4.5));
#784=VECTOR('',#785,1.);
#785=DIRECTION('',(-1.,0.,0.));
#786=CARTESIAN_POINT('',(-1.27,0.75,4.5));
#787=VECTOR('',#788,1.);
#788=DIRECTION('',(0.,-1.,0.));
#789=CARTESIAN_POINT('',(0.9,0.,4.5));
#790=AXIS2_PLACEMENT_3D('',#791,#792,#793);
#791=CARTESIAN_POINT('',(0.,0.,4.5));
#792=DIRECTION('',(0.,0.,1.));
#793=DIRECTION('',(1.,0.,0.));
#794=CARTESIAN_POINT('',(0.9,0.,4.));
#795=AXIS2_PLACEMENT_3D('',#796,#797,#798);
#796=CARTESIAN_POINT('',(0.,0.,4.));
#797=DIRECTION('',(0.,0.,1.));
#798=DIRECTION('',(1.,0.,0.));
#799=CARTESIAN_POINT('',(-1.27,0.75,1.5));
#800=CARTESIAN_POINT('',(-1.27,-0.75,1.5));
#801=CARTESIAN_POINT('',(-1.27,0.75,1.5));
#802=VECTOR('',#803,1.);
#803=DIRECTION('',(0.,-1.,0.));
#804=CARTESIAN_POINT('',(-1.12,0.75,1.5));
#805=CARTESIAN_POINT('',(-1.12,0.75,1.5));
#806=VECTOR('',#807,1.);
#807=DIRECTION('',(-1.,0.,0.));
#808=CARTESIAN_POINT('',(-0.819777860021395,1.27,1.5));
#809=CARTESIAN_POINT('',(-0.819777860021395,1.27,1.5));
#810=VECTOR('',#811,1.);
#811=DIRECTION('',(-0.5,-0.866025403784439,0.));
#812=CARTESIAN_POINT('',(0.819777860021394,1.27,1.5));
#813=CARTESIAN_POINT('',(0.819777860021394,1.27,1.5));
#814=VECTOR('',#815,1.);
#815=DIRECTION('',(-1.,0.,0.));
#816=CARTESIAN_POINT('',(1.12,0.75,1.5));
#817=CARTESIAN_POINT('',(1.12,0.75,1.5));
#818=VECTOR('',#819,1.);
#819=DIRECTION('',(-0.5,0.866025403784438,0.));
#820=CARTESIAN_POINT('',(1.27,0.75,1.5));
#821=CARTESIAN_POINT('',(1.27,0.75,1.5));
#822=VECTOR('',#823,1.);
#823=DIRECTION('',(-1.,0.,0.));
#824=CARTESIAN_POINT('',(1.27,-0.75,1.5));
#825=CARTESIAN_POINT('',(1.27,-0.75,1.5));
#826=VECTOR('',#827,1.);
#827=DIRECTION('',(0.,1.,0.));
#828=CARTESIAN_POINT('',(1.12,-0.75,1.5));
#829=CARTESIAN_POINT('',(1.12,-0.75,1.5));
#830=VECTOR('',#831,1.);
#831=DIRECTION('',(1.,0.,0.));
#832=CARTESIAN_POINT('',(0.819777860021395,-1.27,1.5));
#833=CARTESIAN_POINT('',(0.819777860021395,-1.27,1.5));
#834=VECTOR('',#835,1.);
#835=DIRECTION('',(0.5,0.866025403784439,0.));
#836=CARTESIAN_POINT('',(-0.819777860021394,-1.27,1.5));
#837=CARTESIAN_POINT('',(-0.819777860021394,-1.27,1.5));
#838=VECTOR('',#839,1.);
#839=DIRECTION('',(1.,0.,0.));
#840=CARTESIAN_POINT('',(-1.12,-0.75,1.5));
#841=CARTESIAN_POINT('',(-1.12,-0.75,1.5));
#842=VECTOR('',#843,1.);
#843=DIRECTION('',(0.5,-0.866025403784438,0.));
#844=CARTESIAN_POINT('',(-1.27,-0.75,1.5));
#845=VECTOR('',#846,1.);
#846=DIRECTION('',(1.,0.,0.));
#847=CARTESIAN_POINT('',(-1.12,-0.75,1.5));
#848=VECTOR('',#849,1.);
#849=DIRECTION('',(0.,0.,1.));
#850=CARTESIAN_POINT('',(-1.27,-0.75,1.5));
#851=VECTOR('',#852,1.);
#852=DIRECTION('',(0.,0.,1.));
#853=CARTESIAN_POINT('',(-0.819777860021395,-1.27,1.5));
#854=VECTOR('',#855,1.);
#855=DIRECTION('',(0.,0.,1.));
#856=CARTESIAN_POINT('',(0.819777860021395,-1.27,1.5));
#857=VECTOR('',#858,1.);
#858=DIRECTION('',(0.,0.,1.));
#859=CARTESIAN_POINT('',(1.12,-0.75,1.5));
#860=VECTOR('',#861,1.);
#861=DIRECTION('',(0.,0.,1.));
#862=CARTESIAN_POINT('',(1.27,-0.75,1.5));
#863=VECTOR('',#864,1.);
#864=DIRECTION('',(0.,0.,1.));
#865=CARTESIAN_POINT('',(1.27,0.75,1.5));
#866=VECTOR('',#867,1.);
#867=DIRECTION('',(0.,0.,1.));
#868=CARTESIAN_POINT('',(1.12,0.75,1.5));
#869=VECTOR('',#870,1.);
#870=DIRECTION('',(0.,0.,1.));
#871=CARTESIAN_POINT('',(0.819777860021395,1.27,1.5));
#872=VECTOR('',#873,1.);
#873=DIRECTION('',(0.,0.,1.));
#874=CARTESIAN_POINT('',(-0.819777860021395,1.27,1.5));
#875=VECTOR('',#876,1.);
#876=DIRECTION('',(0.,0.,1.));
#877=CARTESIAN_POINT('',(-1.12,0.75,1.5));
#878=VECTOR('',#879,1.);
#879=DIRECTION('',(0.,0.,1.));
#880=CARTESIAN_POINT('',(-1.27,0.75,1.5));
#881=VECTOR('',#882,1.);
#882=DIRECTION('',(0.,0.,1.));
#883=CARTESIAN_POINT('',(-0.3,-5.08228421646152E-016,7.7));
#884=AXIS2_PLACEMENT_3D('',#885,#886,#887);
#885=CARTESIAN_POINT('',(-4.71489017671731E-016,-4.71489017671731E-016,7.7));
#886=DIRECTION('',(-6.12323399573677E-017,-6.12323399573677E-017,1.));
#887=DIRECTION('',(-1.,-1.22464679914736E-016,-6.12323399573677E-017));
#888=CARTESIAN_POINT('',(-0.3,-3.42901103761259E-016,5.));
#889=AXIS2_PLACEMENT_3D('',#890,#891,#892);
#890=CARTESIAN_POINT('',(-3.06161699786838E-016,-3.06161699786838E-016,5.));
#891=DIRECTION('',(-6.12323399573677E-017,-6.12323399573677E-017,1.));
#892=DIRECTION('',(-1.,-1.22464679914735E-016,-6.12323399573677E-017));
#893=CARTESIAN_POINT('',(-0.9,-4.163799117101E-016,5.));
#894=AXIS2_PLACEMENT_3D('',#895,#896,#897);
#895=CARTESIAN_POINT('',(-3.06161699786838E-016,-3.06161699786838E-016,5.));
#896=DIRECTION('',(-6.12323399573677E-017,-6.12323399573677E-017,1.));
#897=DIRECTION('',(-1.,-1.22464679914735E-016,-6.12323399573677E-017));
#898=CARTESIAN_POINT('',(-0.9,-3.55147571752732E-016,4.));
#899=AXIS2_PLACEMENT_3D('',#900,#901,#902);
#900=CARTESIAN_POINT('',(-2.44929359829471E-016,-2.44929359829471E-016,4.));
#901=DIRECTION('',(-6.12323399573677E-017,-6.12323399573677E-017,1.));
#902=DIRECTION('',(-1.,-1.22464679914735E-016,-6.12323399573677E-017));
#903=CARTESIAN_POINT('',(-0.66,-3.25756048573196E-016,4.));
#904=AXIS2_PLACEMENT_3D('',#905,#906,#907);
#905=CARTESIAN_POINT('',(-2.44929359829471E-016,-2.44929359829471E-016,4.));
#906=DIRECTION('',(-6.12323399573677E-017,-6.12323399573677E-017,1.));
#907=DIRECTION('',(-1.,-1.22464679914735E-016,-6.12323399573677E-017));
#908=CARTESIAN_POINT('',(-0.66,-1.07156594925393E-016,0.43));
#909=AXIS2_PLACEMENT_3D('',#910,#911,#912);
#910=CARTESIAN_POINT('',(-2.63299061816681E-017,-2.63299061816681E-017,0.43));
#911=DIRECTION('',(-6.12323399573677E-017,-6.12323399573677E-017,1.));
#912=DIRECTION('',(-1.,-1.22464679914735E-016,-6.12323399573677E-017));
#913=CARTESIAN_POINT('',(-0.23,-2.81668763803891E-017,-2.81668763803891E-017));
#914=AXIS2_PLACEMENT_3D('',#915,#916,#917);
#915=CARTESIAN_POINT('',(0.,0.,0.));
#916=DIRECTION('',(-6.12323399573677E-017,-6.12323399573676E-017,1.));
#917=DIRECTION('',(-1.,-1.22464679914735E-016,-6.12323399573677E-017));
#918=CARTESIAN_POINT('',(-0.23,1.83697019872103E-016,-3.46));
#919=AXIS2_PLACEMENT_3D('',#920,#921,#922);
#920=CARTESIAN_POINT('',(2.11863896252492E-016,2.11863896252492E-016,-3.46));
#921=DIRECTION('',(-6.12323399573675E-017,-6.12323399573677E-017,1.));
#922=DIRECTION('',(-1.,-1.22464679914735E-016,-6.12323399573675E-017));
ENDSEC;
END-ISO-10303-21;
