ISO-10303-21;
HEADER;
FILE_DESCRIPTION(('STEP AP214'),
    '1');
FILE_NAME('PLSS (DS1004-xx2 CONNFLY)',
    '',
    ('UNSPECIFIED'),
    ('UNSPECIFIED'),
    'ASCON STEP Converter 1.6',
    'ASCON Math Kernel',
    '');
FILE_SCHEMA(('AUTOMOTIVE_DESIGN { 1 0 10303 214 3 1 1}'));
ENDSEC;

DATA;
#1=SHAPE_REPRESENTATION('NONE',(#2),#6);
#2=AXIS2_PLACEMENT_3D('',#3,#4,#5);
#3=CARTESIAN_POINT('',(0.,0.,0.));
#4=DIRECTION('',(0.,0.,1.));
#5=DIRECTION('',(1.,0.,0.));
#6=(GEOMETRIC_REPRESENTATION_CONTEXT(3)GLOBAL_UNCERTAINTY_ASSIGNED_CONTEXT((#8))
GLOBAL_UNIT_ASSIGNED_CONTEXT((#7,#9,#10))REPRESENTATION_CONTEXT('NONE','NONE'));
#7=(LENGTH_UNIT()NAMED_UNIT(*)SI_UNIT(.MILLI.,.METRE.));
#8=UNCERTAINTY_MEASURE_WITH_UNIT(LENGTH_MEASURE(1.E-005),#7,'NONE','NONE');
#9=(NAMED_UNIT(*)PLANE_ANGLE_UNIT()SI_UNIT($,.RADIAN.));
#10=(NAMED_UNIT(*)SI_UNIT($,.STERADIAN.)SOLID_ANGLE_UNIT());
#11=SHAPE_DEFINITION_REPRESENTATION(#12,#1);
#12=PRODUCT_DEFINITION_SHAPE('NONE','NONE',#13);
#13=PRODUCT_DEFINITION('','UNSPECIFIED',#14,#22);
#14=PRODUCT_DEFINITION_FORMATION_WITH_SPECIFIED_SOURCE('ANY','UNSPECIFIED',#15,.NOT_KNOWN.);
#15=PRODUCT('','PLSS (DS1004-xx2 CONNFLY)','NONE',(#25));
#16=PERSON('UNSPECIFIED','dima','UNSPECIFIED',('UNSPECIFIED'),('UNSPECIFIED'),('UNSPECIFIED'));
#17=ORGANIZATION('UNSPECIFIED','UNSPECIFIED','UNSPECIFIED');
#18=PERSON_AND_ORGANIZATION(#16,#17);
#19=PERSON_AND_ORGANIZATION_ROLE('design_owner');
#20=CC_DESIGN_PERSON_AND_ORGANIZATION_ASSIGNMENT(#18,#19,(#15));
#21=PRODUCT_RELATED_PRODUCT_CATEGORY('detail','',(#15));
#22=DESIGN_CONTEXT('detailed design',#23,'design');
#23=APPLICATION_CONTEXT('configuration controlled 3d designs of mechanical parts and assemblies');
#24=APPLICATION_PROTOCOL_DEFINITION('international standard','automotive_design',
2011,#23);
#25=MECHANICAL_CONTEXT('NONE',#23,'mechanical');
#26=CC_DESIGN_DATE_AND_TIME_ASSIGNMENT(#27,#31,(#13));
#27=DATE_AND_TIME(#28,#29);
#28=CALENDAR_DATE(0,1,1);
#29=LOCAL_TIME(0,0,0.,#30);
#30=COORDINATED_UNIVERSAL_TIME_OFFSET(0,0,.AHEAD.);
#31=DATE_TIME_ROLE('creation_date');
#32=CC_DESIGN_APPROVAL(#33,(#13));
#33=APPROVAL(#34,'UNSPECIFIED');
#34=APPROVAL_STATUS('not_yet_approved');
#35=APPROVAL_DATE_TIME(#36,#33);
#36=DATE_AND_TIME(#37,#38);
#37=CALENDAR_DATE(0,1,1);
#38=LOCAL_TIME(0,0,0.,#39);
#39=COORDINATED_UNIVERSAL_TIME_OFFSET(0,0,.AHEAD.);
#40=MANIFOLD_SOLID_BREP('',#41);
#41=CLOSED_SHELL('',(#83,#92,#101,#110,#119,#128,#137,#146,#155,#164,#173,#182,#191,
#200,#209,#218,#227,#236,#245,#254,#263,#272,#281,#290,#299,#308,#317,#326,#335,
#344,#353,#362,#371,#380,#389,#398,#407,#416,#425));
#42=COLOUR_RGB('',0.156862745098039,0.156862745098039,0.156862745098039);
#43=FILL_AREA_STYLE_COLOUR('',#42);
#44=FILL_AREA_STYLE($,(#43));
#45=SURFACE_STYLE_FILL_AREA(#44);
#46=SURFACE_SIDE_STYLE('',(#45));
#47=SURFACE_STYLE_USAGE(.BOTH.,#46);
#48=PRESENTATION_STYLE_ASSIGNMENT((#47));
#49=MECHANICAL_DESIGN_GEOMETRIC_PRESENTATION_REPRESENTATION('NONE',(#50,#60,#70,
#80,#91,#100,#109,#118,#127,#136,#145,#154,#163,#172,#181,#190,#199,#208,#217,#226,
#235,#244,#253,#262,#271,#280,#289,#298,#307,#316,#325,#334,#343,#352,#361,#370,
#379,#388,#397,#406,#415,#424,#433,#442,#451,#460,#469,#478,#487,#496,#505,#514,
#523,#532,#541,#550,#559,#568,#577,#586,#595,#604,#613,#622,#631,#640,#649,#658,
#667,#676),#6);
#50=STYLED_ITEM('',(#48),#40);
#51=MANIFOLD_SOLID_BREP('',#52);
#52=CLOSED_SHELL('',(#434,#443,#452,#461,#470,#479,#488,#497,#506));
#53=COLOUR_RGB('',0.156862745098039,0.156862745098039,0.156862745098039);
#54=FILL_AREA_STYLE_COLOUR('',#53);
#55=FILL_AREA_STYLE($,(#54));
#56=SURFACE_STYLE_FILL_AREA(#55);
#57=SURFACE_SIDE_STYLE('',(#56));
#58=SURFACE_STYLE_USAGE(.BOTH.,#57);
#59=PRESENTATION_STYLE_ASSIGNMENT((#58));
#60=STYLED_ITEM('',(#59),#51);
#61=MANIFOLD_SOLID_BREP('',#62);
#62=CLOSED_SHELL('',(#515,#524,#533,#542,#551,#560,#569,#578,#587));
#63=COLOUR_RGB('',0.156862745098039,0.156862745098039,0.156862745098039);
#64=FILL_AREA_STYLE_COLOUR('',#63);
#65=FILL_AREA_STYLE($,(#64));
#66=SURFACE_STYLE_FILL_AREA(#65);
#67=SURFACE_SIDE_STYLE('',(#66));
#68=SURFACE_STYLE_USAGE(.BOTH.,#67);
#69=PRESENTATION_STYLE_ASSIGNMENT((#68));
#70=STYLED_ITEM('',(#69),#61);
#71=MANIFOLD_SOLID_BREP('',#72);
#72=CLOSED_SHELL('',(#596,#605,#614,#623,#632,#641,#650,#659,#668));
#73=COLOUR_RGB('',0.156862745098039,0.156862745098039,0.156862745098039);
#74=FILL_AREA_STYLE_COLOUR('',#73);
#75=FILL_AREA_STYLE($,(#74));
#76=SURFACE_STYLE_FILL_AREA(#75);
#77=SURFACE_SIDE_STYLE('',(#76));
#78=SURFACE_STYLE_USAGE(.BOTH.,#77);
#79=PRESENTATION_STYLE_ASSIGNMENT((#78));
#80=STYLED_ITEM('',(#79),#71);
#81=ADVANCED_BREP_SHAPE_REPRESENTATION('NONE',(#40,#51,#61,#71),#6);
#82=SHAPE_REPRESENTATION_RELATIONSHIP('','',#1,#81);
#83=ADVANCED_FACE('',(#677,#679),#681,.F.);
#84=COLOUR_RGB('',0.156862745098039,0.156862745098039,0.156862745098039);
#85=FILL_AREA_STYLE_COLOUR('',#84);
#86=FILL_AREA_STYLE($,(#85));
#87=SURFACE_STYLE_FILL_AREA(#86);
#88=SURFACE_SIDE_STYLE('',(#87));
#89=SURFACE_STYLE_USAGE(.BOTH.,#88);
#90=PRESENTATION_STYLE_ASSIGNMENT((#89));
#91=STYLED_ITEM('',(#90),#83);
#92=ADVANCED_FACE('',(#686,#688),#690,.F.);
#93=COLOUR_RGB('',0.156862745098039,0.156862745098039,0.156862745098039);
#94=FILL_AREA_STYLE_COLOUR('',#93);
#95=FILL_AREA_STYLE($,(#94));
#96=SURFACE_STYLE_FILL_AREA(#95);
#97=SURFACE_SIDE_STYLE('',(#96));
#98=SURFACE_STYLE_USAGE(.BOTH.,#97);
#99=PRESENTATION_STYLE_ASSIGNMENT((#98));
#100=STYLED_ITEM('',(#99),#92);
#101=ADVANCED_FACE('',(#695,#697,#699,#701),#703,.T.);
#102=COLOUR_RGB('',0.156862745098039,0.156862745098039,0.156862745098039);
#103=FILL_AREA_STYLE_COLOUR('',#102);
#104=FILL_AREA_STYLE($,(#103));
#105=SURFACE_STYLE_FILL_AREA(#104);
#106=SURFACE_SIDE_STYLE('',(#105));
#107=SURFACE_STYLE_USAGE(.BOTH.,#106);
#108=PRESENTATION_STYLE_ASSIGNMENT((#107));
#109=STYLED_ITEM('',(#108),#101);
#110=ADVANCED_FACE('',(#708,#710),#712,.T.);
#111=COLOUR_RGB('',0.156862745098039,0.156862745098039,0.156862745098039);
#112=FILL_AREA_STYLE_COLOUR('',#111);
#113=FILL_AREA_STYLE($,(#112));
#114=SURFACE_STYLE_FILL_AREA(#113);
#115=SURFACE_SIDE_STYLE('',(#114));
#116=SURFACE_STYLE_USAGE(.BOTH.,#115);
#117=PRESENTATION_STYLE_ASSIGNMENT((#116));
#118=STYLED_ITEM('',(#117),#110);
#119=ADVANCED_FACE('',(#717,#719),#721,.F.);
#120=COLOUR_RGB('',0.156862745098039,0.156862745098039,0.156862745098039);
#121=FILL_AREA_STYLE_COLOUR('',#120);
#122=FILL_AREA_STYLE($,(#121));
#123=SURFACE_STYLE_FILL_AREA(#122);
#124=SURFACE_SIDE_STYLE('',(#123));
#125=SURFACE_STYLE_USAGE(.BOTH.,#124);
#126=PRESENTATION_STYLE_ASSIGNMENT((#125));
#127=STYLED_ITEM('',(#126),#119);
#128=ADVANCED_FACE('',(#726,#728),#730,.T.);
#129=COLOUR_RGB('',0.156862745098039,0.156862745098039,0.156862745098039);
#130=FILL_AREA_STYLE_COLOUR('',#129);
#131=FILL_AREA_STYLE($,(#130));
#132=SURFACE_STYLE_FILL_AREA(#131);
#133=SURFACE_SIDE_STYLE('',(#132));
#134=SURFACE_STYLE_USAGE(.BOTH.,#133);
#135=PRESENTATION_STYLE_ASSIGNMENT((#134));
#136=STYLED_ITEM('',(#135),#128);
#137=ADVANCED_FACE('',(#735,#737),#739,.F.);
#138=COLOUR_RGB('',0.156862745098039,0.156862745098039,0.156862745098039);
#139=FILL_AREA_STYLE_COLOUR('',#138);
#140=FILL_AREA_STYLE($,(#139));
#141=SURFACE_STYLE_FILL_AREA(#140);
#142=SURFACE_SIDE_STYLE('',(#141));
#143=SURFACE_STYLE_USAGE(.BOTH.,#142);
#144=PRESENTATION_STYLE_ASSIGNMENT((#143));
#145=STYLED_ITEM('',(#144),#137);
#146=ADVANCED_FACE('',(#744,#746,#748,#750),#752,.F.);
#147=COLOUR_RGB('',0.156862745098039,0.156862745098039,0.156862745098039);
#148=FILL_AREA_STYLE_COLOUR('',#147);
#149=FILL_AREA_STYLE($,(#148));
#150=SURFACE_STYLE_FILL_AREA(#149);
#151=SURFACE_SIDE_STYLE('',(#150));
#152=SURFACE_STYLE_USAGE(.BOTH.,#151);
#153=PRESENTATION_STYLE_ASSIGNMENT((#152));
#154=STYLED_ITEM('',(#153),#146);
#155=ADVANCED_FACE('',(#757),#759,.T.);
#156=COLOUR_RGB('',0.156862745098039,0.156862745098039,0.156862745098039);
#157=FILL_AREA_STYLE_COLOUR('',#156);
#158=FILL_AREA_STYLE($,(#157));
#159=SURFACE_STYLE_FILL_AREA(#158);
#160=SURFACE_SIDE_STYLE('',(#159));
#161=SURFACE_STYLE_USAGE(.BOTH.,#160);
#162=PRESENTATION_STYLE_ASSIGNMENT((#161));
#163=STYLED_ITEM('',(#162),#155);
#164=ADVANCED_FACE('',(#764),#766,.T.);
#165=COLOUR_RGB('',0.156862745098039,0.156862745098039,0.156862745098039);
#166=FILL_AREA_STYLE_COLOUR('',#165);
#167=FILL_AREA_STYLE($,(#166));
#168=SURFACE_STYLE_FILL_AREA(#167);
#169=SURFACE_SIDE_STYLE('',(#168));
#170=SURFACE_STYLE_USAGE(.BOTH.,#169);
#171=PRESENTATION_STYLE_ASSIGNMENT((#170));
#172=STYLED_ITEM('',(#171),#164);
#173=ADVANCED_FACE('',(#771),#773,.T.);
#174=COLOUR_RGB('',0.156862745098039,0.156862745098039,0.156862745098039);
#175=FILL_AREA_STYLE_COLOUR('',#174);
#176=FILL_AREA_STYLE($,(#175));
#177=SURFACE_STYLE_FILL_AREA(#176);
#178=SURFACE_SIDE_STYLE('',(#177));
#179=SURFACE_STYLE_USAGE(.BOTH.,#178);
#180=PRESENTATION_STYLE_ASSIGNMENT((#179));
#181=STYLED_ITEM('',(#180),#173);
#182=ADVANCED_FACE('',(#778),#780,.T.);
#183=COLOUR_RGB('',0.156862745098039,0.156862745098039,0.156862745098039);
#184=FILL_AREA_STYLE_COLOUR('',#183);
#185=FILL_AREA_STYLE($,(#184));
#186=SURFACE_STYLE_FILL_AREA(#185);
#187=SURFACE_SIDE_STYLE('',(#186));
#188=SURFACE_STYLE_USAGE(.BOTH.,#187);
#189=PRESENTATION_STYLE_ASSIGNMENT((#188));
#190=STYLED_ITEM('',(#189),#182);
#191=ADVANCED_FACE('',(#785),#787,.T.);
#192=COLOUR_RGB('',0.156862745098039,0.156862745098039,0.156862745098039);
#193=FILL_AREA_STYLE_COLOUR('',#192);
#194=FILL_AREA_STYLE($,(#193));
#195=SURFACE_STYLE_FILL_AREA(#194);
#196=SURFACE_SIDE_STYLE('',(#195));
#197=SURFACE_STYLE_USAGE(.BOTH.,#196);
#198=PRESENTATION_STYLE_ASSIGNMENT((#197));
#199=STYLED_ITEM('',(#198),#191);
#200=ADVANCED_FACE('',(#792),#794,.T.);
#201=COLOUR_RGB('',0.156862745098039,0.156862745098039,0.156862745098039);
#202=FILL_AREA_STYLE_COLOUR('',#201);
#203=FILL_AREA_STYLE($,(#202));
#204=SURFACE_STYLE_FILL_AREA(#203);
#205=SURFACE_SIDE_STYLE('',(#204));
#206=SURFACE_STYLE_USAGE(.BOTH.,#205);
#207=PRESENTATION_STYLE_ASSIGNMENT((#206));
#208=STYLED_ITEM('',(#207),#200);
#209=ADVANCED_FACE('',(#799),#801,.T.);
#210=COLOUR_RGB('',0.156862745098039,0.156862745098039,0.156862745098039);
#211=FILL_AREA_STYLE_COLOUR('',#210);
#212=FILL_AREA_STYLE($,(#211));
#213=SURFACE_STYLE_FILL_AREA(#212);
#214=SURFACE_SIDE_STYLE('',(#213));
#215=SURFACE_STYLE_USAGE(.BOTH.,#214);
#216=PRESENTATION_STYLE_ASSIGNMENT((#215));
#217=STYLED_ITEM('',(#216),#209);
#218=ADVANCED_FACE('',(#806),#808,.T.);
#219=COLOUR_RGB('',0.156862745098039,0.156862745098039,0.156862745098039);
#220=FILL_AREA_STYLE_COLOUR('',#219);
#221=FILL_AREA_STYLE($,(#220));
#222=SURFACE_STYLE_FILL_AREA(#221);
#223=SURFACE_SIDE_STYLE('',(#222));
#224=SURFACE_STYLE_USAGE(.BOTH.,#223);
#225=PRESENTATION_STYLE_ASSIGNMENT((#224));
#226=STYLED_ITEM('',(#225),#218);
#227=ADVANCED_FACE('',(#813),#815,.T.);
#228=COLOUR_RGB('',0.156862745098039,0.156862745098039,0.156862745098039);
#229=FILL_AREA_STYLE_COLOUR('',#228);
#230=FILL_AREA_STYLE($,(#229));
#231=SURFACE_STYLE_FILL_AREA(#230);
#232=SURFACE_SIDE_STYLE('',(#231));
#233=SURFACE_STYLE_USAGE(.BOTH.,#232);
#234=PRESENTATION_STYLE_ASSIGNMENT((#233));
#235=STYLED_ITEM('',(#234),#227);
#236=ADVANCED_FACE('',(#820),#822,.T.);
#237=COLOUR_RGB('',0.156862745098039,0.156862745098039,0.156862745098039);
#238=FILL_AREA_STYLE_COLOUR('',#237);
#239=FILL_AREA_STYLE($,(#238));
#240=SURFACE_STYLE_FILL_AREA(#239);
#241=SURFACE_SIDE_STYLE('',(#240));
#242=SURFACE_STYLE_USAGE(.BOTH.,#241);
#243=PRESENTATION_STYLE_ASSIGNMENT((#242));
#244=STYLED_ITEM('',(#243),#236);
#245=ADVANCED_FACE('',(#827),#829,.T.);
#246=COLOUR_RGB('',0.156862745098039,0.156862745098039,0.156862745098039);
#247=FILL_AREA_STYLE_COLOUR('',#246);
#248=FILL_AREA_STYLE($,(#247));
#249=SURFACE_STYLE_FILL_AREA(#248);
#250=SURFACE_SIDE_STYLE('',(#249));
#251=SURFACE_STYLE_USAGE(.BOTH.,#250);
#252=PRESENTATION_STYLE_ASSIGNMENT((#251));
#253=STYLED_ITEM('',(#252),#245);
#254=ADVANCED_FACE('',(#834),#836,.T.);
#255=COLOUR_RGB('',0.156862745098039,0.156862745098039,0.156862745098039);
#256=FILL_AREA_STYLE_COLOUR('',#255);
#257=FILL_AREA_STYLE($,(#256));
#258=SURFACE_STYLE_FILL_AREA(#257);
#259=SURFACE_SIDE_STYLE('',(#258));
#260=SURFACE_STYLE_USAGE(.BOTH.,#259);
#261=PRESENTATION_STYLE_ASSIGNMENT((#260));
#262=STYLED_ITEM('',(#261),#254);
#263=ADVANCED_FACE('',(#841),#843,.T.);
#264=COLOUR_RGB('',0.156862745098039,0.156862745098039,0.156862745098039);
#265=FILL_AREA_STYLE_COLOUR('',#264);
#266=FILL_AREA_STYLE($,(#265));
#267=SURFACE_STYLE_FILL_AREA(#266);
#268=SURFACE_SIDE_STYLE('',(#267));
#269=SURFACE_STYLE_USAGE(.BOTH.,#268);
#270=PRESENTATION_STYLE_ASSIGNMENT((#269));
#271=STYLED_ITEM('',(#270),#263);
#272=ADVANCED_FACE('',(#848),#850,.T.);
#273=COLOUR_RGB('',0.156862745098039,0.156862745098039,0.156862745098039);
#274=FILL_AREA_STYLE_COLOUR('',#273);
#275=FILL_AREA_STYLE($,(#274));
#276=SURFACE_STYLE_FILL_AREA(#275);
#277=SURFACE_SIDE_STYLE('',(#276));
#278=SURFACE_STYLE_USAGE(.BOTH.,#277);
#279=PRESENTATION_STYLE_ASSIGNMENT((#278));
#280=STYLED_ITEM('',(#279),#272);
#281=ADVANCED_FACE('',(#855),#857,.T.);
#282=COLOUR_RGB('',0.156862745098039,0.156862745098039,0.156862745098039);
#283=FILL_AREA_STYLE_COLOUR('',#282);
#284=FILL_AREA_STYLE($,(#283));
#285=SURFACE_STYLE_FILL_AREA(#284);
#286=SURFACE_SIDE_STYLE('',(#285));
#287=SURFACE_STYLE_USAGE(.BOTH.,#286);
#288=PRESENTATION_STYLE_ASSIGNMENT((#287));
#289=STYLED_ITEM('',(#288),#281);
#290=ADVANCED_FACE('',(#862),#864,.T.);
#291=COLOUR_RGB('',0.156862745098039,0.156862745098039,0.156862745098039);
#292=FILL_AREA_STYLE_COLOUR('',#291);
#293=FILL_AREA_STYLE($,(#292));
#294=SURFACE_STYLE_FILL_AREA(#293);
#295=SURFACE_SIDE_STYLE('',(#294));
#296=SURFACE_STYLE_USAGE(.BOTH.,#295);
#297=PRESENTATION_STYLE_ASSIGNMENT((#296));
#298=STYLED_ITEM('',(#297),#290);
#299=ADVANCED_FACE('',(#869),#871,.T.);
#300=COLOUR_RGB('',0.156862745098039,0.156862745098039,0.156862745098039);
#301=FILL_AREA_STYLE_COLOUR('',#300);
#302=FILL_AREA_STYLE($,(#301));
#303=SURFACE_STYLE_FILL_AREA(#302);
#304=SURFACE_SIDE_STYLE('',(#303));
#305=SURFACE_STYLE_USAGE(.BOTH.,#304);
#306=PRESENTATION_STYLE_ASSIGNMENT((#305));
#307=STYLED_ITEM('',(#306),#299);
#308=ADVANCED_FACE('',(#876),#878,.T.);
#309=COLOUR_RGB('',0.156862745098039,0.156862745098039,0.156862745098039);
#310=FILL_AREA_STYLE_COLOUR('',#309);
#311=FILL_AREA_STYLE($,(#310));
#312=SURFACE_STYLE_FILL_AREA(#311);
#313=SURFACE_SIDE_STYLE('',(#312));
#314=SURFACE_STYLE_USAGE(.BOTH.,#313);
#315=PRESENTATION_STYLE_ASSIGNMENT((#314));
#316=STYLED_ITEM('',(#315),#308);
#317=ADVANCED_FACE('',(#883),#885,.T.);
#318=COLOUR_RGB('',0.156862745098039,0.156862745098039,0.156862745098039);
#319=FILL_AREA_STYLE_COLOUR('',#318);
#320=FILL_AREA_STYLE($,(#319));
#321=SURFACE_STYLE_FILL_AREA(#320);
#322=SURFACE_SIDE_STYLE('',(#321));
#323=SURFACE_STYLE_USAGE(.BOTH.,#322);
#324=PRESENTATION_STYLE_ASSIGNMENT((#323));
#325=STYLED_ITEM('',(#324),#317);
#326=ADVANCED_FACE('',(#890),#892,.T.);
#327=COLOUR_RGB('',0.156862745098039,0.156862745098039,0.156862745098039);
#328=FILL_AREA_STYLE_COLOUR('',#327);
#329=FILL_AREA_STYLE($,(#328));
#330=SURFACE_STYLE_FILL_AREA(#329);
#331=SURFACE_SIDE_STYLE('',(#330));
#332=SURFACE_STYLE_USAGE(.BOTH.,#331);
#333=PRESENTATION_STYLE_ASSIGNMENT((#332));
#334=STYLED_ITEM('',(#333),#326);
#335=ADVANCED_FACE('',(#897),#899,.T.);
#336=COLOUR_RGB('',0.156862745098039,0.156862745098039,0.156862745098039);
#337=FILL_AREA_STYLE_COLOUR('',#336);
#338=FILL_AREA_STYLE($,(#337));
#339=SURFACE_STYLE_FILL_AREA(#338);
#340=SURFACE_SIDE_STYLE('',(#339));
#341=SURFACE_STYLE_USAGE(.BOTH.,#340);
#342=PRESENTATION_STYLE_ASSIGNMENT((#341));
#343=STYLED_ITEM('',(#342),#335);
#344=ADVANCED_FACE('',(#904),#906,.T.);
#345=COLOUR_RGB('',0.156862745098039,0.156862745098039,0.156862745098039);
#346=FILL_AREA_STYLE_COLOUR('',#345);
#347=FILL_AREA_STYLE($,(#346));
#348=SURFACE_STYLE_FILL_AREA(#347);
#349=SURFACE_SIDE_STYLE('',(#348));
#350=SURFACE_STYLE_USAGE(.BOTH.,#349);
#351=PRESENTATION_STYLE_ASSIGNMENT((#350));
#352=STYLED_ITEM('',(#351),#344);
#353=ADVANCED_FACE('',(#911),#913,.T.);
#354=COLOUR_RGB('',0.156862745098039,0.156862745098039,0.156862745098039);
#355=FILL_AREA_STYLE_COLOUR('',#354);
#356=FILL_AREA_STYLE($,(#355));
#357=SURFACE_STYLE_FILL_AREA(#356);
#358=SURFACE_SIDE_STYLE('',(#357));
#359=SURFACE_STYLE_USAGE(.BOTH.,#358);
#360=PRESENTATION_STYLE_ASSIGNMENT((#359));
#361=STYLED_ITEM('',(#360),#353);
#362=ADVANCED_FACE('',(#918),#920,.T.);
#363=COLOUR_RGB('',0.156862745098039,0.156862745098039,0.156862745098039);
#364=FILL_AREA_STYLE_COLOUR('',#363);
#365=FILL_AREA_STYLE($,(#364));
#366=SURFACE_STYLE_FILL_AREA(#365);
#367=SURFACE_SIDE_STYLE('',(#366));
#368=SURFACE_STYLE_USAGE(.BOTH.,#367);
#369=PRESENTATION_STYLE_ASSIGNMENT((#368));
#370=STYLED_ITEM('',(#369),#362);
#371=ADVANCED_FACE('',(#925),#927,.T.);
#372=COLOUR_RGB('',0.156862745098039,0.156862745098039,0.156862745098039);
#373=FILL_AREA_STYLE_COLOUR('',#372);
#374=FILL_AREA_STYLE($,(#373));
#375=SURFACE_STYLE_FILL_AREA(#374);
#376=SURFACE_SIDE_STYLE('',(#375));
#377=SURFACE_STYLE_USAGE(.BOTH.,#376);
#378=PRESENTATION_STYLE_ASSIGNMENT((#377));
#379=STYLED_ITEM('',(#378),#371);
#380=ADVANCED_FACE('',(#932),#934,.T.);
#381=COLOUR_RGB('',0.156862745098039,0.156862745098039,0.156862745098039);
#382=FILL_AREA_STYLE_COLOUR('',#381);
#383=FILL_AREA_STYLE($,(#382));
#384=SURFACE_STYLE_FILL_AREA(#383);
#385=SURFACE_SIDE_STYLE('',(#384));
#386=SURFACE_STYLE_USAGE(.BOTH.,#385);
#387=PRESENTATION_STYLE_ASSIGNMENT((#386));
#388=STYLED_ITEM('',(#387),#380);
#389=ADVANCED_FACE('',(#939),#941,.T.);
#390=COLOUR_RGB('',0.156862745098039,0.156862745098039,0.156862745098039);
#391=FILL_AREA_STYLE_COLOUR('',#390);
#392=FILL_AREA_STYLE($,(#391));
#393=SURFACE_STYLE_FILL_AREA(#392);
#394=SURFACE_SIDE_STYLE('',(#393));
#395=SURFACE_STYLE_USAGE(.BOTH.,#394);
#396=PRESENTATION_STYLE_ASSIGNMENT((#395));
#397=STYLED_ITEM('',(#396),#389);
#398=ADVANCED_FACE('',(#946),#948,.T.);
#399=COLOUR_RGB('',0.156862745098039,0.156862745098039,0.156862745098039);
#400=FILL_AREA_STYLE_COLOUR('',#399);
#401=FILL_AREA_STYLE($,(#400));
#402=SURFACE_STYLE_FILL_AREA(#401);
#403=SURFACE_SIDE_STYLE('',(#402));
#404=SURFACE_STYLE_USAGE(.BOTH.,#403);
#405=PRESENTATION_STYLE_ASSIGNMENT((#404));
#406=STYLED_ITEM('',(#405),#398);
#407=ADVANCED_FACE('',(#953,#955),#957,.F.);
#408=COLOUR_RGB('',0.156862745098039,0.156862745098039,0.156862745098039);
#409=FILL_AREA_STYLE_COLOUR('',#408);
#410=FILL_AREA_STYLE($,(#409));
#411=SURFACE_STYLE_FILL_AREA(#410);
#412=SURFACE_SIDE_STYLE('',(#411));
#413=SURFACE_STYLE_USAGE(.BOTH.,#412);
#414=PRESENTATION_STYLE_ASSIGNMENT((#413));
#415=STYLED_ITEM('',(#414),#407);
#416=ADVANCED_FACE('',(#962,#964),#966,.F.);
#417=COLOUR_RGB('',0.156862745098039,0.156862745098039,0.156862745098039);
#418=FILL_AREA_STYLE_COLOUR('',#417);
#419=FILL_AREA_STYLE($,(#418));
#420=SURFACE_STYLE_FILL_AREA(#419);
#421=SURFACE_SIDE_STYLE('',(#420));
#422=SURFACE_STYLE_USAGE(.BOTH.,#421);
#423=PRESENTATION_STYLE_ASSIGNMENT((#422));
#424=STYLED_ITEM('',(#423),#416);
#425=ADVANCED_FACE('',(#971,#973),#975,.T.);
#426=COLOUR_RGB('',0.156862745098039,0.156862745098039,0.156862745098039);
#427=FILL_AREA_STYLE_COLOUR('',#426);
#428=FILL_AREA_STYLE($,(#427));
#429=SURFACE_STYLE_FILL_AREA(#428);
#430=SURFACE_SIDE_STYLE('',(#429));
#431=SURFACE_STYLE_USAGE(.BOTH.,#430);
#432=PRESENTATION_STYLE_ASSIGNMENT((#431));
#433=STYLED_ITEM('',(#432),#425);
#434=ADVANCED_FACE('',(#980),#982,.T.);
#435=COLOUR_RGB('',0.968627450980392,0.87843137254902,0.6);
#436=FILL_AREA_STYLE_COLOUR('',#435);
#437=FILL_AREA_STYLE($,(#436));
#438=SURFACE_STYLE_FILL_AREA(#437);
#439=SURFACE_SIDE_STYLE('',(#438));
#440=SURFACE_STYLE_USAGE(.BOTH.,#439);
#441=PRESENTATION_STYLE_ASSIGNMENT((#440));
#442=STYLED_ITEM('',(#441),#434);
#443=ADVANCED_FACE('',(#987,#989),#991,.T.);
#444=COLOUR_RGB('',0.968627450980392,0.87843137254902,0.6);
#445=FILL_AREA_STYLE_COLOUR('',#444);
#446=FILL_AREA_STYLE($,(#445));
#447=SURFACE_STYLE_FILL_AREA(#446);
#448=SURFACE_SIDE_STYLE('',(#447));
#449=SURFACE_STYLE_USAGE(.BOTH.,#448);
#450=PRESENTATION_STYLE_ASSIGNMENT((#449));
#451=STYLED_ITEM('',(#450),#443);
#452=ADVANCED_FACE('',(#996,#998),#1000,.T.);
#453=COLOUR_RGB('',0.968627450980392,0.87843137254902,0.6);
#454=FILL_AREA_STYLE_COLOUR('',#453);
#455=FILL_AREA_STYLE($,(#454));
#456=SURFACE_STYLE_FILL_AREA(#455);
#457=SURFACE_SIDE_STYLE('',(#456));
#458=SURFACE_STYLE_USAGE(.BOTH.,#457);
#459=PRESENTATION_STYLE_ASSIGNMENT((#458));
#460=STYLED_ITEM('',(#459),#452);
#461=ADVANCED_FACE('',(#1005,#1007),#1009,.T.);
#462=COLOUR_RGB('',0.968627450980392,0.87843137254902,0.6);
#463=FILL_AREA_STYLE_COLOUR('',#462);
#464=FILL_AREA_STYLE($,(#463));
#465=SURFACE_STYLE_FILL_AREA(#464);
#466=SURFACE_SIDE_STYLE('',(#465));
#467=SURFACE_STYLE_USAGE(.BOTH.,#466);
#468=PRESENTATION_STYLE_ASSIGNMENT((#467));
#469=STYLED_ITEM('',(#468),#461);
#470=ADVANCED_FACE('',(#1014,#1016),#1018,.T.);
#471=COLOUR_RGB('',0.968627450980392,0.87843137254902,0.6);
#472=FILL_AREA_STYLE_COLOUR('',#471);
#473=FILL_AREA_STYLE($,(#472));
#474=SURFACE_STYLE_FILL_AREA(#473);
#475=SURFACE_SIDE_STYLE('',(#474));
#476=SURFACE_STYLE_USAGE(.BOTH.,#475);
#477=PRESENTATION_STYLE_ASSIGNMENT((#476));
#478=STYLED_ITEM('',(#477),#470);
#479=ADVANCED_FACE('',(#1023,#1025),#1027,.T.);
#480=COLOUR_RGB('',0.968627450980392,0.87843137254902,0.6);
#481=FILL_AREA_STYLE_COLOUR('',#480);
#482=FILL_AREA_STYLE($,(#481));
#483=SURFACE_STYLE_FILL_AREA(#482);
#484=SURFACE_SIDE_STYLE('',(#483));
#485=SURFACE_STYLE_USAGE(.BOTH.,#484);
#486=PRESENTATION_STYLE_ASSIGNMENT((#485));
#487=STYLED_ITEM('',(#486),#479);
#488=ADVANCED_FACE('',(#1032,#1034),#1036,.T.);
#489=COLOUR_RGB('',0.968627450980392,0.87843137254902,0.6);
#490=FILL_AREA_STYLE_COLOUR('',#489);
#491=FILL_AREA_STYLE($,(#490));
#492=SURFACE_STYLE_FILL_AREA(#491);
#493=SURFACE_SIDE_STYLE('',(#492));
#494=SURFACE_STYLE_USAGE(.BOTH.,#493);
#495=PRESENTATION_STYLE_ASSIGNMENT((#494));
#496=STYLED_ITEM('',(#495),#488);
#497=ADVANCED_FACE('',(#1041,#1043),#1045,.T.);
#498=COLOUR_RGB('',0.968627450980392,0.87843137254902,0.6);
#499=FILL_AREA_STYLE_COLOUR('',#498);
#500=FILL_AREA_STYLE($,(#499));
#501=SURFACE_STYLE_FILL_AREA(#500);
#502=SURFACE_SIDE_STYLE('',(#501));
#503=SURFACE_STYLE_USAGE(.BOTH.,#502);
#504=PRESENTATION_STYLE_ASSIGNMENT((#503));
#505=STYLED_ITEM('',(#504),#497);
#506=ADVANCED_FACE('',(#1050),#1052,.T.);
#507=COLOUR_RGB('',0.968627450980392,0.87843137254902,0.6);
#508=FILL_AREA_STYLE_COLOUR('',#507);
#509=FILL_AREA_STYLE($,(#508));
#510=SURFACE_STYLE_FILL_AREA(#509);
#511=SURFACE_SIDE_STYLE('',(#510));
#512=SURFACE_STYLE_USAGE(.BOTH.,#511);
#513=PRESENTATION_STYLE_ASSIGNMENT((#512));
#514=STYLED_ITEM('',(#513),#506);
#515=ADVANCED_FACE('',(#1057),#1059,.T.);
#516=COLOUR_RGB('',0.968627450980392,0.87843137254902,0.6);
#517=FILL_AREA_STYLE_COLOUR('',#516);
#518=FILL_AREA_STYLE($,(#517));
#519=SURFACE_STYLE_FILL_AREA(#518);
#520=SURFACE_SIDE_STYLE('',(#519));
#521=SURFACE_STYLE_USAGE(.BOTH.,#520);
#522=PRESENTATION_STYLE_ASSIGNMENT((#521));
#523=STYLED_ITEM('',(#522),#515);
#524=ADVANCED_FACE('',(#1064,#1066),#1068,.T.);
#525=COLOUR_RGB('',0.968627450980392,0.87843137254902,0.6);
#526=FILL_AREA_STYLE_COLOUR('',#525);
#527=FILL_AREA_STYLE($,(#526));
#528=SURFACE_STYLE_FILL_AREA(#527);
#529=SURFACE_SIDE_STYLE('',(#528));
#530=SURFACE_STYLE_USAGE(.BOTH.,#529);
#531=PRESENTATION_STYLE_ASSIGNMENT((#530));
#532=STYLED_ITEM('',(#531),#524);
#533=ADVANCED_FACE('',(#1073,#1075),#1077,.T.);
#534=COLOUR_RGB('',0.968627450980392,0.87843137254902,0.6);
#535=FILL_AREA_STYLE_COLOUR('',#534);
#536=FILL_AREA_STYLE($,(#535));
#537=SURFACE_STYLE_FILL_AREA(#536);
#538=SURFACE_SIDE_STYLE('',(#537));
#539=SURFACE_STYLE_USAGE(.BOTH.,#538);
#540=PRESENTATION_STYLE_ASSIGNMENT((#539));
#541=STYLED_ITEM('',(#540),#533);
#542=ADVANCED_FACE('',(#1082,#1084),#1086,.T.);
#543=COLOUR_RGB('',0.968627450980392,0.87843137254902,0.6);
#544=FILL_AREA_STYLE_COLOUR('',#543);
#545=FILL_AREA_STYLE($,(#544));
#546=SURFACE_STYLE_FILL_AREA(#545);
#547=SURFACE_SIDE_STYLE('',(#546));
#548=SURFACE_STYLE_USAGE(.BOTH.,#547);
#549=PRESENTATION_STYLE_ASSIGNMENT((#548));
#550=STYLED_ITEM('',(#549),#542);
#551=ADVANCED_FACE('',(#1091,#1093),#1095,.T.);
#552=COLOUR_RGB('',0.968627450980392,0.87843137254902,0.6);
#553=FILL_AREA_STYLE_COLOUR('',#552);
#554=FILL_AREA_STYLE($,(#553));
#555=SURFACE_STYLE_FILL_AREA(#554);
#556=SURFACE_SIDE_STYLE('',(#555));
#557=SURFACE_STYLE_USAGE(.BOTH.,#556);
#558=PRESENTATION_STYLE_ASSIGNMENT((#557));
#559=STYLED_ITEM('',(#558),#551);
#560=ADVANCED_FACE('',(#1100,#1102),#1104,.T.);
#561=COLOUR_RGB('',0.968627450980392,0.87843137254902,0.6);
#562=FILL_AREA_STYLE_COLOUR('',#561);
#563=FILL_AREA_STYLE($,(#562));
#564=SURFACE_STYLE_FILL_AREA(#563);
#565=SURFACE_SIDE_STYLE('',(#564));
#566=SURFACE_STYLE_USAGE(.BOTH.,#565);
#567=PRESENTATION_STYLE_ASSIGNMENT((#566));
#568=STYLED_ITEM('',(#567),#560);
#569=ADVANCED_FACE('',(#1109,#1111),#1113,.T.);
#570=COLOUR_RGB('',0.968627450980392,0.87843137254902,0.6);
#571=FILL_AREA_STYLE_COLOUR('',#570);
#572=FILL_AREA_STYLE($,(#571));
#573=SURFACE_STYLE_FILL_AREA(#572);
#574=SURFACE_SIDE_STYLE('',(#573));
#575=SURFACE_STYLE_USAGE(.BOTH.,#574);
#576=PRESENTATION_STYLE_ASSIGNMENT((#575));
#577=STYLED_ITEM('',(#576),#569);
#578=ADVANCED_FACE('',(#1118,#1120),#1122,.T.);
#579=COLOUR_RGB('',0.968627450980392,0.87843137254902,0.6);
#580=FILL_AREA_STYLE_COLOUR('',#579);
#581=FILL_AREA_STYLE($,(#580));
#582=SURFACE_STYLE_FILL_AREA(#581);
#583=SURFACE_SIDE_STYLE('',(#582));
#584=SURFACE_STYLE_USAGE(.BOTH.,#583);
#585=PRESENTATION_STYLE_ASSIGNMENT((#584));
#586=STYLED_ITEM('',(#585),#578);
#587=ADVANCED_FACE('',(#1127),#1129,.T.);
#588=COLOUR_RGB('',0.968627450980392,0.87843137254902,0.6);
#589=FILL_AREA_STYLE_COLOUR('',#588);
#590=FILL_AREA_STYLE($,(#589));
#591=SURFACE_STYLE_FILL_AREA(#590);
#592=SURFACE_SIDE_STYLE('',(#591));
#593=SURFACE_STYLE_USAGE(.BOTH.,#592);
#594=PRESENTATION_STYLE_ASSIGNMENT((#593));
#595=STYLED_ITEM('',(#594),#587);
#596=ADVANCED_FACE('',(#1134),#1136,.T.);
#597=COLOUR_RGB('',0.968627450980392,0.87843137254902,0.6);
#598=FILL_AREA_STYLE_COLOUR('',#597);
#599=FILL_AREA_STYLE($,(#598));
#600=SURFACE_STYLE_FILL_AREA(#599);
#601=SURFACE_SIDE_STYLE('',(#600));
#602=SURFACE_STYLE_USAGE(.BOTH.,#601);
#603=PRESENTATION_STYLE_ASSIGNMENT((#602));
#604=STYLED_ITEM('',(#603),#596);
#605=ADVANCED_FACE('',(#1141,#1143),#1145,.T.);
#606=COLOUR_RGB('',0.968627450980392,0.87843137254902,0.6);
#607=FILL_AREA_STYLE_COLOUR('',#606);
#608=FILL_AREA_STYLE($,(#607));
#609=SURFACE_STYLE_FILL_AREA(#608);
#610=SURFACE_SIDE_STYLE('',(#609));
#611=SURFACE_STYLE_USAGE(.BOTH.,#610);
#612=PRESENTATION_STYLE_ASSIGNMENT((#611));
#613=STYLED_ITEM('',(#612),#605);
#614=ADVANCED_FACE('',(#1150,#1152),#1154,.T.);
#615=COLOUR_RGB('',0.968627450980392,0.87843137254902,0.6);
#616=FILL_AREA_STYLE_COLOUR('',#615);
#617=FILL_AREA_STYLE($,(#616));
#618=SURFACE_STYLE_FILL_AREA(#617);
#619=SURFACE_SIDE_STYLE('',(#618));
#620=SURFACE_STYLE_USAGE(.BOTH.,#619);
#621=PRESENTATION_STYLE_ASSIGNMENT((#620));
#622=STYLED_ITEM('',(#621),#614);
#623=ADVANCED_FACE('',(#1159,#1161),#1163,.T.);
#624=COLOUR_RGB('',0.968627450980392,0.87843137254902,0.6);
#625=FILL_AREA_STYLE_COLOUR('',#624);
#626=FILL_AREA_STYLE($,(#625));
#627=SURFACE_STYLE_FILL_AREA(#626);
#628=SURFACE_SIDE_STYLE('',(#627));
#629=SURFACE_STYLE_USAGE(.BOTH.,#628);
#630=PRESENTATION_STYLE_ASSIGNMENT((#629));
#631=STYLED_ITEM('',(#630),#623);
#632=ADVANCED_FACE('',(#1168,#1170),#1172,.T.);
#633=COLOUR_RGB('',0.968627450980392,0.87843137254902,0.6);
#634=FILL_AREA_STYLE_COLOUR('',#633);
#635=FILL_AREA_STYLE($,(#634));
#636=SURFACE_STYLE_FILL_AREA(#635);
#637=SURFACE_SIDE_STYLE('',(#636));
#638=SURFACE_STYLE_USAGE(.BOTH.,#637);
#639=PRESENTATION_STYLE_ASSIGNMENT((#638));
#640=STYLED_ITEM('',(#639),#632);
#641=ADVANCED_FACE('',(#1177,#1179),#1181,.T.);
#642=COLOUR_RGB('',0.968627450980392,0.87843137254902,0.6);
#643=FILL_AREA_STYLE_COLOUR('',#642);
#644=FILL_AREA_STYLE($,(#643));
#645=SURFACE_STYLE_FILL_AREA(#644);
#646=SURFACE_SIDE_STYLE('',(#645));
#647=SURFACE_STYLE_USAGE(.BOTH.,#646);
#648=PRESENTATION_STYLE_ASSIGNMENT((#647));
#649=STYLED_ITEM('',(#648),#641);
#650=ADVANCED_FACE('',(#1186,#1188),#1190,.T.);
#651=COLOUR_RGB('',0.968627450980392,0.87843137254902,0.6);
#652=FILL_AREA_STYLE_COLOUR('',#651);
#653=FILL_AREA_STYLE($,(#652));
#654=SURFACE_STYLE_FILL_AREA(#653);
#655=SURFACE_SIDE_STYLE('',(#654));
#656=SURFACE_STYLE_USAGE(.BOTH.,#655);
#657=PRESENTATION_STYLE_ASSIGNMENT((#656));
#658=STYLED_ITEM('',(#657),#650);
#659=ADVANCED_FACE('',(#1195,#1197),#1199,.T.);
#660=COLOUR_RGB('',0.968627450980392,0.87843137254902,0.6);
#661=FILL_AREA_STYLE_COLOUR('',#660);
#662=FILL_AREA_STYLE($,(#661));
#663=SURFACE_STYLE_FILL_AREA(#662);
#664=SURFACE_SIDE_STYLE('',(#663));
#665=SURFACE_STYLE_USAGE(.BOTH.,#664);
#666=PRESENTATION_STYLE_ASSIGNMENT((#665));
#667=STYLED_ITEM('',(#666),#659);
#668=ADVANCED_FACE('',(#1204),#1206,.T.);
#669=COLOUR_RGB('',0.968627450980392,0.87843137254902,0.6);
#670=FILL_AREA_STYLE_COLOUR('',#669);
#671=FILL_AREA_STYLE($,(#670));
#672=SURFACE_STYLE_FILL_AREA(#671);
#673=SURFACE_SIDE_STYLE('',(#672));
#674=SURFACE_STYLE_USAGE(.BOTH.,#673);
#675=PRESENTATION_STYLE_ASSIGNMENT((#674));
#676=STYLED_ITEM('',(#675),#668);
#677=FACE_OUTER_BOUND('',#678,.T.);
#678=EDGE_LOOP('',(#1211));
#679=FACE_OUTER_BOUND('',#680,.T.);
#680=EDGE_LOOP('',(#1212));
#681=CYLINDRICAL_SURFACE('',#682,0.66);
#682=AXIS2_PLACEMENT_3D('',#683,#684,#685);
#683=CARTESIAN_POINT('',(2.54,0.,1.5));
#684=DIRECTION('',(0.,0.,1.));
#685=DIRECTION('',(1.,0.,0.));
#686=FACE_OUTER_BOUND('',#687,.T.);
#687=EDGE_LOOP('',(#1213));
#688=FACE_OUTER_BOUND('',#689,.T.);
#689=EDGE_LOOP('',(#1214));
#690=CYLINDRICAL_SURFACE('',#691,0.66);
#691=AXIS2_PLACEMENT_3D('',#692,#693,#694);
#692=CARTESIAN_POINT('',(5.08,0.,1.5));
#693=DIRECTION('',(0.,0.,1.));
#694=DIRECTION('',(1.,0.,0.));
#695=FACE_BOUND('',#696,.T.);
#696=EDGE_LOOP('',(#1215,#1216,#1217,#1218,#1219,#1220,#1221,#1222,#1223,#1224,#1225,
#1226,#1227,#1228,#1229,#1230,#1231,#1232,#1233,#1234,#1235,#1236,#1237,#1238,#1239,
#1240,#1241,#1242));
#697=FACE_BOUND('',#698,.T.);
#698=EDGE_LOOP('',(#1243));
#699=FACE_BOUND('',#700,.T.);
#700=EDGE_LOOP('',(#1244));
#701=FACE_BOUND('',#702,.T.);
#702=EDGE_LOOP('',(#1245));
#703=PLANE('',#704);
#704=AXIS2_PLACEMENT_3D('',#705,#706,#707);
#705=CARTESIAN_POINT('',(0.,0.,4.5));
#706=DIRECTION('',(0.,0.,1.));
#707=DIRECTION('',(1.,0.,0.));
#708=FACE_BOUND('',#709,.T.);
#709=EDGE_LOOP('',(#1246));
#710=FACE_BOUND('',#711,.T.);
#711=EDGE_LOOP('',(#1247));
#712=PLANE('',#713);
#713=AXIS2_PLACEMENT_3D('',#714,#715,#716);
#714=CARTESIAN_POINT('',(5.08,0.,4.));
#715=DIRECTION('',(0.,0.,1.));
#716=DIRECTION('',(1.,0.,0.));
#717=FACE_OUTER_BOUND('',#718,.T.);
#718=EDGE_LOOP('',(#1248));
#719=FACE_OUTER_BOUND('',#720,.T.);
#720=EDGE_LOOP('',(#1249));
#721=CYLINDRICAL_SURFACE('',#722,0.9);
#722=AXIS2_PLACEMENT_3D('',#723,#724,#725);
#723=CARTESIAN_POINT('',(5.08,0.,4.));
#724=DIRECTION('',(0.,0.,1.));
#725=DIRECTION('',(1.,0.,0.));
#726=FACE_BOUND('',#727,.T.);
#727=EDGE_LOOP('',(#1250));
#728=FACE_BOUND('',#729,.T.);
#729=EDGE_LOOP('',(#1251));
#730=PLANE('',#731);
#731=AXIS2_PLACEMENT_3D('',#732,#733,#734);
#732=CARTESIAN_POINT('',(2.54,0.,4.));
#733=DIRECTION('',(0.,0.,1.));
#734=DIRECTION('',(1.,0.,0.));
#735=FACE_OUTER_BOUND('',#736,.T.);
#736=EDGE_LOOP('',(#1252));
#737=FACE_OUTER_BOUND('',#738,.T.);
#738=EDGE_LOOP('',(#1253));
#739=CYLINDRICAL_SURFACE('',#740,0.9);
#740=AXIS2_PLACEMENT_3D('',#741,#742,#743);
#741=CARTESIAN_POINT('',(2.54,0.,4.));
#742=DIRECTION('',(0.,0.,1.));
#743=DIRECTION('',(1.,0.,0.));
#744=FACE_BOUND('',#745,.T.);
#745=EDGE_LOOP('',(#1254,#1255,#1256,#1257,#1258,#1259,#1260,#1261,#1262,#1263,#1264,
#1265,#1266,#1267,#1268,#1269,#1270,#1271,#1272,#1273,#1274,#1275,#1276,#1277,#1278,
#1279,#1280,#1281));
#746=FACE_BOUND('',#747,.T.);
#747=EDGE_LOOP('',(#1282));
#748=FACE_BOUND('',#749,.T.);
#749=EDGE_LOOP('',(#1283));
#750=FACE_BOUND('',#751,.T.);
#751=EDGE_LOOP('',(#1284));
#752=PLANE('',#753);
#753=AXIS2_PLACEMENT_3D('',#754,#755,#756);
#754=CARTESIAN_POINT('',(0.,0.,1.5));
#755=DIRECTION('',(0.,0.,1.));
#756=DIRECTION('',(1.,0.,0.));
#757=FACE_BOUND('',#758,.T.);
#758=EDGE_LOOP('',(#1285,#1286,#1287,#1288));
#759=PLANE('',#760);
#760=AXIS2_PLACEMENT_3D('',#761,#762,#763);
#761=CARTESIAN_POINT('',(-1.27,-0.75,1.5));
#762=DIRECTION('',(0.,-1.,0.));
#763=DIRECTION('',(1.,0.,0.));
#764=FACE_BOUND('',#765,.T.);
#765=EDGE_LOOP('',(#1289,#1290,#1291,#1292));
#766=PLANE('',#767);
#767=AXIS2_PLACEMENT_3D('',#768,#769,#770);
#768=CARTESIAN_POINT('',(-1.12,-0.75,1.5));
#769=DIRECTION('',(-0.866025403784438,-0.5,0.));
#770=DIRECTION('',(0.5,-0.866025403784438,0.));
#771=FACE_BOUND('',#772,.T.);
#772=EDGE_LOOP('',(#1293,#1294,#1295,#1296));
#773=PLANE('',#774);
#774=AXIS2_PLACEMENT_3D('',#775,#776,#777);
#775=CARTESIAN_POINT('',(-0.819777860021394,-1.27,1.5));
#776=DIRECTION('',(0.,-1.,0.));
#777=DIRECTION('',(1.,0.,0.));
#778=FACE_BOUND('',#779,.T.);
#779=EDGE_LOOP('',(#1297,#1298,#1299,#1300));
#780=PLANE('',#781);
#781=AXIS2_PLACEMENT_3D('',#782,#783,#784);
#782=CARTESIAN_POINT('',(0.819777860021395,-1.27,1.5));
#783=DIRECTION('',(0.866025403784439,-0.5,0.));
#784=DIRECTION('',(0.5,0.866025403784439,0.));
#785=FACE_BOUND('',#786,.T.);
#786=EDGE_LOOP('',(#1301,#1302,#1303,#1304));
#787=PLANE('',#788);
#788=AXIS2_PLACEMENT_3D('',#789,#790,#791);
#789=CARTESIAN_POINT('',(1.12,-0.75,1.5));
#790=DIRECTION('',(0.,-1.,0.));
#791=DIRECTION('',(1.,0.,0.));
#792=FACE_BOUND('',#793,.T.);
#793=EDGE_LOOP('',(#1305,#1306,#1307,#1308));
#794=PLANE('',#795);
#795=AXIS2_PLACEMENT_3D('',#796,#797,#798);
#796=CARTESIAN_POINT('',(1.42,-0.75,1.5));
#797=DIRECTION('',(-0.866025403784438,-0.5,0.));
#798=DIRECTION('',(0.5,-0.866025403784438,0.));
#799=FACE_BOUND('',#800,.T.);
#800=EDGE_LOOP('',(#1309,#1310,#1311,#1312));
#801=PLANE('',#802);
#802=AXIS2_PLACEMENT_3D('',#803,#804,#805);
#803=CARTESIAN_POINT('',(1.72022213997861,-1.27,1.5));
#804=DIRECTION('',(0.,-1.,0.));
#805=DIRECTION('',(1.,0.,0.));
#806=FACE_BOUND('',#807,.T.);
#807=EDGE_LOOP('',(#1313,#1314,#1315,#1316));
#808=PLANE('',#809);
#809=AXIS2_PLACEMENT_3D('',#810,#811,#812);
#810=CARTESIAN_POINT('',(3.35977786002139,-1.27,1.5));
#811=DIRECTION('',(0.866025403784439,-0.5,0.));
#812=DIRECTION('',(0.5,0.866025403784439,0.));
#813=FACE_BOUND('',#814,.T.);
#814=EDGE_LOOP('',(#1317,#1318,#1319,#1320));
#815=PLANE('',#816);
#816=AXIS2_PLACEMENT_3D('',#817,#818,#819);
#817=CARTESIAN_POINT('',(3.81,-0.75,1.5));
#818=DIRECTION('',(0.,-1.,0.));
#819=DIRECTION('',(1.,0.,0.));
#820=FACE_BOUND('',#821,.T.);
#821=EDGE_LOOP('',(#1321,#1322,#1323,#1324));
#822=PLANE('',#823);
#823=AXIS2_PLACEMENT_3D('',#824,#825,#826);
#824=CARTESIAN_POINT('',(3.96,-0.75,1.5));
#825=DIRECTION('',(-0.866025403784438,-0.5,0.));
#826=DIRECTION('',(0.5,-0.866025403784438,0.));
#827=FACE_BOUND('',#828,.T.);
#828=EDGE_LOOP('',(#1325,#1326,#1327,#1328));
#829=PLANE('',#830);
#830=AXIS2_PLACEMENT_3D('',#831,#832,#833);
#831=CARTESIAN_POINT('',(4.26022213997861,-1.27,1.5));
#832=DIRECTION('',(0.,-1.,0.));
#833=DIRECTION('',(1.,0.,0.));
#834=FACE_BOUND('',#835,.T.);
#835=EDGE_LOOP('',(#1329,#1330,#1331,#1332));
#836=PLANE('',#837);
#837=AXIS2_PLACEMENT_3D('',#838,#839,#840);
#838=CARTESIAN_POINT('',(5.89977786002139,-1.27,1.5));
#839=DIRECTION('',(0.866025403784439,-0.5,0.));
#840=DIRECTION('',(0.5,0.866025403784439,0.));
#841=FACE_BOUND('',#842,.T.);
#842=EDGE_LOOP('',(#1333,#1334,#1335,#1336));
#843=PLANE('',#844);
#844=AXIS2_PLACEMENT_3D('',#845,#846,#847);
#845=CARTESIAN_POINT('',(6.2,-0.75,1.5));
#846=DIRECTION('',(0.,-1.,0.));
#847=DIRECTION('',(1.,0.,0.));
#848=FACE_BOUND('',#849,.T.);
#849=EDGE_LOOP('',(#1337,#1338,#1339,#1340));
#850=PLANE('',#851);
#851=AXIS2_PLACEMENT_3D('',#852,#853,#854);
#852=CARTESIAN_POINT('',(6.35,-0.75,1.5));
#853=DIRECTION('',(1.,0.,0.));
#854=DIRECTION('',(0.,1.,0.));
#855=FACE_BOUND('',#856,.T.);
#856=EDGE_LOOP('',(#1341,#1342,#1343,#1344));
#857=PLANE('',#858);
#858=AXIS2_PLACEMENT_3D('',#859,#860,#861);
#859=CARTESIAN_POINT('',(6.35,0.75,1.5));
#860=DIRECTION('',(0.,1.,-0.));
#861=DIRECTION('',(-1.,0.,0.));
#862=FACE_BOUND('',#863,.T.);
#863=EDGE_LOOP('',(#1345,#1346,#1347,#1348));
#864=PLANE('',#865);
#865=AXIS2_PLACEMENT_3D('',#866,#867,#868);
#866=CARTESIAN_POINT('',(6.2,0.75,1.5));
#867=DIRECTION('',(0.866025403784438,0.5,-0.));
#868=DIRECTION('',(-0.5,0.866025403784438,0.));
#869=FACE_BOUND('',#870,.T.);
#870=EDGE_LOOP('',(#1349,#1350,#1351,#1352));
#871=PLANE('',#872);
#872=AXIS2_PLACEMENT_3D('',#873,#874,#875);
#873=CARTESIAN_POINT('',(5.89977786002139,1.27,1.5));
#874=DIRECTION('',(0.,1.,-0.));
#875=DIRECTION('',(-1.,0.,0.));
#876=FACE_BOUND('',#877,.T.);
#877=EDGE_LOOP('',(#1353,#1354,#1355,#1356));
#878=PLANE('',#879);
#879=AXIS2_PLACEMENT_3D('',#880,#881,#882);
#880=CARTESIAN_POINT('',(4.26022213997861,1.27,1.5));
#881=DIRECTION('',(-0.866025403784439,0.5,0.));
#882=DIRECTION('',(-0.5,-0.866025403784439,0.));
#883=FACE_BOUND('',#884,.T.);
#884=EDGE_LOOP('',(#1357,#1358,#1359,#1360));
#885=PLANE('',#886);
#886=AXIS2_PLACEMENT_3D('',#887,#888,#889);
#887=CARTESIAN_POINT('',(3.96,0.75,1.5));
#888=DIRECTION('',(0.,1.,-0.));
#889=DIRECTION('',(-1.,0.,0.));
#890=FACE_BOUND('',#891,.T.);
#891=EDGE_LOOP('',(#1361,#1362,#1363,#1364));
#892=PLANE('',#893);
#893=AXIS2_PLACEMENT_3D('',#894,#895,#896);
#894=CARTESIAN_POINT('',(3.66,0.75,1.5));
#895=DIRECTION('',(0.866025403784438,0.5,-0.));
#896=DIRECTION('',(-0.5,0.866025403784438,0.));
#897=FACE_BOUND('',#898,.T.);
#898=EDGE_LOOP('',(#1365,#1366,#1367,#1368));
#899=PLANE('',#900);
#900=AXIS2_PLACEMENT_3D('',#901,#902,#903);
#901=CARTESIAN_POINT('',(3.35977786002139,1.27,1.5));
#902=DIRECTION('',(0.,1.,-0.));
#903=DIRECTION('',(-1.,0.,0.));
#904=FACE_BOUND('',#905,.T.);
#905=EDGE_LOOP('',(#1369,#1370,#1371,#1372));
#906=PLANE('',#907);
#907=AXIS2_PLACEMENT_3D('',#908,#909,#910);
#908=CARTESIAN_POINT('',(1.72022213997861,1.27,1.5));
#909=DIRECTION('',(-0.866025403784439,0.5,0.));
#910=DIRECTION('',(-0.5,-0.866025403784439,0.));
#911=FACE_BOUND('',#912,.T.);
#912=EDGE_LOOP('',(#1373,#1374,#1375,#1376));
#913=PLANE('',#914);
#914=AXIS2_PLACEMENT_3D('',#915,#916,#917);
#915=CARTESIAN_POINT('',(1.27,0.75,1.5));
#916=DIRECTION('',(0.,1.,-0.));
#917=DIRECTION('',(-1.,0.,0.));
#918=FACE_BOUND('',#919,.T.);
#919=EDGE_LOOP('',(#1377,#1378,#1379,#1380));
#920=PLANE('',#921);
#921=AXIS2_PLACEMENT_3D('',#922,#923,#924);
#922=CARTESIAN_POINT('',(1.12,0.75,1.5));
#923=DIRECTION('',(0.866025403784438,0.5,-0.));
#924=DIRECTION('',(-0.5,0.866025403784438,0.));
#925=FACE_BOUND('',#926,.T.);
#926=EDGE_LOOP('',(#1381,#1382,#1383,#1384));
#927=PLANE('',#928);
#928=AXIS2_PLACEMENT_3D('',#929,#930,#931);
#929=CARTESIAN_POINT('',(0.819777860021394,1.27,1.5));
#930=DIRECTION('',(0.,1.,-0.));
#931=DIRECTION('',(-1.,0.,0.));
#932=FACE_BOUND('',#933,.T.);
#933=EDGE_LOOP('',(#1385,#1386,#1387,#1388));
#934=PLANE('',#935);
#935=AXIS2_PLACEMENT_3D('',#936,#937,#938);
#936=CARTESIAN_POINT('',(-0.819777860021395,1.27,1.5));
#937=DIRECTION('',(-0.866025403784439,0.5,0.));
#938=DIRECTION('',(-0.5,-0.866025403784439,0.));
#939=FACE_BOUND('',#940,.T.);
#940=EDGE_LOOP('',(#1389,#1390,#1391,#1392));
#941=PLANE('',#942);
#942=AXIS2_PLACEMENT_3D('',#943,#944,#945);
#943=CARTESIAN_POINT('',(-1.12,0.75,1.5));
#944=DIRECTION('',(0.,1.,-0.));
#945=DIRECTION('',(-1.,0.,0.));
#946=FACE_BOUND('',#947,.T.);
#947=EDGE_LOOP('',(#1393,#1394,#1395,#1396));
#948=PLANE('',#949);
#949=AXIS2_PLACEMENT_3D('',#950,#951,#952);
#950=CARTESIAN_POINT('',(-1.27,0.75,1.5));
#951=DIRECTION('',(-1.,0.,0.));
#952=DIRECTION('',(0.,-1.,0.));
#953=FACE_OUTER_BOUND('',#954,.T.);
#954=EDGE_LOOP('',(#1397));
#955=FACE_OUTER_BOUND('',#956,.T.);
#956=EDGE_LOOP('',(#1398));
#957=CYLINDRICAL_SURFACE('',#958,0.9);
#958=AXIS2_PLACEMENT_3D('',#959,#960,#961);
#959=CARTESIAN_POINT('',(0.,0.,4.));
#960=DIRECTION('',(0.,0.,1.));
#961=DIRECTION('',(1.,0.,0.));
#962=FACE_OUTER_BOUND('',#963,.T.);
#963=EDGE_LOOP('',(#1399));
#964=FACE_OUTER_BOUND('',#965,.T.);
#965=EDGE_LOOP('',(#1400));
#966=CYLINDRICAL_SURFACE('',#967,0.66);
#967=AXIS2_PLACEMENT_3D('',#968,#969,#970);
#968=CARTESIAN_POINT('',(0.,0.,1.5));
#969=DIRECTION('',(0.,0.,1.));
#970=DIRECTION('',(1.,0.,0.));
#971=FACE_BOUND('',#972,.T.);
#972=EDGE_LOOP('',(#1401));
#973=FACE_BOUND('',#974,.T.);
#974=EDGE_LOOP('',(#1402));
#975=PLANE('',#976);
#976=AXIS2_PLACEMENT_3D('',#977,#978,#979);
#977=CARTESIAN_POINT('',(0.,0.,4.));
#978=DIRECTION('',(0.,0.,1.));
#979=DIRECTION('',(1.,0.,0.));
#980=FACE_OUTER_BOUND('',#981,.T.);
#981=EDGE_LOOP('',(#1403));
#982=SPHERICAL_SURFACE('',#983,0.3);
#983=AXIS2_PLACEMENT_3D('',#984,#985,#986);
#984=CARTESIAN_POINT('',(-4.71489017671731E-016,-4.71489017671731E-016,7.7));
#985=DIRECTION('',(-6.12323399573677E-017,-6.12323399573677E-017,1.));
#986=DIRECTION('',(-1.,-1.22464679914736E-016,-6.12323399573677E-017));
#987=FACE_OUTER_BOUND('',#988,.T.);
#988=EDGE_LOOP('',(#1404));
#989=FACE_OUTER_BOUND('',#990,.T.);
#990=EDGE_LOOP('',(#1405));
#991=CYLINDRICAL_SURFACE('',#992,0.3);
#992=AXIS2_PLACEMENT_3D('',#993,#994,#995);
#993=CARTESIAN_POINT('',(-3.06161699786838E-016,-3.06161699786838E-016,5.));
#994=DIRECTION('',(-6.12323399573677E-017,-6.12323399573677E-017,1.));
#995=DIRECTION('',(-1.,-1.22464679914735E-016,-6.12323399573677E-017));
#996=FACE_BOUND('',#997,.T.);
#997=EDGE_LOOP('',(#1406));
#998=FACE_BOUND('',#999,.T.);
#999=EDGE_LOOP('',(#1407));
#1000=PLANE('',#1001);
#1001=AXIS2_PLACEMENT_3D('',#1002,#1003,#1004);
#1002=CARTESIAN_POINT('',(-3.06161699786838E-016,-3.06161699786838E-016,5.));
#1003=DIRECTION('',(-6.12323399573677E-017,-6.12323399573677E-017,1.));
#1004=DIRECTION('',(-1.,-1.22464679914735E-016,-6.12323399573677E-017));
#1005=FACE_OUTER_BOUND('',#1006,.T.);
#1006=EDGE_LOOP('',(#1408));
#1007=FACE_OUTER_BOUND('',#1008,.T.);
#1008=EDGE_LOOP('',(#1409));
#1009=CYLINDRICAL_SURFACE('',#1010,0.9);
#1010=AXIS2_PLACEMENT_3D('',#1011,#1012,#1013);
#1011=CARTESIAN_POINT('',(-2.44929359829471E-016,-2.44929359829471E-016,4.));
#1012=DIRECTION('',(-6.12323399573677E-017,-6.12323399573677E-017,1.));
#1013=DIRECTION('',(-1.,-1.22464679914735E-016,-6.12323399573677E-017));
#1014=FACE_BOUND('',#1015,.T.);
#1015=EDGE_LOOP('',(#1410));
#1016=FACE_BOUND('',#1017,.T.);
#1017=EDGE_LOOP('',(#1411));
#1018=PLANE('',#1019);
#1019=AXIS2_PLACEMENT_3D('',#1020,#1021,#1022);
#1020=CARTESIAN_POINT('',(-2.44929359829471E-016,-2.44929359829471E-016,4.));
#1021=DIRECTION('',(6.12323399573677E-017,6.12323399573677E-017,-1.));
#1022=DIRECTION('',(-1.,-1.22464679914735E-016,-6.12323399573677E-017));
#1023=FACE_OUTER_BOUND('',#1024,.T.);
#1024=EDGE_LOOP('',(#1412));
#1025=FACE_OUTER_BOUND('',#1026,.T.);
#1026=EDGE_LOOP('',(#1413));
#1027=CYLINDRICAL_SURFACE('',#1028,0.66);
#1028=AXIS2_PLACEMENT_3D('',#1029,#1030,#1031);
#1029=CARTESIAN_POINT('',(-2.63299061816681E-017,-2.63299061816681E-017,0.43));
#1030=DIRECTION('',(-6.12323399573677E-017,-6.12323399573677E-017,1.));
#1031=DIRECTION('',(-1.,-1.22464679914735E-016,-6.12323399573677E-017));
#1032=FACE_OUTER_BOUND('',#1033,.T.);
#1033=EDGE_LOOP('',(#1414));
#1034=FACE_OUTER_BOUND('',#1035,.T.);
#1035=EDGE_LOOP('',(#1415));
#1036=CONICAL_SURFACE('',#1037,0.445,0.785398163397448);
#1037=AXIS2_PLACEMENT_3D('',#1038,#1039,#1040);
#1038=CARTESIAN_POINT('',(-1.3164953090834E-017,-1.3164953090834E-017,0.215));
#1039=DIRECTION('',(-6.12323399573677E-017,-6.12323399573677E-017,1.));
#1040=DIRECTION('',(-1.,-1.22464679914735E-016,-6.12323399573677E-017));
#1041=FACE_OUTER_BOUND('',#1042,.T.);
#1042=EDGE_LOOP('',(#1416));
#1043=FACE_OUTER_BOUND('',#1044,.T.);
#1044=EDGE_LOOP('',(#1417));
#1045=CYLINDRICAL_SURFACE('',#1046,0.23);
#1046=AXIS2_PLACEMENT_3D('',#1047,#1048,#1049);
#1047=CARTESIAN_POINT('',(2.11863896252492E-016,2.11863896252492E-016,-3.46));
#1048=DIRECTION('',(-6.12323399573677E-017,-6.12323399573677E-017,1.));
#1049=DIRECTION('',(-1.,-1.22464679914735E-016,-6.12323399573675E-017));
#1050=FACE_OUTER_BOUND('',#1051,.T.);
#1051=EDGE_LOOP('',(#1418));
#1052=SPHERICAL_SURFACE('',#1053,0.23);
#1053=AXIS2_PLACEMENT_3D('',#1054,#1055,#1056);
#1054=CARTESIAN_POINT('',(2.11863896252492E-016,2.11863896252492E-016,-3.46));
#1055=DIRECTION('',(-6.12323399573677E-017,-6.12323399573677E-017,1.));
#1056=DIRECTION('',(-1.,-1.22464679914735E-016,-6.12323399573677E-017));
#1057=FACE_OUTER_BOUND('',#1058,.T.);
#1058=EDGE_LOOP('',(#1419));
#1059=SPHERICAL_SURFACE('',#1060,0.3);
#1060=AXIS2_PLACEMENT_3D('',#1061,#1062,#1063);
#1061=CARTESIAN_POINT('',(2.54,-4.71489017671731E-016,7.7));
#1062=DIRECTION('',(-6.12323399573677E-017,-6.12323399573677E-017,1.));
#1063=DIRECTION('',(-1.,-1.22464679914736E-016,-6.12323399573677E-017));
#1064=FACE_OUTER_BOUND('',#1065,.T.);
#1065=EDGE_LOOP('',(#1420));
#1066=FACE_OUTER_BOUND('',#1067,.T.);
#1067=EDGE_LOOP('',(#1421));
#1068=CYLINDRICAL_SURFACE('',#1069,0.3);
#1069=AXIS2_PLACEMENT_3D('',#1070,#1071,#1072);
#1070=CARTESIAN_POINT('',(2.54,-3.06161699786838E-016,5.));
#1071=DIRECTION('',(-6.12323399573677E-017,-6.12323399573677E-017,1.));
#1072=DIRECTION('',(-1.,-1.22464679914735E-016,-6.12323399573677E-017));
#1073=FACE_BOUND('',#1074,.T.);
#1074=EDGE_LOOP('',(#1422));
#1075=FACE_BOUND('',#1076,.T.);
#1076=EDGE_LOOP('',(#1423));
#1077=PLANE('',#1078);
#1078=AXIS2_PLACEMENT_3D('',#1079,#1080,#1081);
#1079=CARTESIAN_POINT('',(2.54,-3.06161699786838E-016,5.));
#1080=DIRECTION('',(-6.12323399573677E-017,-6.12323399573677E-017,1.));
#1081=DIRECTION('',(-1.,-1.22464679914735E-016,-6.12323399573677E-017));
#1082=FACE_OUTER_BOUND('',#1083,.T.);
#1083=EDGE_LOOP('',(#1424));
#1084=FACE_OUTER_BOUND('',#1085,.T.);
#1085=EDGE_LOOP('',(#1425));
#1086=CYLINDRICAL_SURFACE('',#1087,0.9);
#1087=AXIS2_PLACEMENT_3D('',#1088,#1089,#1090);
#1088=CARTESIAN_POINT('',(2.54,-2.44929359829471E-016,4.));
#1089=DIRECTION('',(-6.12323399573677E-017,-6.12323399573677E-017,1.));
#1090=DIRECTION('',(-1.,-1.22464679914735E-016,-6.12323399573677E-017));
#1091=FACE_BOUND('',#1092,.T.);
#1092=EDGE_LOOP('',(#1426));
#1093=FACE_BOUND('',#1094,.T.);
#1094=EDGE_LOOP('',(#1427));
#1095=PLANE('',#1096);
#1096=AXIS2_PLACEMENT_3D('',#1097,#1098,#1099);
#1097=CARTESIAN_POINT('',(2.54,-2.44929359829471E-016,4.));
#1098=DIRECTION('',(6.12323399573677E-017,6.12323399573677E-017,-1.));
#1099=DIRECTION('',(-1.,-1.22464679914735E-016,-6.12323399573677E-017));
#1100=FACE_OUTER_BOUND('',#1101,.T.);
#1101=EDGE_LOOP('',(#1428));
#1102=FACE_OUTER_BOUND('',#1103,.T.);
#1103=EDGE_LOOP('',(#1429));
#1104=CYLINDRICAL_SURFACE('',#1105,0.66);
#1105=AXIS2_PLACEMENT_3D('',#1106,#1107,#1108);
#1106=CARTESIAN_POINT('',(2.54,-2.63299061816681E-017,0.43));
#1107=DIRECTION('',(-6.12323399573677E-017,-6.12323399573677E-017,1.));
#1108=DIRECTION('',(-1.,-1.22464679914735E-016,-6.12323399573677E-017));
#1109=FACE_OUTER_BOUND('',#1110,.T.);
#1110=EDGE_LOOP('',(#1430));
#1111=FACE_OUTER_BOUND('',#1112,.T.);
#1112=EDGE_LOOP('',(#1431));
#1113=CONICAL_SURFACE('',#1114,0.445,0.785398163397448);
#1114=AXIS2_PLACEMENT_3D('',#1115,#1116,#1117);
#1115=CARTESIAN_POINT('',(2.54,-1.3164953090834E-017,0.215));
#1116=DIRECTION('',(-6.12323399573677E-017,-6.12323399573677E-017,1.));
#1117=DIRECTION('',(-1.,-1.22464679914735E-016,-6.12323399573677E-017));
#1118=FACE_OUTER_BOUND('',#1119,.T.);
#1119=EDGE_LOOP('',(#1432));
#1120=FACE_OUTER_BOUND('',#1121,.T.);
#1121=EDGE_LOOP('',(#1433));
#1122=CYLINDRICAL_SURFACE('',#1123,0.23);
#1123=AXIS2_PLACEMENT_3D('',#1124,#1125,#1126);
#1124=CARTESIAN_POINT('',(2.54,2.11863896252492E-016,-3.46));
#1125=DIRECTION('',(-6.12323399573677E-017,-6.12323399573677E-017,1.));
#1126=DIRECTION('',(-1.,-1.22464679914735E-016,-6.12323399573675E-017));
#1127=FACE_OUTER_BOUND('',#1128,.T.);
#1128=EDGE_LOOP('',(#1434));
#1129=SPHERICAL_SURFACE('',#1130,0.23);
#1130=AXIS2_PLACEMENT_3D('',#1131,#1132,#1133);
#1131=CARTESIAN_POINT('',(2.54,2.11863896252492E-016,-3.46));
#1132=DIRECTION('',(-6.12323399573677E-017,-6.12323399573677E-017,1.));
#1133=DIRECTION('',(-1.,-1.22464679914735E-016,-6.12323399573677E-017));
#1134=FACE_OUTER_BOUND('',#1135,.T.);
#1135=EDGE_LOOP('',(#1435));
#1136=SPHERICAL_SURFACE('',#1137,0.3);
#1137=AXIS2_PLACEMENT_3D('',#1138,#1139,#1140);
#1138=CARTESIAN_POINT('',(5.08,-4.71489017671731E-016,7.7));
#1139=DIRECTION('',(-6.12323399573677E-017,-6.12323399573677E-017,1.));
#1140=DIRECTION('',(-1.,-1.22464679914736E-016,-6.12323399573677E-017));
#1141=FACE_OUTER_BOUND('',#1142,.T.);
#1142=EDGE_LOOP('',(#1436));
#1143=FACE_OUTER_BOUND('',#1144,.T.);
#1144=EDGE_LOOP('',(#1437));
#1145=CYLINDRICAL_SURFACE('',#1146,0.3);
#1146=AXIS2_PLACEMENT_3D('',#1147,#1148,#1149);
#1147=CARTESIAN_POINT('',(5.08,-3.06161699786838E-016,5.));
#1148=DIRECTION('',(-6.12323399573677E-017,-6.12323399573677E-017,1.));
#1149=DIRECTION('',(-1.,-1.22464679914735E-016,-6.12323399573677E-017));
#1150=FACE_BOUND('',#1151,.T.);
#1151=EDGE_LOOP('',(#1438));
#1152=FACE_BOUND('',#1153,.T.);
#1153=EDGE_LOOP('',(#1439));
#1154=PLANE('',#1155);
#1155=AXIS2_PLACEMENT_3D('',#1156,#1157,#1158);
#1156=CARTESIAN_POINT('',(5.08,-3.06161699786838E-016,5.));
#1157=DIRECTION('',(-6.12323399573677E-017,-6.12323399573677E-017,1.));
#1158=DIRECTION('',(-1.,-1.22464679914735E-016,-6.12323399573677E-017));
#1159=FACE_OUTER_BOUND('',#1160,.T.);
#1160=EDGE_LOOP('',(#1440));
#1161=FACE_OUTER_BOUND('',#1162,.T.);
#1162=EDGE_LOOP('',(#1441));
#1163=CYLINDRICAL_SURFACE('',#1164,0.9);
#1164=AXIS2_PLACEMENT_3D('',#1165,#1166,#1167);
#1165=CARTESIAN_POINT('',(5.08,-2.44929359829471E-016,4.));
#1166=DIRECTION('',(-6.12323399573677E-017,-6.12323399573677E-017,1.));
#1167=DIRECTION('',(-1.,-1.22464679914735E-016,-6.12323399573677E-017));
#1168=FACE_BOUND('',#1169,.T.);
#1169=EDGE_LOOP('',(#1442));
#1170=FACE_BOUND('',#1171,.T.);
#1171=EDGE_LOOP('',(#1443));
#1172=PLANE('',#1173);
#1173=AXIS2_PLACEMENT_3D('',#1174,#1175,#1176);
#1174=CARTESIAN_POINT('',(5.08,-2.44929359829471E-016,4.));
#1175=DIRECTION('',(6.12323399573677E-017,6.12323399573677E-017,-1.));
#1176=DIRECTION('',(-1.,-1.22464679914735E-016,-6.12323399573677E-017));
#1177=FACE_OUTER_BOUND('',#1178,.T.);
#1178=EDGE_LOOP('',(#1444));
#1179=FACE_OUTER_BOUND('',#1180,.T.);
#1180=EDGE_LOOP('',(#1445));
#1181=CYLINDRICAL_SURFACE('',#1182,0.66);
#1182=AXIS2_PLACEMENT_3D('',#1183,#1184,#1185);
#1183=CARTESIAN_POINT('',(5.08,-2.63299061816681E-017,0.43));
#1184=DIRECTION('',(-6.12323399573677E-017,-6.12323399573677E-017,1.));
#1185=DIRECTION('',(-1.,-1.22464679914735E-016,-6.12323399573677E-017));
#1186=FACE_OUTER_BOUND('',#1187,.T.);
#1187=EDGE_LOOP('',(#1446));
#1188=FACE_OUTER_BOUND('',#1189,.T.);
#1189=EDGE_LOOP('',(#1447));
#1190=CONICAL_SURFACE('',#1191,0.445,0.785398163397448);
#1191=AXIS2_PLACEMENT_3D('',#1192,#1193,#1194);
#1192=CARTESIAN_POINT('',(5.08,-1.3164953090834E-017,0.215));
#1193=DIRECTION('',(-6.12323399573677E-017,-6.12323399573677E-017,1.));
#1194=DIRECTION('',(-1.,-1.22464679914735E-016,-6.12323399573677E-017));
#1195=FACE_OUTER_BOUND('',#1196,.T.);
#1196=EDGE_LOOP('',(#1448));
#1197=FACE_OUTER_BOUND('',#1198,.T.);
#1198=EDGE_LOOP('',(#1449));
#1199=CYLINDRICAL_SURFACE('',#1200,0.23);
#1200=AXIS2_PLACEMENT_3D('',#1201,#1202,#1203);
#1201=CARTESIAN_POINT('',(5.08,2.11863896252492E-016,-3.46));
#1202=DIRECTION('',(-6.12323399573677E-017,-6.12323399573677E-017,1.));
#1203=DIRECTION('',(-1.,-1.22464679914735E-016,-6.12323399573675E-017));
#1204=FACE_OUTER_BOUND('',#1205,.T.);
#1205=EDGE_LOOP('',(#1450));
#1206=SPHERICAL_SURFACE('',#1207,0.23);
#1207=AXIS2_PLACEMENT_3D('',#1208,#1209,#1210);
#1208=CARTESIAN_POINT('',(5.08,2.11863896252492E-016,-3.46));
#1209=DIRECTION('',(-6.12323399573677E-017,-6.12323399573677E-017,1.));
#1210=DIRECTION('',(-1.,-1.22464679914735E-016,-6.12323399573677E-017));
#1211=ORIENTED_EDGE('',*,*,#1451,.T.);
#1212=ORIENTED_EDGE('',*,*,#1452,.F.);
#1213=ORIENTED_EDGE('',*,*,#1453,.T.);
#1214=ORIENTED_EDGE('',*,*,#1454,.F.);
#1215=ORIENTED_EDGE('',*,*,#1455,.T.);
#1216=ORIENTED_EDGE('',*,*,#1456,.T.);
#1217=ORIENTED_EDGE('',*,*,#1457,.T.);
#1218=ORIENTED_EDGE('',*,*,#1458,.T.);
#1219=ORIENTED_EDGE('',*,*,#1459,.T.);
#1220=ORIENTED_EDGE('',*,*,#1460,.T.);
#1221=ORIENTED_EDGE('',*,*,#1461,.T.);
#1222=ORIENTED_EDGE('',*,*,#1462,.T.);
#1223=ORIENTED_EDGE('',*,*,#1463,.T.);
#1224=ORIENTED_EDGE('',*,*,#1464,.T.);
#1225=ORIENTED_EDGE('',*,*,#1465,.T.);
#1226=ORIENTED_EDGE('',*,*,#1466,.T.);
#1227=ORIENTED_EDGE('',*,*,#1467,.T.);
#1228=ORIENTED_EDGE('',*,*,#1468,.T.);
#1229=ORIENTED_EDGE('',*,*,#1469,.T.);
#1230=ORIENTED_EDGE('',*,*,#1470,.T.);
#1231=ORIENTED_EDGE('',*,*,#1471,.T.);
#1232=ORIENTED_EDGE('',*,*,#1472,.T.);
#1233=ORIENTED_EDGE('',*,*,#1473,.T.);
#1234=ORIENTED_EDGE('',*,*,#1474,.T.);
#1235=ORIENTED_EDGE('',*,*,#1475,.T.);
#1236=ORIENTED_EDGE('',*,*,#1476,.T.);
#1237=ORIENTED_EDGE('',*,*,#1477,.T.);
#1238=ORIENTED_EDGE('',*,*,#1478,.T.);
#1239=ORIENTED_EDGE('',*,*,#1479,.T.);
#1240=ORIENTED_EDGE('',*,*,#1480,.T.);
#1241=ORIENTED_EDGE('',*,*,#1481,.T.);
#1242=ORIENTED_EDGE('',*,*,#1482,.T.);
#1243=ORIENTED_EDGE('',*,*,#1483,.T.);
#1244=ORIENTED_EDGE('',*,*,#1484,.T.);
#1245=ORIENTED_EDGE('',*,*,#1485,.T.);
#1246=ORIENTED_EDGE('',*,*,#1486,.T.);
#1247=ORIENTED_EDGE('',*,*,#1453,.F.);
#1248=ORIENTED_EDGE('',*,*,#1484,.F.);
#1249=ORIENTED_EDGE('',*,*,#1486,.F.);
#1250=ORIENTED_EDGE('',*,*,#1487,.T.);
#1251=ORIENTED_EDGE('',*,*,#1451,.F.);
#1252=ORIENTED_EDGE('',*,*,#1483,.F.);
#1253=ORIENTED_EDGE('',*,*,#1487,.F.);
#1254=ORIENTED_EDGE('',*,*,#1488,.F.);
#1255=ORIENTED_EDGE('',*,*,#1489,.F.);
#1256=ORIENTED_EDGE('',*,*,#1490,.F.);
#1257=ORIENTED_EDGE('',*,*,#1491,.F.);
#1258=ORIENTED_EDGE('',*,*,#1492,.F.);
#1259=ORIENTED_EDGE('',*,*,#1493,.F.);
#1260=ORIENTED_EDGE('',*,*,#1494,.F.);
#1261=ORIENTED_EDGE('',*,*,#1495,.F.);
#1262=ORIENTED_EDGE('',*,*,#1496,.F.);
#1263=ORIENTED_EDGE('',*,*,#1497,.F.);
#1264=ORIENTED_EDGE('',*,*,#1498,.F.);
#1265=ORIENTED_EDGE('',*,*,#1499,.F.);
#1266=ORIENTED_EDGE('',*,*,#1500,.F.);
#1267=ORIENTED_EDGE('',*,*,#1501,.F.);
#1268=ORIENTED_EDGE('',*,*,#1502,.F.);
#1269=ORIENTED_EDGE('',*,*,#1503,.F.);
#1270=ORIENTED_EDGE('',*,*,#1504,.F.);
#1271=ORIENTED_EDGE('',*,*,#1505,.F.);
#1272=ORIENTED_EDGE('',*,*,#1506,.F.);
#1273=ORIENTED_EDGE('',*,*,#1507,.F.);
#1274=ORIENTED_EDGE('',*,*,#1508,.F.);
#1275=ORIENTED_EDGE('',*,*,#1509,.F.);
#1276=ORIENTED_EDGE('',*,*,#1510,.F.);
#1277=ORIENTED_EDGE('',*,*,#1511,.F.);
#1278=ORIENTED_EDGE('',*,*,#1512,.F.);
#1279=ORIENTED_EDGE('',*,*,#1513,.F.);
#1280=ORIENTED_EDGE('',*,*,#1514,.F.);
#1281=ORIENTED_EDGE('',*,*,#1515,.F.);
#1282=ORIENTED_EDGE('',*,*,#1516,.T.);
#1283=ORIENTED_EDGE('',*,*,#1454,.T.);
#1284=ORIENTED_EDGE('',*,*,#1452,.T.);
#1285=ORIENTED_EDGE('',*,*,#1515,.T.);
#1286=ORIENTED_EDGE('',*,*,#1517,.T.);
#1287=ORIENTED_EDGE('',*,*,#1455,.F.);
#1288=ORIENTED_EDGE('',*,*,#1518,.F.);
#1289=ORIENTED_EDGE('',*,*,#1514,.T.);
#1290=ORIENTED_EDGE('',*,*,#1519,.T.);
#1291=ORIENTED_EDGE('',*,*,#1456,.F.);
#1292=ORIENTED_EDGE('',*,*,#1517,.F.);
#1293=ORIENTED_EDGE('',*,*,#1513,.T.);
#1294=ORIENTED_EDGE('',*,*,#1520,.T.);
#1295=ORIENTED_EDGE('',*,*,#1457,.F.);
#1296=ORIENTED_EDGE('',*,*,#1519,.F.);
#1297=ORIENTED_EDGE('',*,*,#1512,.T.);
#1298=ORIENTED_EDGE('',*,*,#1521,.T.);
#1299=ORIENTED_EDGE('',*,*,#1458,.F.);
#1300=ORIENTED_EDGE('',*,*,#1520,.F.);
#1301=ORIENTED_EDGE('',*,*,#1511,.T.);
#1302=ORIENTED_EDGE('',*,*,#1522,.T.);
#1303=ORIENTED_EDGE('',*,*,#1459,.F.);
#1304=ORIENTED_EDGE('',*,*,#1521,.F.);
#1305=ORIENTED_EDGE('',*,*,#1510,.T.);
#1306=ORIENTED_EDGE('',*,*,#1523,.T.);
#1307=ORIENTED_EDGE('',*,*,#1460,.F.);
#1308=ORIENTED_EDGE('',*,*,#1522,.F.);
#1309=ORIENTED_EDGE('',*,*,#1509,.T.);
#1310=ORIENTED_EDGE('',*,*,#1524,.T.);
#1311=ORIENTED_EDGE('',*,*,#1461,.F.);
#1312=ORIENTED_EDGE('',*,*,#1523,.F.);
#1313=ORIENTED_EDGE('',*,*,#1508,.T.);
#1314=ORIENTED_EDGE('',*,*,#1525,.T.);
#1315=ORIENTED_EDGE('',*,*,#1462,.F.);
#1316=ORIENTED_EDGE('',*,*,#1524,.F.);
#1317=ORIENTED_EDGE('',*,*,#1526,.T.);
#1318=ORIENTED_EDGE('',*,*,#1463,.F.);
#1319=ORIENTED_EDGE('',*,*,#1525,.F.);
#1320=ORIENTED_EDGE('',*,*,#1507,.T.);
#1321=ORIENTED_EDGE('',*,*,#1506,.T.);
#1322=ORIENTED_EDGE('',*,*,#1527,.T.);
#1323=ORIENTED_EDGE('',*,*,#1464,.F.);
#1324=ORIENTED_EDGE('',*,*,#1526,.F.);
#1325=ORIENTED_EDGE('',*,*,#1505,.T.);
#1326=ORIENTED_EDGE('',*,*,#1528,.T.);
#1327=ORIENTED_EDGE('',*,*,#1465,.F.);
#1328=ORIENTED_EDGE('',*,*,#1527,.F.);
#1329=ORIENTED_EDGE('',*,*,#1504,.T.);
#1330=ORIENTED_EDGE('',*,*,#1529,.T.);
#1331=ORIENTED_EDGE('',*,*,#1466,.F.);
#1332=ORIENTED_EDGE('',*,*,#1528,.F.);
#1333=ORIENTED_EDGE('',*,*,#1503,.T.);
#1334=ORIENTED_EDGE('',*,*,#1530,.T.);
#1335=ORIENTED_EDGE('',*,*,#1467,.F.);
#1336=ORIENTED_EDGE('',*,*,#1529,.F.);
#1337=ORIENTED_EDGE('',*,*,#1502,.T.);
#1338=ORIENTED_EDGE('',*,*,#1531,.T.);
#1339=ORIENTED_EDGE('',*,*,#1468,.F.);
#1340=ORIENTED_EDGE('',*,*,#1530,.F.);
#1341=ORIENTED_EDGE('',*,*,#1501,.T.);
#1342=ORIENTED_EDGE('',*,*,#1532,.T.);
#1343=ORIENTED_EDGE('',*,*,#1469,.F.);
#1344=ORIENTED_EDGE('',*,*,#1531,.F.);
#1345=ORIENTED_EDGE('',*,*,#1500,.T.);
#1346=ORIENTED_EDGE('',*,*,#1533,.T.);
#1347=ORIENTED_EDGE('',*,*,#1470,.F.);
#1348=ORIENTED_EDGE('',*,*,#1532,.F.);
#1349=ORIENTED_EDGE('',*,*,#1499,.T.);
#1350=ORIENTED_EDGE('',*,*,#1534,.T.);
#1351=ORIENTED_EDGE('',*,*,#1471,.F.);
#1352=ORIENTED_EDGE('',*,*,#1533,.F.);
#1353=ORIENTED_EDGE('',*,*,#1498,.T.);
#1354=ORIENTED_EDGE('',*,*,#1535,.T.);
#1355=ORIENTED_EDGE('',*,*,#1472,.F.);
#1356=ORIENTED_EDGE('',*,*,#1534,.F.);
#1357=ORIENTED_EDGE('',*,*,#1497,.T.);
#1358=ORIENTED_EDGE('',*,*,#1536,.T.);
#1359=ORIENTED_EDGE('',*,*,#1473,.F.);
#1360=ORIENTED_EDGE('',*,*,#1535,.F.);
#1361=ORIENTED_EDGE('',*,*,#1496,.T.);
#1362=ORIENTED_EDGE('',*,*,#1537,.T.);
#1363=ORIENTED_EDGE('',*,*,#1474,.F.);
#1364=ORIENTED_EDGE('',*,*,#1536,.F.);
#1365=ORIENTED_EDGE('',*,*,#1495,.T.);
#1366=ORIENTED_EDGE('',*,*,#1538,.T.);
#1367=ORIENTED_EDGE('',*,*,#1475,.F.);
#1368=ORIENTED_EDGE('',*,*,#1537,.F.);
#1369=ORIENTED_EDGE('',*,*,#1494,.T.);
#1370=ORIENTED_EDGE('',*,*,#1539,.T.);
#1371=ORIENTED_EDGE('',*,*,#1476,.F.);
#1372=ORIENTED_EDGE('',*,*,#1538,.F.);
#1373=ORIENTED_EDGE('',*,*,#1540,.T.);
#1374=ORIENTED_EDGE('',*,*,#1477,.F.);
#1375=ORIENTED_EDGE('',*,*,#1539,.F.);
#1376=ORIENTED_EDGE('',*,*,#1493,.T.);
#1377=ORIENTED_EDGE('',*,*,#1492,.T.);
#1378=ORIENTED_EDGE('',*,*,#1541,.T.);
#1379=ORIENTED_EDGE('',*,*,#1478,.F.);
#1380=ORIENTED_EDGE('',*,*,#1540,.F.);
#1381=ORIENTED_EDGE('',*,*,#1491,.T.);
#1382=ORIENTED_EDGE('',*,*,#1542,.T.);
#1383=ORIENTED_EDGE('',*,*,#1479,.F.);
#1384=ORIENTED_EDGE('',*,*,#1541,.F.);
#1385=ORIENTED_EDGE('',*,*,#1490,.T.);
#1386=ORIENTED_EDGE('',*,*,#1543,.T.);
#1387=ORIENTED_EDGE('',*,*,#1480,.F.);
#1388=ORIENTED_EDGE('',*,*,#1542,.F.);
#1389=ORIENTED_EDGE('',*,*,#1489,.T.);
#1390=ORIENTED_EDGE('',*,*,#1544,.T.);
#1391=ORIENTED_EDGE('',*,*,#1481,.F.);
#1392=ORIENTED_EDGE('',*,*,#1543,.F.);
#1393=ORIENTED_EDGE('',*,*,#1488,.T.);
#1394=ORIENTED_EDGE('',*,*,#1518,.T.);
#1395=ORIENTED_EDGE('',*,*,#1482,.F.);
#1396=ORIENTED_EDGE('',*,*,#1544,.F.);
#1397=ORIENTED_EDGE('',*,*,#1485,.F.);
#1398=ORIENTED_EDGE('',*,*,#1545,.F.);
#1399=ORIENTED_EDGE('',*,*,#1546,.T.);
#1400=ORIENTED_EDGE('',*,*,#1516,.F.);
#1401=ORIENTED_EDGE('',*,*,#1545,.T.);
#1402=ORIENTED_EDGE('',*,*,#1546,.F.);
#1403=ORIENTED_EDGE('',*,*,#1547,.T.);
#1404=ORIENTED_EDGE('',*,*,#1547,.F.);
#1405=ORIENTED_EDGE('',*,*,#1548,.T.);
#1406=ORIENTED_EDGE('',*,*,#1549,.T.);
#1407=ORIENTED_EDGE('',*,*,#1548,.F.);
#1408=ORIENTED_EDGE('',*,*,#1549,.F.);
#1409=ORIENTED_EDGE('',*,*,#1550,.T.);
#1410=ORIENTED_EDGE('',*,*,#1550,.F.);
#1411=ORIENTED_EDGE('',*,*,#1551,.T.);
#1412=ORIENTED_EDGE('',*,*,#1551,.F.);
#1413=ORIENTED_EDGE('',*,*,#1552,.T.);
#1414=ORIENTED_EDGE('',*,*,#1553,.T.);
#1415=ORIENTED_EDGE('',*,*,#1552,.F.);
#1416=ORIENTED_EDGE('',*,*,#1553,.F.);
#1417=ORIENTED_EDGE('',*,*,#1554,.T.);
#1418=ORIENTED_EDGE('',*,*,#1554,.F.);
#1419=ORIENTED_EDGE('',*,*,#1555,.T.);
#1420=ORIENTED_EDGE('',*,*,#1555,.F.);
#1421=ORIENTED_EDGE('',*,*,#1556,.T.);
#1422=ORIENTED_EDGE('',*,*,#1557,.T.);
#1423=ORIENTED_EDGE('',*,*,#1556,.F.);
#1424=ORIENTED_EDGE('',*,*,#1557,.F.);
#1425=ORIENTED_EDGE('',*,*,#1558,.T.);
#1426=ORIENTED_EDGE('',*,*,#1558,.F.);
#1427=ORIENTED_EDGE('',*,*,#1559,.T.);
#1428=ORIENTED_EDGE('',*,*,#1559,.F.);
#1429=ORIENTED_EDGE('',*,*,#1560,.T.);
#1430=ORIENTED_EDGE('',*,*,#1561,.T.);
#1431=ORIENTED_EDGE('',*,*,#1560,.F.);
#1432=ORIENTED_EDGE('',*,*,#1561,.F.);
#1433=ORIENTED_EDGE('',*,*,#1562,.T.);
#1434=ORIENTED_EDGE('',*,*,#1562,.F.);
#1435=ORIENTED_EDGE('',*,*,#1563,.T.);
#1436=ORIENTED_EDGE('',*,*,#1563,.F.);
#1437=ORIENTED_EDGE('',*,*,#1564,.T.);
#1438=ORIENTED_EDGE('',*,*,#1565,.T.);
#1439=ORIENTED_EDGE('',*,*,#1564,.F.);
#1440=ORIENTED_EDGE('',*,*,#1565,.F.);
#1441=ORIENTED_EDGE('',*,*,#1566,.T.);
#1442=ORIENTED_EDGE('',*,*,#1566,.F.);
#1443=ORIENTED_EDGE('',*,*,#1567,.T.);
#1444=ORIENTED_EDGE('',*,*,#1567,.F.);
#1445=ORIENTED_EDGE('',*,*,#1568,.T.);
#1446=ORIENTED_EDGE('',*,*,#1569,.T.);
#1447=ORIENTED_EDGE('',*,*,#1568,.F.);
#1448=ORIENTED_EDGE('',*,*,#1569,.F.);
#1449=ORIENTED_EDGE('',*,*,#1570,.T.);
#1450=ORIENTED_EDGE('',*,*,#1570,.F.);
#1451=EDGE_CURVE('',#1571,#1571,#1572,.T.);
#1452=EDGE_CURVE('',#1573,#1573,#1574,.T.);
#1453=EDGE_CURVE('',#1575,#1575,#1576,.T.);
#1454=EDGE_CURVE('',#1577,#1577,#1578,.T.);
#1455=EDGE_CURVE('',#1579,#1580,#1581,.T.);
#1456=EDGE_CURVE('',#1580,#1582,#1583,.T.);
#1457=EDGE_CURVE('',#1582,#1584,#1585,.T.);
#1458=EDGE_CURVE('',#1584,#1586,#1587,.T.);
#1459=EDGE_CURVE('',#1586,#1588,#1589,.T.);
#1460=EDGE_CURVE('',#1588,#1590,#1591,.T.);
#1461=EDGE_CURVE('',#1590,#1592,#1593,.T.);
#1462=EDGE_CURVE('',#1592,#1594,#1595,.T.);
#1463=EDGE_CURVE('',#1594,#1596,#1597,.T.);
#1464=EDGE_CURVE('',#1596,#1598,#1599,.T.);
#1465=EDGE_CURVE('',#1598,#1600,#1601,.T.);
#1466=EDGE_CURVE('',#1600,#1602,#1603,.T.);
#1467=EDGE_CURVE('',#1602,#1604,#1605,.T.);
#1468=EDGE_CURVE('',#1604,#1606,#1607,.T.);
#1469=EDGE_CURVE('',#1606,#1608,#1609,.T.);
#1470=EDGE_CURVE('',#1608,#1610,#1611,.T.);
#1471=EDGE_CURVE('',#1610,#1612,#1613,.T.);
#1472=EDGE_CURVE('',#1612,#1614,#1615,.T.);
#1473=EDGE_CURVE('',#1614,#1616,#1617,.T.);
#1474=EDGE_CURVE('',#1616,#1618,#1619,.T.);
#1475=EDGE_CURVE('',#1618,#1620,#1621,.T.);
#1476=EDGE_CURVE('',#1620,#1622,#1623,.T.);
#1477=EDGE_CURVE('',#1622,#1624,#1625,.T.);
#1478=EDGE_CURVE('',#1624,#1626,#1627,.T.);
#1479=EDGE_CURVE('',#1626,#1628,#1629,.T.);
#1480=EDGE_CURVE('',#1628,#1630,#1631,.T.);
#1481=EDGE_CURVE('',#1630,#1632,#1633,.T.);
#1482=EDGE_CURVE('',#1632,#1579,#1634,.T.);
#1483=EDGE_CURVE('',#1635,#1635,#1636,.F.);
#1484=EDGE_CURVE('',#1637,#1637,#1638,.F.);
#1485=EDGE_CURVE('',#1639,#1639,#1640,.F.);
#1486=EDGE_CURVE('',#1641,#1641,#1642,.T.);
#1487=EDGE_CURVE('',#1643,#1643,#1644,.T.);
#1488=EDGE_CURVE('',#1645,#1646,#1647,.T.);
#1489=EDGE_CURVE('',#1648,#1645,#1649,.T.);
#1490=EDGE_CURVE('',#1650,#1648,#1651,.T.);
#1491=EDGE_CURVE('',#1652,#1650,#1653,.T.);
#1492=EDGE_CURVE('',#1654,#1652,#1655,.T.);
#1493=EDGE_CURVE('',#1656,#1654,#1657,.T.);
#1494=EDGE_CURVE('',#1658,#1656,#1659,.T.);
#1495=EDGE_CURVE('',#1660,#1658,#1661,.T.);
#1496=EDGE_CURVE('',#1662,#1660,#1663,.T.);
#1497=EDGE_CURVE('',#1664,#1662,#1665,.T.);
#1498=EDGE_CURVE('',#1666,#1664,#1667,.T.);
#1499=EDGE_CURVE('',#1668,#1666,#1669,.T.);
#1500=EDGE_CURVE('',#1670,#1668,#1671,.T.);
#1501=EDGE_CURVE('',#1672,#1670,#1673,.T.);
#1502=EDGE_CURVE('',#1674,#1672,#1675,.T.);
#1503=EDGE_CURVE('',#1676,#1674,#1677,.T.);
#1504=EDGE_CURVE('',#1678,#1676,#1679,.T.);
#1505=EDGE_CURVE('',#1680,#1678,#1681,.T.);
#1506=EDGE_CURVE('',#1682,#1680,#1683,.T.);
#1507=EDGE_CURVE('',#1684,#1682,#1685,.T.);
#1508=EDGE_CURVE('',#1686,#1684,#1687,.T.);
#1509=EDGE_CURVE('',#1688,#1686,#1689,.T.);
#1510=EDGE_CURVE('',#1690,#1688,#1691,.T.);
#1511=EDGE_CURVE('',#1692,#1690,#1693,.T.);
#1512=EDGE_CURVE('',#1694,#1692,#1695,.T.);
#1513=EDGE_CURVE('',#1696,#1694,#1697,.T.);
#1514=EDGE_CURVE('',#1698,#1696,#1699,.T.);
#1515=EDGE_CURVE('',#1646,#1698,#1700,.T.);
#1516=EDGE_CURVE('',#1701,#1701,#1702,.T.);
#1517=EDGE_CURVE('',#1698,#1580,#1703,.T.);
#1518=EDGE_CURVE('',#1646,#1579,#1704,.T.);
#1519=EDGE_CURVE('',#1696,#1582,#1705,.T.);
#1520=EDGE_CURVE('',#1694,#1584,#1706,.T.);
#1521=EDGE_CURVE('',#1692,#1586,#1707,.T.);
#1522=EDGE_CURVE('',#1690,#1588,#1708,.T.);
#1523=EDGE_CURVE('',#1688,#1590,#1709,.T.);
#1524=EDGE_CURVE('',#1686,#1592,#1710,.T.);
#1525=EDGE_CURVE('',#1684,#1594,#1711,.T.);
#1526=EDGE_CURVE('',#1682,#1596,#1712,.T.);
#1527=EDGE_CURVE('',#1680,#1598,#1713,.T.);
#1528=EDGE_CURVE('',#1678,#1600,#1714,.T.);
#1529=EDGE_CURVE('',#1676,#1602,#1715,.T.);
#1530=EDGE_CURVE('',#1674,#1604,#1716,.T.);
#1531=EDGE_CURVE('',#1672,#1606,#1717,.T.);
#1532=EDGE_CURVE('',#1670,#1608,#1718,.T.);
#1533=EDGE_CURVE('',#1668,#1610,#1719,.T.);
#1534=EDGE_CURVE('',#1666,#1612,#1720,.T.);
#1535=EDGE_CURVE('',#1664,#1614,#1721,.T.);
#1536=EDGE_CURVE('',#1662,#1616,#1722,.T.);
#1537=EDGE_CURVE('',#1660,#1618,#1723,.T.);
#1538=EDGE_CURVE('',#1658,#1620,#1724,.T.);
#1539=EDGE_CURVE('',#1656,#1622,#1725,.T.);
#1540=EDGE_CURVE('',#1654,#1624,#1726,.T.);
#1541=EDGE_CURVE('',#1652,#1626,#1727,.T.);
#1542=EDGE_CURVE('',#1650,#1628,#1728,.T.);
#1543=EDGE_CURVE('',#1648,#1630,#1729,.T.);
#1544=EDGE_CURVE('',#1645,#1632,#1730,.T.);
#1545=EDGE_CURVE('',#1731,#1731,#1732,.T.);
#1546=EDGE_CURVE('',#1733,#1733,#1734,.T.);
#1547=EDGE_CURVE('',#1735,#1735,#1736,.T.);
#1548=EDGE_CURVE('',#1737,#1737,#1738,.T.);
#1549=EDGE_CURVE('',#1739,#1739,#1740,.T.);
#1550=EDGE_CURVE('',#1741,#1741,#1742,.T.);
#1551=EDGE_CURVE('',#1743,#1743,#1744,.T.);
#1552=EDGE_CURVE('',#1745,#1745,#1746,.T.);
#1553=EDGE_CURVE('',#1747,#1747,#1748,.T.);
#1554=EDGE_CURVE('',#1749,#1749,#1750,.T.);
#1555=EDGE_CURVE('',#1751,#1751,#1752,.T.);
#1556=EDGE_CURVE('',#1753,#1753,#1754,.T.);
#1557=EDGE_CURVE('',#1755,#1755,#1756,.T.);
#1558=EDGE_CURVE('',#1757,#1757,#1758,.T.);
#1559=EDGE_CURVE('',#1759,#1759,#1760,.T.);
#1560=EDGE_CURVE('',#1761,#1761,#1762,.T.);
#1561=EDGE_CURVE('',#1763,#1763,#1764,.T.);
#1562=EDGE_CURVE('',#1765,#1765,#1766,.T.);
#1563=EDGE_CURVE('',#1767,#1767,#1768,.T.);
#1564=EDGE_CURVE('',#1769,#1769,#1770,.T.);
#1565=EDGE_CURVE('',#1771,#1771,#1772,.T.);
#1566=EDGE_CURVE('',#1773,#1773,#1774,.T.);
#1567=EDGE_CURVE('',#1775,#1775,#1776,.T.);
#1568=EDGE_CURVE('',#1777,#1777,#1778,.T.);
#1569=EDGE_CURVE('',#1779,#1779,#1780,.T.);
#1570=EDGE_CURVE('',#1781,#1781,#1782,.T.);
#1571=VERTEX_POINT('',#1783);
#1572=CIRCLE('',#1784,0.66);
#1573=VERTEX_POINT('',#1788);
#1574=CIRCLE('',#1789,0.66);
#1575=VERTEX_POINT('',#1793);
#1576=CIRCLE('',#1794,0.66);
#1577=VERTEX_POINT('',#1798);
#1578=CIRCLE('',#1799,0.66);
#1579=VERTEX_POINT('',#1803);
#1580=VERTEX_POINT('',#1804);
#1581=LINE('',#1805,#1806);
#1582=VERTEX_POINT('',#1808);
#1583=LINE('',#1809,#1810);
#1584=VERTEX_POINT('',#1812);
#1585=LINE('',#1813,#1814);
#1586=VERTEX_POINT('',#1816);
#1587=LINE('',#1817,#1818);
#1588=VERTEX_POINT('',#1820);
#1589=LINE('',#1821,#1822);
#1590=VERTEX_POINT('',#1824);
#1591=LINE('',#1825,#1826);
#1592=VERTEX_POINT('',#1828);
#1593=LINE('',#1829,#1830);
#1594=VERTEX_POINT('',#1832);
#1595=LINE('',#1833,#1834);
#1596=VERTEX_POINT('',#1836);
#1597=LINE('',#1837,#1838);
#1598=VERTEX_POINT('',#1840);
#1599=LINE('',#1841,#1842);
#1600=VERTEX_POINT('',#1844);
#1601=LINE('',#1845,#1846);
#1602=VERTEX_POINT('',#1848);
#1603=LINE('',#1849,#1850);
#1604=VERTEX_POINT('',#1852);
#1605=LINE('',#1853,#1854);
#1606=VERTEX_POINT('',#1856);
#1607=LINE('',#1857,#1858);
#1608=VERTEX_POINT('',#1860);
#1609=LINE('',#1861,#1862);
#1610=VERTEX_POINT('',#1864);
#1611=LINE('',#1865,#1866);
#1612=VERTEX_POINT('',#1868);
#1613=LINE('',#1869,#1870);
#1614=VERTEX_POINT('',#1872);
#1615=LINE('',#1873,#1874);
#1616=VERTEX_POINT('',#1876);
#1617=LINE('',#1877,#1878);
#1618=VERTEX_POINT('',#1880);
#1619=LINE('',#1881,#1882);
#1620=VERTEX_POINT('',#1884);
#1621=LINE('',#1885,#1886);
#1622=VERTEX_POINT('',#1888);
#1623=LINE('',#1889,#1890);
#1624=VERTEX_POINT('',#1892);
#1625=LINE('',#1893,#1894);
#1626=VERTEX_POINT('',#1896);
#1627=LINE('',#1897,#1898);
#1628=VERTEX_POINT('',#1900);
#1629=LINE('',#1901,#1902);
#1630=VERTEX_POINT('',#1904);
#1631=LINE('',#1905,#1906);
#1632=VERTEX_POINT('',#1908);
#1633=LINE('',#1909,#1910);
#1634=LINE('',#1912,#1913);
#1635=VERTEX_POINT('',#1915);
#1636=CIRCLE('',#1916,0.9);
#1637=VERTEX_POINT('',#1920);
#1638=CIRCLE('',#1921,0.9);
#1639=VERTEX_POINT('',#1925);
#1640=CIRCLE('',#1926,0.9);
#1641=VERTEX_POINT('',#1930);
#1642=CIRCLE('',#1931,0.9);
#1643=VERTEX_POINT('',#1935);
#1644=CIRCLE('',#1936,0.9);
#1645=VERTEX_POINT('',#1940);
#1646=VERTEX_POINT('',#1941);
#1647=LINE('',#1942,#1943);
#1648=VERTEX_POINT('',#1945);
#1649=LINE('',#1946,#1947);
#1650=VERTEX_POINT('',#1949);
#1651=LINE('',#1950,#1951);
#1652=VERTEX_POINT('',#1953);
#1653=LINE('',#1954,#1955);
#1654=VERTEX_POINT('',#1957);
#1655=LINE('',#1958,#1959);
#1656=VERTEX_POINT('',#1961);
#1657=LINE('',#1962,#1963);
#1658=VERTEX_POINT('',#1965);
#1659=LINE('',#1966,#1967);
#1660=VERTEX_POINT('',#1969);
#1661=LINE('',#1970,#1971);
#1662=VERTEX_POINT('',#1973);
#1663=LINE('',#1974,#1975);
#1664=VERTEX_POINT('',#1977);
#1665=LINE('',#1978,#1979);
#1666=VERTEX_POINT('',#1981);
#1667=LINE('',#1982,#1983);
#1668=VERTEX_POINT('',#1985);
#1669=LINE('',#1986,#1987);
#1670=VERTEX_POINT('',#1989);
#1671=LINE('',#1990,#1991);
#1672=VERTEX_POINT('',#1993);
#1673=LINE('',#1994,#1995);
#1674=VERTEX_POINT('',#1997);
#1675=LINE('',#1998,#1999);
#1676=VERTEX_POINT('',#2001);
#1677=LINE('',#2002,#2003);
#1678=VERTEX_POINT('',#2005);
#1679=LINE('',#2006,#2007);
#1680=VERTEX_POINT('',#2009);
#1681=LINE('',#2010,#2011);
#1682=VERTEX_POINT('',#2013);
#1683=LINE('',#2014,#2015);
#1684=VERTEX_POINT('',#2017);
#1685=LINE('',#2018,#2019);
#1686=VERTEX_POINT('',#2021);
#1687=LINE('',#2022,#2023);
#1688=VERTEX_POINT('',#2025);
#1689=LINE('',#2026,#2027);
#1690=VERTEX_POINT('',#2029);
#1691=LINE('',#2030,#2031);
#1692=VERTEX_POINT('',#2033);
#1693=LINE('',#2034,#2035);
#1694=VERTEX_POINT('',#2037);
#1695=LINE('',#2038,#2039);
#1696=VERTEX_POINT('',#2041);
#1697=LINE('',#2042,#2043);
#1698=VERTEX_POINT('',#2045);
#1699=LINE('',#2046,#2047);
#1700=LINE('',#2049,#2050);
#1701=VERTEX_POINT('',#2052);
#1702=CIRCLE('',#2053,0.66);
#1703=LINE('',#2057,#2058);
#1704=LINE('',#2060,#2061);
#1705=LINE('',#2063,#2064);
#1706=LINE('',#2066,#2067);
#1707=LINE('',#2069,#2070);
#1708=LINE('',#2072,#2073);
#1709=LINE('',#2075,#2076);
#1710=LINE('',#2078,#2079);
#1711=LINE('',#2081,#2082);
#1712=LINE('',#2084,#2085);
#1713=LINE('',#2087,#2088);
#1714=LINE('',#2090,#2091);
#1715=LINE('',#2093,#2094);
#1716=LINE('',#2096,#2097);
#1717=LINE('',#2099,#2100);
#1718=LINE('',#2102,#2103);
#1719=LINE('',#2105,#2106);
#1720=LINE('',#2108,#2109);
#1721=LINE('',#2111,#2112);
#1722=LINE('',#2114,#2115);
#1723=LINE('',#2117,#2118);
#1724=LINE('',#2120,#2121);
#1725=LINE('',#2123,#2124);
#1726=LINE('',#2126,#2127);
#1727=LINE('',#2129,#2130);
#1728=LINE('',#2132,#2133);
#1729=LINE('',#2135,#2136);
#1730=LINE('',#2138,#2139);
#1731=VERTEX_POINT('',#2141);
#1732=CIRCLE('',#2142,0.9);
#1733=VERTEX_POINT('',#2146);
#1734=CIRCLE('',#2147,0.66);
#1735=VERTEX_POINT('',#2151);
#1736=CIRCLE('',#2152,0.3);
#1737=VERTEX_POINT('',#2156);
#1738=CIRCLE('',#2157,0.3);
#1739=VERTEX_POINT('',#2161);
#1740=CIRCLE('',#2162,0.9);
#1741=VERTEX_POINT('',#2166);
#1742=CIRCLE('',#2167,0.9);
#1743=VERTEX_POINT('',#2171);
#1744=CIRCLE('',#2172,0.66);
#1745=VERTEX_POINT('',#2176);
#1746=CIRCLE('',#2177,0.66);
#1747=VERTEX_POINT('',#2181);
#1748=CIRCLE('',#2182,0.23);
#1749=VERTEX_POINT('',#2186);
#1750=CIRCLE('',#2187,0.23);
#1751=VERTEX_POINT('',#2191);
#1752=CIRCLE('',#2192,0.3);
#1753=VERTEX_POINT('',#2196);
#1754=CIRCLE('',#2197,0.3);
#1755=VERTEX_POINT('',#2201);
#1756=CIRCLE('',#2202,0.9);
#1757=VERTEX_POINT('',#2206);
#1758=CIRCLE('',#2207,0.9);
#1759=VERTEX_POINT('',#2211);
#1760=CIRCLE('',#2212,0.66);
#1761=VERTEX_POINT('',#2216);
#1762=CIRCLE('',#2217,0.66);
#1763=VERTEX_POINT('',#2221);
#1764=CIRCLE('',#2222,0.23);
#1765=VERTEX_POINT('',#2226);
#1766=CIRCLE('',#2227,0.23);
#1767=VERTEX_POINT('',#2231);
#1768=CIRCLE('',#2232,0.3);
#1769=VERTEX_POINT('',#2236);
#1770=CIRCLE('',#2237,0.3);
#1771=VERTEX_POINT('',#2241);
#1772=CIRCLE('',#2242,0.9);
#1773=VERTEX_POINT('',#2246);
#1774=CIRCLE('',#2247,0.9);
#1775=VERTEX_POINT('',#2251);
#1776=CIRCLE('',#2252,0.66);
#1777=VERTEX_POINT('',#2256);
#1778=CIRCLE('',#2257,0.66);
#1779=VERTEX_POINT('',#2261);
#1780=CIRCLE('',#2262,0.23);
#1781=VERTEX_POINT('',#2266);
#1782=CIRCLE('',#2267,0.23);
#1783=CARTESIAN_POINT('',(3.2,-8.08266887437253E-017,4.));
#1784=AXIS2_PLACEMENT_3D('',#1785,#1786,#1787);
#1785=CARTESIAN_POINT('',(2.54,0.,4.));
#1786=DIRECTION('',(0.,0.,1.));
#1787=DIRECTION('',(1.,0.,0.));
#1788=CARTESIAN_POINT('',(3.2,0.,1.5));
#1789=AXIS2_PLACEMENT_3D('',#1790,#1791,#1792);
#1790=CARTESIAN_POINT('',(2.54,0.,1.5));
#1791=DIRECTION('',(0.,0.,1.));
#1792=DIRECTION('',(1.,0.,0.));
#1793=CARTESIAN_POINT('',(5.74,-8.08266887437253E-017,4.));
#1794=AXIS2_PLACEMENT_3D('',#1795,#1796,#1797);
#1795=CARTESIAN_POINT('',(5.08,0.,4.));
#1796=DIRECTION('',(0.,0.,1.));
#1797=DIRECTION('',(1.,0.,0.));
#1798=CARTESIAN_POINT('',(5.74,0.,1.5));
#1799=AXIS2_PLACEMENT_3D('',#1800,#1801,#1802);
#1800=CARTESIAN_POINT('',(5.08,0.,1.5));
#1801=DIRECTION('',(0.,0.,1.));
#1802=DIRECTION('',(1.,0.,0.));
#1803=CARTESIAN_POINT('',(-1.27,-0.75,4.5));
#1804=CARTESIAN_POINT('',(-1.12,-0.75,4.5));
#1805=CARTESIAN_POINT('',(-1.27,-0.75,4.5));
#1806=VECTOR('',#1807,1.);
#1807=DIRECTION('',(1.,0.,0.));
#1808=CARTESIAN_POINT('',(-0.819777860021394,-1.27,4.5));
#1809=CARTESIAN_POINT('',(-1.12,-0.75,4.5));
#1810=VECTOR('',#1811,1.);
#1811=DIRECTION('',(0.5,-0.866025403784438,0.));
#1812=CARTESIAN_POINT('',(0.819777860021395,-1.27,4.5));
#1813=CARTESIAN_POINT('',(-0.819777860021394,-1.27,4.5));
#1814=VECTOR('',#1815,1.);
#1815=DIRECTION('',(1.,0.,0.));
#1816=CARTESIAN_POINT('',(1.12,-0.75,4.5));
#1817=CARTESIAN_POINT('',(0.819777860021395,-1.27,4.5));
#1818=VECTOR('',#1819,1.);
#1819=DIRECTION('',(0.5,0.866025403784439,0.));
#1820=CARTESIAN_POINT('',(1.42,-0.75,4.5));
#1821=CARTESIAN_POINT('',(1.12,-0.75,4.5));
#1822=VECTOR('',#1823,1.);
#1823=DIRECTION('',(1.,0.,0.));
#1824=CARTESIAN_POINT('',(1.72022213997861,-1.27,4.5));
#1825=CARTESIAN_POINT('',(1.42,-0.75,4.5));
#1826=VECTOR('',#1827,1.);
#1827=DIRECTION('',(0.5,-0.866025403784438,0.));
#1828=CARTESIAN_POINT('',(3.35977786002139,-1.27,4.5));
#1829=CARTESIAN_POINT('',(1.72022213997861,-1.27,4.5));
#1830=VECTOR('',#1831,1.);
#1831=DIRECTION('',(1.,0.,0.));
#1832=CARTESIAN_POINT('',(3.66,-0.75,4.5));
#1833=CARTESIAN_POINT('',(3.35977786002139,-1.27,4.5));
#1834=VECTOR('',#1835,1.);
#1835=DIRECTION('',(0.5,0.866025403784439,0.));
#1836=CARTESIAN_POINT('',(3.96,-0.75,4.5));
#1837=CARTESIAN_POINT('',(3.66,-0.75,4.5));
#1838=VECTOR('',#1839,1.);
#1839=DIRECTION('',(1.,0.,0.));
#1840=CARTESIAN_POINT('',(4.26022213997861,-1.27,4.5));
#1841=CARTESIAN_POINT('',(3.96,-0.75,4.5));
#1842=VECTOR('',#1843,1.);
#1843=DIRECTION('',(0.5,-0.866025403784439,0.));
#1844=CARTESIAN_POINT('',(5.89977786002139,-1.27,4.5));
#1845=CARTESIAN_POINT('',(4.26022213997861,-1.27,4.5));
#1846=VECTOR('',#1847,1.);
#1847=DIRECTION('',(1.,0.,0.));
#1848=CARTESIAN_POINT('',(6.2,-0.75,4.5));
#1849=CARTESIAN_POINT('',(5.89977786002139,-1.27,4.5));
#1850=VECTOR('',#1851,1.);
#1851=DIRECTION('',(0.5,0.866025403784439,0.));
#1852=CARTESIAN_POINT('',(6.35,-0.75,4.5));
#1853=CARTESIAN_POINT('',(6.2,-0.75,4.5));
#1854=VECTOR('',#1855,1.);
#1855=DIRECTION('',(1.,0.,0.));
#1856=CARTESIAN_POINT('',(6.35,0.75,4.5));
#1857=CARTESIAN_POINT('',(6.35,-0.75,4.5));
#1858=VECTOR('',#1859,1.);
#1859=DIRECTION('',(0.,1.,0.));
#1860=CARTESIAN_POINT('',(6.2,0.75,4.5));
#1861=CARTESIAN_POINT('',(6.35,0.75,4.5));
#1862=VECTOR('',#1863,1.);
#1863=DIRECTION('',(-1.,0.,0.));
#1864=CARTESIAN_POINT('',(5.89977786002139,1.27,4.5));
#1865=CARTESIAN_POINT('',(6.2,0.75,4.5));
#1866=VECTOR('',#1867,1.);
#1867=DIRECTION('',(-0.5,0.866025403784439,0.));
#1868=CARTESIAN_POINT('',(4.26022213997861,1.27,4.5));
#1869=CARTESIAN_POINT('',(5.89977786002139,1.27,4.5));
#1870=VECTOR('',#1871,1.);
#1871=DIRECTION('',(-1.,0.,0.));
#1872=CARTESIAN_POINT('',(3.96,0.75,4.5));
#1873=CARTESIAN_POINT('',(4.26022213997861,1.27,4.5));
#1874=VECTOR('',#1875,1.);
#1875=DIRECTION('',(-0.5,-0.866025403784439,0.));
#1876=CARTESIAN_POINT('',(3.66,0.75,4.5));
#1877=CARTESIAN_POINT('',(3.96,0.75,4.5));
#1878=VECTOR('',#1879,1.);
#1879=DIRECTION('',(-1.,0.,0.));
#1880=CARTESIAN_POINT('',(3.35977786002139,1.27,4.5));
#1881=CARTESIAN_POINT('',(3.66,0.75,4.5));
#1882=VECTOR('',#1883,1.);
#1883=DIRECTION('',(-0.5,0.866025403784439,0.));
#1884=CARTESIAN_POINT('',(1.72022213997861,1.27,4.5));
#1885=CARTESIAN_POINT('',(3.35977786002139,1.27,4.5));
#1886=VECTOR('',#1887,1.);
#1887=DIRECTION('',(-1.,0.,0.));
#1888=CARTESIAN_POINT('',(1.42,0.75,4.5));
#1889=CARTESIAN_POINT('',(1.72022213997861,1.27,4.5));
#1890=VECTOR('',#1891,1.);
#1891=DIRECTION('',(-0.5,-0.866025403784439,0.));
#1892=CARTESIAN_POINT('',(1.12,0.75,4.5));
#1893=CARTESIAN_POINT('',(1.42,0.75,4.5));
#1894=VECTOR('',#1895,1.);
#1895=DIRECTION('',(-1.,0.,0.));
#1896=CARTESIAN_POINT('',(0.819777860021394,1.27,4.5));
#1897=CARTESIAN_POINT('',(1.12,0.75,4.5));
#1898=VECTOR('',#1899,1.);
#1899=DIRECTION('',(-0.5,0.866025403784438,0.));
#1900=CARTESIAN_POINT('',(-0.819777860021395,1.27,4.5));
#1901=CARTESIAN_POINT('',(0.819777860021394,1.27,4.5));
#1902=VECTOR('',#1903,1.);
#1903=DIRECTION('',(-1.,0.,0.));
#1904=CARTESIAN_POINT('',(-1.12,0.75,4.5));
#1905=CARTESIAN_POINT('',(-0.819777860021395,1.27,4.5));
#1906=VECTOR('',#1907,1.);
#1907=DIRECTION('',(-0.5,-0.866025403784439,0.));
#1908=CARTESIAN_POINT('',(-1.27,0.75,4.5));
#1909=CARTESIAN_POINT('',(-1.12,0.75,4.5));
#1910=VECTOR('',#1911,1.);
#1911=DIRECTION('',(-1.,0.,0.));
#1912=CARTESIAN_POINT('',(-1.27,0.75,4.5));
#1913=VECTOR('',#1914,1.);
#1914=DIRECTION('',(0.,-1.,0.));
#1915=CARTESIAN_POINT('',(3.44,0.,4.5));
#1916=AXIS2_PLACEMENT_3D('',#1917,#1918,#1919);
#1917=CARTESIAN_POINT('',(2.54,0.,4.5));
#1918=DIRECTION('',(0.,0.,1.));
#1919=DIRECTION('',(1.,0.,0.));
#1920=CARTESIAN_POINT('',(5.98,0.,4.5));
#1921=AXIS2_PLACEMENT_3D('',#1922,#1923,#1924);
#1922=CARTESIAN_POINT('',(5.08,0.,4.5));
#1923=DIRECTION('',(0.,0.,1.));
#1924=DIRECTION('',(1.,0.,0.));
#1925=CARTESIAN_POINT('',(0.9,0.,4.5));
#1926=AXIS2_PLACEMENT_3D('',#1927,#1928,#1929);
#1927=CARTESIAN_POINT('',(0.,0.,4.5));
#1928=DIRECTION('',(0.,0.,1.));
#1929=DIRECTION('',(1.,0.,0.));
#1930=CARTESIAN_POINT('',(5.98,0.,4.));
#1931=AXIS2_PLACEMENT_3D('',#1932,#1933,#1934);
#1932=CARTESIAN_POINT('',(5.08,0.,4.));
#1933=DIRECTION('',(0.,0.,1.));
#1934=DIRECTION('',(1.,0.,0.));
#1935=CARTESIAN_POINT('',(3.44,0.,4.));
#1936=AXIS2_PLACEMENT_3D('',#1937,#1938,#1939);
#1937=CARTESIAN_POINT('',(2.54,0.,4.));
#1938=DIRECTION('',(0.,0.,1.));
#1939=DIRECTION('',(1.,0.,0.));
#1940=CARTESIAN_POINT('',(-1.27,0.75,1.5));
#1941=CARTESIAN_POINT('',(-1.27,-0.75,1.5));
#1942=CARTESIAN_POINT('',(-1.27,0.75,1.5));
#1943=VECTOR('',#1944,1.);
#1944=DIRECTION('',(0.,-1.,0.));
#1945=CARTESIAN_POINT('',(-1.12,0.75,1.5));
#1946=CARTESIAN_POINT('',(-1.12,0.75,1.5));
#1947=VECTOR('',#1948,1.);
#1948=DIRECTION('',(-1.,0.,0.));
#1949=CARTESIAN_POINT('',(-0.819777860021395,1.27,1.5));
#1950=CARTESIAN_POINT('',(-0.819777860021395,1.27,1.5));
#1951=VECTOR('',#1952,1.);
#1952=DIRECTION('',(-0.5,-0.866025403784439,0.));
#1953=CARTESIAN_POINT('',(0.819777860021394,1.27,1.5));
#1954=CARTESIAN_POINT('',(0.819777860021394,1.27,1.5));
#1955=VECTOR('',#1956,1.);
#1956=DIRECTION('',(-1.,0.,0.));
#1957=CARTESIAN_POINT('',(1.12,0.75,1.5));
#1958=CARTESIAN_POINT('',(1.12,0.75,1.5));
#1959=VECTOR('',#1960,1.);
#1960=DIRECTION('',(-0.5,0.866025403784438,0.));
#1961=CARTESIAN_POINT('',(1.42,0.75,1.5));
#1962=CARTESIAN_POINT('',(1.42,0.75,1.5));
#1963=VECTOR('',#1964,1.);
#1964=DIRECTION('',(-1.,0.,0.));
#1965=CARTESIAN_POINT('',(1.72022213997861,1.27,1.5));
#1966=CARTESIAN_POINT('',(1.72022213997861,1.27,1.5));
#1967=VECTOR('',#1968,1.);
#1968=DIRECTION('',(-0.5,-0.866025403784439,0.));
#1969=CARTESIAN_POINT('',(3.35977786002139,1.27,1.5));
#1970=CARTESIAN_POINT('',(3.35977786002139,1.27,1.5));
#1971=VECTOR('',#1972,1.);
#1972=DIRECTION('',(-1.,0.,0.));
#1973=CARTESIAN_POINT('',(3.66,0.75,1.5));
#1974=CARTESIAN_POINT('',(3.66,0.75,1.5));
#1975=VECTOR('',#1976,1.);
#1976=DIRECTION('',(-0.5,0.866025403784439,0.));
#1977=CARTESIAN_POINT('',(3.96,0.75,1.5));
#1978=CARTESIAN_POINT('',(3.96,0.75,1.5));
#1979=VECTOR('',#1980,1.);
#1980=DIRECTION('',(-1.,0.,0.));
#1981=CARTESIAN_POINT('',(4.26022213997861,1.27,1.5));
#1982=CARTESIAN_POINT('',(4.26022213997861,1.27,1.5));
#1983=VECTOR('',#1984,1.);
#1984=DIRECTION('',(-0.5,-0.866025403784439,0.));
#1985=CARTESIAN_POINT('',(5.89977786002139,1.27,1.5));
#1986=CARTESIAN_POINT('',(5.89977786002139,1.27,1.5));
#1987=VECTOR('',#1988,1.);
#1988=DIRECTION('',(-1.,0.,0.));
#1989=CARTESIAN_POINT('',(6.2,0.75,1.5));
#1990=CARTESIAN_POINT('',(6.2,0.75,1.5));
#1991=VECTOR('',#1992,1.);
#1992=DIRECTION('',(-0.5,0.866025403784439,0.));
#1993=CARTESIAN_POINT('',(6.35,0.75,1.5));
#1994=CARTESIAN_POINT('',(6.35,0.75,1.5));
#1995=VECTOR('',#1996,1.);
#1996=DIRECTION('',(-1.,0.,0.));
#1997=CARTESIAN_POINT('',(6.35,-0.75,1.5));
#1998=CARTESIAN_POINT('',(6.35,-0.75,1.5));
#1999=VECTOR('',#2000,1.);
#2000=DIRECTION('',(0.,1.,0.));
#2001=CARTESIAN_POINT('',(6.2,-0.75,1.5));
#2002=CARTESIAN_POINT('',(6.2,-0.75,1.5));
#2003=VECTOR('',#2004,1.);
#2004=DIRECTION('',(1.,0.,0.));
#2005=CARTESIAN_POINT('',(5.89977786002139,-1.27,1.5));
#2006=CARTESIAN_POINT('',(5.89977786002139,-1.27,1.5));
#2007=VECTOR('',#2008,1.);
#2008=DIRECTION('',(0.5,0.866025403784439,0.));
#2009=CARTESIAN_POINT('',(4.26022213997861,-1.27,1.5));
#2010=CARTESIAN_POINT('',(4.26022213997861,-1.27,1.5));
#2011=VECTOR('',#2012,1.);
#2012=DIRECTION('',(1.,0.,0.));
#2013=CARTESIAN_POINT('',(3.96,-0.75,1.5));
#2014=CARTESIAN_POINT('',(3.96,-0.75,1.5));
#2015=VECTOR('',#2016,1.);
#2016=DIRECTION('',(0.5,-0.866025403784439,0.));
#2017=CARTESIAN_POINT('',(3.66,-0.75,1.5));
#2018=CARTESIAN_POINT('',(3.66,-0.75,1.5));
#2019=VECTOR('',#2020,1.);
#2020=DIRECTION('',(1.,0.,0.));
#2021=CARTESIAN_POINT('',(3.35977786002139,-1.27,1.5));
#2022=CARTESIAN_POINT('',(3.35977786002139,-1.27,1.5));
#2023=VECTOR('',#2024,1.);
#2024=DIRECTION('',(0.5,0.866025403784439,0.));
#2025=CARTESIAN_POINT('',(1.72022213997861,-1.27,1.5));
#2026=CARTESIAN_POINT('',(1.72022213997861,-1.27,1.5));
#2027=VECTOR('',#2028,1.);
#2028=DIRECTION('',(1.,0.,0.));
#2029=CARTESIAN_POINT('',(1.42,-0.75,1.5));
#2030=CARTESIAN_POINT('',(1.42,-0.75,1.5));
#2031=VECTOR('',#2032,1.);
#2032=DIRECTION('',(0.5,-0.866025403784438,0.));
#2033=CARTESIAN_POINT('',(1.12,-0.75,1.5));
#2034=CARTESIAN_POINT('',(1.12,-0.75,1.5));
#2035=VECTOR('',#2036,1.);
#2036=DIRECTION('',(1.,0.,0.));
#2037=CARTESIAN_POINT('',(0.819777860021395,-1.27,1.5));
#2038=CARTESIAN_POINT('',(0.819777860021395,-1.27,1.5));
#2039=VECTOR('',#2040,1.);
#2040=DIRECTION('',(0.5,0.866025403784439,0.));
#2041=CARTESIAN_POINT('',(-0.819777860021394,-1.27,1.5));
#2042=CARTESIAN_POINT('',(-0.819777860021394,-1.27,1.5));
#2043=VECTOR('',#2044,1.);
#2044=DIRECTION('',(1.,0.,0.));
#2045=CARTESIAN_POINT('',(-1.12,-0.75,1.5));
#2046=CARTESIAN_POINT('',(-1.12,-0.75,1.5));
#2047=VECTOR('',#2048,1.);
#2048=DIRECTION('',(0.5,-0.866025403784438,0.));
#2049=CARTESIAN_POINT('',(-1.27,-0.75,1.5));
#2050=VECTOR('',#2051,1.);
#2051=DIRECTION('',(1.,0.,0.));
#2052=CARTESIAN_POINT('',(0.66,0.,1.5));
#2053=AXIS2_PLACEMENT_3D('',#2054,#2055,#2056);
#2054=CARTESIAN_POINT('',(0.,0.,1.5));
#2055=DIRECTION('',(0.,0.,1.));
#2056=DIRECTION('',(1.,0.,0.));
#2057=CARTESIAN_POINT('',(-1.12,-0.75,1.5));
#2058=VECTOR('',#2059,1.);
#2059=DIRECTION('',(0.,0.,1.));
#2060=CARTESIAN_POINT('',(-1.27,-0.75,1.5));
#2061=VECTOR('',#2062,1.);
#2062=DIRECTION('',(0.,0.,1.));
#2063=CARTESIAN_POINT('',(-0.819777860021395,-1.27,1.5));
#2064=VECTOR('',#2065,1.);
#2065=DIRECTION('',(0.,0.,1.));
#2066=CARTESIAN_POINT('',(0.819777860021395,-1.27,1.5));
#2067=VECTOR('',#2068,1.);
#2068=DIRECTION('',(0.,0.,1.));
#2069=CARTESIAN_POINT('',(1.12,-0.75,1.5));
#2070=VECTOR('',#2071,1.);
#2071=DIRECTION('',(0.,0.,1.));
#2072=CARTESIAN_POINT('',(1.42,-0.75,1.5));
#2073=VECTOR('',#2074,1.);
#2074=DIRECTION('',(0.,0.,1.));
#2075=CARTESIAN_POINT('',(1.72022213997861,-1.27,1.5));
#2076=VECTOR('',#2077,1.);
#2077=DIRECTION('',(0.,0.,1.));
#2078=CARTESIAN_POINT('',(3.35977786002139,-1.27,1.5));
#2079=VECTOR('',#2080,1.);
#2080=DIRECTION('',(0.,0.,1.));
#2081=CARTESIAN_POINT('',(3.66,-0.75,1.5));
#2082=VECTOR('',#2083,1.);
#2083=DIRECTION('',(0.,0.,1.));
#2084=CARTESIAN_POINT('',(3.96,-0.75,1.5));
#2085=VECTOR('',#2086,1.);
#2086=DIRECTION('',(0.,0.,1.));
#2087=CARTESIAN_POINT('',(4.26022213997861,-1.27,1.5));
#2088=VECTOR('',#2089,1.);
#2089=DIRECTION('',(0.,0.,1.));
#2090=CARTESIAN_POINT('',(5.89977786002139,-1.27,1.5));
#2091=VECTOR('',#2092,1.);
#2092=DIRECTION('',(0.,0.,1.));
#2093=CARTESIAN_POINT('',(6.2,-0.75,1.5));
#2094=VECTOR('',#2095,1.);
#2095=DIRECTION('',(0.,0.,1.));
#2096=CARTESIAN_POINT('',(6.35,-0.75,1.5));
#2097=VECTOR('',#2098,1.);
#2098=DIRECTION('',(0.,0.,1.));
#2099=CARTESIAN_POINT('',(6.35,0.75,1.5));
#2100=VECTOR('',#2101,1.);
#2101=DIRECTION('',(0.,0.,1.));
#2102=CARTESIAN_POINT('',(6.2,0.75,1.5));
#2103=VECTOR('',#2104,1.);
#2104=DIRECTION('',(0.,0.,1.));
#2105=CARTESIAN_POINT('',(5.89977786002139,1.27,1.5));
#2106=VECTOR('',#2107,1.);
#2107=DIRECTION('',(0.,0.,1.));
#2108=CARTESIAN_POINT('',(4.26022213997861,1.27,1.5));
#2109=VECTOR('',#2110,1.);
#2110=DIRECTION('',(0.,0.,1.));
#2111=CARTESIAN_POINT('',(3.96,0.75,1.5));
#2112=VECTOR('',#2113,1.);
#2113=DIRECTION('',(0.,0.,1.));
#2114=CARTESIAN_POINT('',(3.66,0.75,1.5));
#2115=VECTOR('',#2116,1.);
#2116=DIRECTION('',(0.,0.,1.));
#2117=CARTESIAN_POINT('',(3.35977786002139,1.27,1.5));
#2118=VECTOR('',#2119,1.);
#2119=DIRECTION('',(0.,0.,1.));
#2120=CARTESIAN_POINT('',(1.72022213997861,1.27,1.5));
#2121=VECTOR('',#2122,1.);
#2122=DIRECTION('',(0.,0.,1.));
#2123=CARTESIAN_POINT('',(1.42,0.75,1.5));
#2124=VECTOR('',#2125,1.);
#2125=DIRECTION('',(0.,0.,1.));
#2126=CARTESIAN_POINT('',(1.12,0.75,1.5));
#2127=VECTOR('',#2128,1.);
#2128=DIRECTION('',(0.,0.,1.));
#2129=CARTESIAN_POINT('',(0.819777860021395,1.27,1.5));
#2130=VECTOR('',#2131,1.);
#2131=DIRECTION('',(0.,0.,1.));
#2132=CARTESIAN_POINT('',(-0.819777860021395,1.27,1.5));
#2133=VECTOR('',#2134,1.);
#2134=DIRECTION('',(0.,0.,1.));
#2135=CARTESIAN_POINT('',(-1.12,0.75,1.5));
#2136=VECTOR('',#2137,1.);
#2137=DIRECTION('',(0.,0.,1.));
#2138=CARTESIAN_POINT('',(-1.27,0.75,1.5));
#2139=VECTOR('',#2140,1.);
#2140=DIRECTION('',(0.,0.,1.));
#2141=CARTESIAN_POINT('',(0.9,0.,4.));
#2142=AXIS2_PLACEMENT_3D('',#2143,#2144,#2145);
#2143=CARTESIAN_POINT('',(0.,0.,4.));
#2144=DIRECTION('',(0.,0.,1.));
#2145=DIRECTION('',(1.,0.,0.));
#2146=CARTESIAN_POINT('',(0.66,-8.08266887437253E-017,4.));
#2147=AXIS2_PLACEMENT_3D('',#2148,#2149,#2150);
#2148=CARTESIAN_POINT('',(0.,0.,4.));
#2149=DIRECTION('',(0.,0.,1.));
#2150=DIRECTION('',(1.,0.,0.));
#2151=CARTESIAN_POINT('',(-0.3,-5.08228421646152E-016,7.7));
#2152=AXIS2_PLACEMENT_3D('',#2153,#2154,#2155);
#2153=CARTESIAN_POINT('',(-4.71489017671731E-016,-4.71489017671731E-016,7.7));
#2154=DIRECTION('',(-6.12323399573677E-017,-6.12323399573677E-017,1.));
#2155=DIRECTION('',(-1.,-1.22464679914736E-016,-6.12323399573677E-017));
#2156=CARTESIAN_POINT('',(-0.3,-3.42901103761259E-016,5.));
#2157=AXIS2_PLACEMENT_3D('',#2158,#2159,#2160);
#2158=CARTESIAN_POINT('',(-3.06161699786838E-016,-3.06161699786838E-016,5.));
#2159=DIRECTION('',(-6.12323399573677E-017,-6.12323399573677E-017,1.));
#2160=DIRECTION('',(-1.,-1.22464679914735E-016,-6.12323399573677E-017));
#2161=CARTESIAN_POINT('',(-0.9,-4.163799117101E-016,5.));
#2162=AXIS2_PLACEMENT_3D('',#2163,#2164,#2165);
#2163=CARTESIAN_POINT('',(-3.06161699786838E-016,-3.06161699786838E-016,5.));
#2164=DIRECTION('',(-6.12323399573677E-017,-6.12323399573677E-017,1.));
#2165=DIRECTION('',(-1.,-1.22464679914735E-016,-6.12323399573677E-017));
#2166=CARTESIAN_POINT('',(-0.9,-3.55147571752732E-016,4.));
#2167=AXIS2_PLACEMENT_3D('',#2168,#2169,#2170);
#2168=CARTESIAN_POINT('',(-2.44929359829471E-016,-2.44929359829471E-016,4.));
#2169=DIRECTION('',(-6.12323399573677E-017,-6.12323399573677E-017,1.));
#2170=DIRECTION('',(-1.,-1.22464679914735E-016,-6.12323399573677E-017));
#2171=CARTESIAN_POINT('',(-0.66,-3.25756048573196E-016,4.));
#2172=AXIS2_PLACEMENT_3D('',#2173,#2174,#2175);
#2173=CARTESIAN_POINT('',(-2.44929359829471E-016,-2.44929359829471E-016,4.));
#2174=DIRECTION('',(-6.12323399573677E-017,-6.12323399573677E-017,1.));
#2175=DIRECTION('',(-1.,-1.22464679914735E-016,-6.12323399573677E-017));
#2176=CARTESIAN_POINT('',(-0.66,-1.07156594925393E-016,0.43));
#2177=AXIS2_PLACEMENT_3D('',#2178,#2179,#2180);
#2178=CARTESIAN_POINT('',(-2.63299061816681E-017,-2.63299061816681E-017,0.43));
#2179=DIRECTION('',(-6.12323399573677E-017,-6.12323399573677E-017,1.));
#2180=DIRECTION('',(-1.,-1.22464679914735E-016,-6.12323399573677E-017));
#2181=CARTESIAN_POINT('',(-0.23,-2.81668763803891E-017,-2.81668763803891E-017));
#2182=AXIS2_PLACEMENT_3D('',#2183,#2184,#2185);
#2183=CARTESIAN_POINT('',(0.,0.,0.));
#2184=DIRECTION('',(-6.12323399573677E-017,-6.12323399573676E-017,1.));
#2185=DIRECTION('',(-1.,-1.22464679914735E-016,-6.12323399573677E-017));
#2186=CARTESIAN_POINT('',(-0.23,1.83697019872103E-016,-3.46));
#2187=AXIS2_PLACEMENT_3D('',#2188,#2189,#2190);
#2188=CARTESIAN_POINT('',(2.11863896252492E-016,2.11863896252492E-016,-3.46));
#2189=DIRECTION('',(-6.12323399573675E-017,-6.12323399573677E-017,1.));
#2190=DIRECTION('',(-1.,-1.22464679914735E-016,-6.12323399573675E-017));
#2191=CARTESIAN_POINT('',(2.24,-5.08228421646152E-016,7.7));
#2192=AXIS2_PLACEMENT_3D('',#2193,#2194,#2195);
#2193=CARTESIAN_POINT('',(2.54,-4.71489017671731E-016,7.7));
#2194=DIRECTION('',(-6.12323399573677E-017,-6.12323399573677E-017,1.));
#2195=DIRECTION('',(-1.,-1.22464679914736E-016,-6.12323399573677E-017));
#2196=CARTESIAN_POINT('',(2.24,-3.42901103761259E-016,5.));
#2197=AXIS2_PLACEMENT_3D('',#2198,#2199,#2200);
#2198=CARTESIAN_POINT('',(2.54,-3.06161699786838E-016,5.));
#2199=DIRECTION('',(-6.12323399573677E-017,-6.12323399573677E-017,1.));
#2200=DIRECTION('',(-1.,-1.22464679914735E-016,-6.12323399573677E-017));
#2201=CARTESIAN_POINT('',(1.64,-4.163799117101E-016,5.));
#2202=AXIS2_PLACEMENT_3D('',#2203,#2204,#2205);
#2203=CARTESIAN_POINT('',(2.54,-3.06161699786838E-016,5.));
#2204=DIRECTION('',(-6.12323399573677E-017,-6.12323399573677E-017,1.));
#2205=DIRECTION('',(-1.,-1.22464679914735E-016,-6.12323399573677E-017));
#2206=CARTESIAN_POINT('',(1.64,-3.55147571752732E-016,4.));
#2207=AXIS2_PLACEMENT_3D('',#2208,#2209,#2210);
#2208=CARTESIAN_POINT('',(2.54,-2.44929359829471E-016,4.));
#2209=DIRECTION('',(-6.12323399573677E-017,-6.12323399573677E-017,1.));
#2210=DIRECTION('',(-1.,-1.22464679914735E-016,-6.12323399573677E-017));
#2211=CARTESIAN_POINT('',(1.88,-3.25756048573196E-016,4.));
#2212=AXIS2_PLACEMENT_3D('',#2213,#2214,#2215);
#2213=CARTESIAN_POINT('',(2.54,-2.44929359829471E-016,4.));
#2214=DIRECTION('',(-6.12323399573677E-017,-6.12323399573677E-017,1.));
#2215=DIRECTION('',(-1.,-1.22464679914735E-016,-6.12323399573677E-017));
#2216=CARTESIAN_POINT('',(1.88,-1.07156594925393E-016,0.43));
#2217=AXIS2_PLACEMENT_3D('',#2218,#2219,#2220);
#2218=CARTESIAN_POINT('',(2.54,-2.63299061816681E-017,0.43));
#2219=DIRECTION('',(-6.12323399573677E-017,-6.12323399573677E-017,1.));
#2220=DIRECTION('',(-1.,-1.22464679914735E-016,-6.12323399573677E-017));
#2221=CARTESIAN_POINT('',(2.31,-2.81668763803891E-017,-2.81668763803891E-017));
#2222=AXIS2_PLACEMENT_3D('',#2223,#2224,#2225);
#2223=CARTESIAN_POINT('',(2.54,0.,0.));
#2224=DIRECTION('',(-6.12323399573677E-017,-6.12323399573676E-017,1.));
#2225=DIRECTION('',(-1.,-1.22464679914735E-016,-6.12323399573677E-017));
#2226=CARTESIAN_POINT('',(2.31,1.83697019872103E-016,-3.46));
#2227=AXIS2_PLACEMENT_3D('',#2228,#2229,#2230);
#2228=CARTESIAN_POINT('',(2.54,2.11863896252492E-016,-3.46));
#2229=DIRECTION('',(-6.12323399573675E-017,-6.12323399573677E-017,1.));
#2230=DIRECTION('',(-1.,-1.22464679914735E-016,-6.12323399573675E-017));
#2231=CARTESIAN_POINT('',(4.78,-5.08228421646152E-016,7.7));
#2232=AXIS2_PLACEMENT_3D('',#2233,#2234,#2235);
#2233=CARTESIAN_POINT('',(5.08,-4.71489017671731E-016,7.7));
#2234=DIRECTION('',(-6.12323399573677E-017,-6.12323399573677E-017,1.));
#2235=DIRECTION('',(-1.,-1.22464679914736E-016,-6.12323399573677E-017));
#2236=CARTESIAN_POINT('',(4.78,-3.42901103761259E-016,5.));
#2237=AXIS2_PLACEMENT_3D('',#2238,#2239,#2240);
#2238=CARTESIAN_POINT('',(5.08,-3.06161699786838E-016,5.));
#2239=DIRECTION('',(-6.12323399573677E-017,-6.12323399573677E-017,1.));
#2240=DIRECTION('',(-1.,-1.22464679914735E-016,-6.12323399573677E-017));
#2241=CARTESIAN_POINT('',(4.18,-4.163799117101E-016,5.));
#2242=AXIS2_PLACEMENT_3D('',#2243,#2244,#2245);
#2243=CARTESIAN_POINT('',(5.08,-3.06161699786838E-016,5.));
#2244=DIRECTION('',(-6.12323399573677E-017,-6.12323399573677E-017,1.));
#2245=DIRECTION('',(-1.,-1.22464679914735E-016,-6.12323399573677E-017));
#2246=CARTESIAN_POINT('',(4.18,-3.55147571752732E-016,4.));
#2247=AXIS2_PLACEMENT_3D('',#2248,#2249,#2250);
#2248=CARTESIAN_POINT('',(5.08,-2.44929359829471E-016,4.));
#2249=DIRECTION('',(-6.12323399573677E-017,-6.12323399573677E-017,1.));
#2250=DIRECTION('',(-1.,-1.22464679914735E-016,-6.12323399573677E-017));
#2251=CARTESIAN_POINT('',(4.42,-3.25756048573196E-016,4.));
#2252=AXIS2_PLACEMENT_3D('',#2253,#2254,#2255);
#2253=CARTESIAN_POINT('',(5.08,-2.44929359829471E-016,4.));
#2254=DIRECTION('',(-6.12323399573677E-017,-6.12323399573677E-017,1.));
#2255=DIRECTION('',(-1.,-1.22464679914735E-016,-6.12323399573677E-017));
#2256=CARTESIAN_POINT('',(4.42,-1.07156594925393E-016,0.43));
#2257=AXIS2_PLACEMENT_3D('',#2258,#2259,#2260);
#2258=CARTESIAN_POINT('',(5.08,-2.63299061816681E-017,0.43));
#2259=DIRECTION('',(-6.12323399573677E-017,-6.12323399573677E-017,1.));
#2260=DIRECTION('',(-1.,-1.22464679914735E-016,-6.12323399573677E-017));
#2261=CARTESIAN_POINT('',(4.85,-2.81668763803891E-017,-2.81668763803891E-017));
#2262=AXIS2_PLACEMENT_3D('',#2263,#2264,#2265);
#2263=CARTESIAN_POINT('',(5.08,0.,0.));
#2264=DIRECTION('',(-6.12323399573677E-017,-6.12323399573676E-017,1.));
#2265=DIRECTION('',(-1.,-1.22464679914735E-016,-6.12323399573677E-017));
#2266=CARTESIAN_POINT('',(4.85,1.83697019872103E-016,-3.46));
#2267=AXIS2_PLACEMENT_3D('',#2268,#2269,#2270);
#2268=CARTESIAN_POINT('',(5.08,2.11863896252492E-016,-3.46));
#2269=DIRECTION('',(-6.12323399573675E-017,-6.12323399573677E-017,1.));
#2270=DIRECTION('',(-1.,-1.22464679914735E-016,-6.12323399573675E-017));
ENDSEC;
END-ISO-10303-21;
