ISO-10303-21;
HEADER;
FILE_DESCRIPTION(('STEP AP214'),
    '1');
FILE_NAME('PLSS (DS1004-xx2 CONNFLY)',
    '',
    ('UNSPECIFIED'),
    ('UNSPECIFIED'),
    'ASCON STEP Converter 1.6',
    'ASCON Math Kernel',
    '');
FILE_SCHEMA(('AUTOMOTIVE_DESIGN { 1 0 10303 214 3 1 1}'));
ENDSEC;

DATA;
#1=SHAPE_REPRESENTATION('NONE',(#2),#6);
#2=AXIS2_PLACEMENT_3D('',#3,#4,#5);
#3=CARTESIAN_POINT('',(0.,0.,0.));
#4=DIRECTION('',(0.,0.,1.));
#5=DIRECTION('',(1.,0.,0.));
#6=(GEOMETRIC_REPRESENTATION_CONTEXT(3)GLOBAL_UNCERTAINTY_ASSIGNED_CONTEXT((#8))
GLOBAL_UNIT_ASSIGNED_CONTEXT((#7,#9,#10))REPRESENTATION_CONTEXT('NONE','NONE'));
#7=(LENGTH_UNIT()NAMED_UNIT(*)SI_UNIT(.MILLI.,.METRE.));
#8=UNCERTAINTY_MEASURE_WITH_UNIT(LENGTH_MEASURE(1.E-005),#7,'NONE','NONE');
#9=(NAMED_UNIT(*)PLANE_ANGLE_UNIT()SI_UNIT($,.RADIAN.));
#10=(NAMED_UNIT(*)SI_UNIT($,.STERADIAN.)SOLID_ANGLE_UNIT());
#11=SHAPE_DEFINITION_REPRESENTATION(#12,#1);
#12=PRODUCT_DEFINITION_SHAPE('NONE','NONE',#13);
#13=PRODUCT_DEFINITION('','UNSPECIFIED',#14,#22);
#14=PRODUCT_DEFINITION_FORMATION_WITH_SPECIFIED_SOURCE('ANY','UNSPECIFIED',#15,.NOT_KNOWN.);
#15=PRODUCT('','PLSS (DS1004-xx2 CONNFLY)','NONE',(#25));
#16=PERSON('UNSPECIFIED','dima','UNSPECIFIED',('UNSPECIFIED'),('UNSPECIFIED'),('UNSPECIFIED'));
#17=ORGANIZATION('UNSPECIFIED','UNSPECIFIED','UNSPECIFIED');
#18=PERSON_AND_ORGANIZATION(#16,#17);
#19=PERSON_AND_ORGANIZATION_ROLE('design_owner');
#20=CC_DESIGN_PERSON_AND_ORGANIZATION_ASSIGNMENT(#18,#19,(#15));
#21=PRODUCT_RELATED_PRODUCT_CATEGORY('detail','',(#15));
#22=DESIGN_CONTEXT('detailed design',#23,'design');
#23=APPLICATION_CONTEXT('configuration controlled 3d designs of mechanical parts and assemblies');
#24=APPLICATION_PROTOCOL_DEFINITION('international standard','automotive_design',
2011,#23);
#25=MECHANICAL_CONTEXT('NONE',#23,'mechanical');
#26=CC_DESIGN_DATE_AND_TIME_ASSIGNMENT(#27,#31,(#13));
#27=DATE_AND_TIME(#28,#29);
#28=CALENDAR_DATE(0,1,1);
#29=LOCAL_TIME(0,0,0.,#30);
#30=COORDINATED_UNIVERSAL_TIME_OFFSET(0,0,.AHEAD.);
#31=DATE_TIME_ROLE('creation_date');
#32=CC_DESIGN_APPROVAL(#33,(#13));
#33=APPROVAL(#34,'UNSPECIFIED');
#34=APPROVAL_STATUS('not_yet_approved');
#35=APPROVAL_DATE_TIME(#36,#33);
#36=DATE_AND_TIME(#37,#38);
#37=CALENDAR_DATE(0,1,1);
#38=LOCAL_TIME(0,0,0.,#39);
#39=COORDINATED_UNIVERSAL_TIME_OFFSET(0,0,.AHEAD.);
#40=MANIFOLD_SOLID_BREP('',#41);
#41=CLOSED_SHELL('',(#73,#82,#91,#100,#109,#118,#127,#136,#145,#154,#163,#172,#181,
#190,#199,#208,#217,#226,#235,#244,#253,#262,#271,#280,#289,#298,#307,#316));
#42=COLOUR_RGB('',0.156862745098039,0.156862745098039,0.156862745098039);
#43=FILL_AREA_STYLE_COLOUR('',#42);
#44=FILL_AREA_STYLE($,(#43));
#45=SURFACE_STYLE_FILL_AREA(#44);
#46=SURFACE_SIDE_STYLE('',(#45));
#47=SURFACE_STYLE_USAGE(.BOTH.,#46);
#48=PRESENTATION_STYLE_ASSIGNMENT((#47));
#49=MECHANICAL_DESIGN_GEOMETRIC_PRESENTATION_REPRESENTATION('NONE',(#50,#60,#70,
#81,#90,#99,#108,#117,#126,#135,#144,#153,#162,#171,#180,#189,#198,#207,#216,#225,
#234,#243,#252,#261,#270,#279,#288,#297,#306,#315,#324,#333,#342,#351,#360,#369,
#378,#387,#396,#405,#414,#423,#432,#441,#450,#459,#468,#477,#486),#6);
#50=STYLED_ITEM('',(#48),#40);
#51=MANIFOLD_SOLID_BREP('',#52);
#52=CLOSED_SHELL('',(#325,#334,#343,#352,#361,#370,#379,#388,#397));
#53=COLOUR_RGB('',0.156862745098039,0.156862745098039,0.156862745098039);
#54=FILL_AREA_STYLE_COLOUR('',#53);
#55=FILL_AREA_STYLE($,(#54));
#56=SURFACE_STYLE_FILL_AREA(#55);
#57=SURFACE_SIDE_STYLE('',(#56));
#58=SURFACE_STYLE_USAGE(.BOTH.,#57);
#59=PRESENTATION_STYLE_ASSIGNMENT((#58));
#60=STYLED_ITEM('',(#59),#51);
#61=MANIFOLD_SOLID_BREP('',#62);
#62=CLOSED_SHELL('',(#406,#415,#424,#433,#442,#451,#460,#469,#478));
#63=COLOUR_RGB('',0.156862745098039,0.156862745098039,0.156862745098039);
#64=FILL_AREA_STYLE_COLOUR('',#63);
#65=FILL_AREA_STYLE($,(#64));
#66=SURFACE_STYLE_FILL_AREA(#65);
#67=SURFACE_SIDE_STYLE('',(#66));
#68=SURFACE_STYLE_USAGE(.BOTH.,#67);
#69=PRESENTATION_STYLE_ASSIGNMENT((#68));
#70=STYLED_ITEM('',(#69),#61);
#71=ADVANCED_BREP_SHAPE_REPRESENTATION('NONE',(#40,#51,#61),#6);
#72=SHAPE_REPRESENTATION_RELATIONSHIP('','',#1,#71);
#73=ADVANCED_FACE('',(#487,#489),#491,.F.);
#74=COLOUR_RGB('',0.156862745098039,0.156862745098039,0.156862745098039);
#75=FILL_AREA_STYLE_COLOUR('',#74);
#76=FILL_AREA_STYLE($,(#75));
#77=SURFACE_STYLE_FILL_AREA(#76);
#78=SURFACE_SIDE_STYLE('',(#77));
#79=SURFACE_STYLE_USAGE(.BOTH.,#78);
#80=PRESENTATION_STYLE_ASSIGNMENT((#79));
#81=STYLED_ITEM('',(#80),#73);
#82=ADVANCED_FACE('',(#496,#498,#500),#502,.T.);
#83=COLOUR_RGB('',0.156862745098039,0.156862745098039,0.156862745098039);
#84=FILL_AREA_STYLE_COLOUR('',#83);
#85=FILL_AREA_STYLE($,(#84));
#86=SURFACE_STYLE_FILL_AREA(#85);
#87=SURFACE_SIDE_STYLE('',(#86));
#88=SURFACE_STYLE_USAGE(.BOTH.,#87);
#89=PRESENTATION_STYLE_ASSIGNMENT((#88));
#90=STYLED_ITEM('',(#89),#82);
#91=ADVANCED_FACE('',(#507,#509),#511,.T.);
#92=COLOUR_RGB('',0.156862745098039,0.156862745098039,0.156862745098039);
#93=FILL_AREA_STYLE_COLOUR('',#92);
#94=FILL_AREA_STYLE($,(#93));
#95=SURFACE_STYLE_FILL_AREA(#94);
#96=SURFACE_SIDE_STYLE('',(#95));
#97=SURFACE_STYLE_USAGE(.BOTH.,#96);
#98=PRESENTATION_STYLE_ASSIGNMENT((#97));
#99=STYLED_ITEM('',(#98),#91);
#100=ADVANCED_FACE('',(#516,#518),#520,.F.);
#101=COLOUR_RGB('',0.156862745098039,0.156862745098039,0.156862745098039);
#102=FILL_AREA_STYLE_COLOUR('',#101);
#103=FILL_AREA_STYLE($,(#102));
#104=SURFACE_STYLE_FILL_AREA(#103);
#105=SURFACE_SIDE_STYLE('',(#104));
#106=SURFACE_STYLE_USAGE(.BOTH.,#105);
#107=PRESENTATION_STYLE_ASSIGNMENT((#106));
#108=STYLED_ITEM('',(#107),#100);
#109=ADVANCED_FACE('',(#525,#527,#529),#531,.F.);
#110=COLOUR_RGB('',0.156862745098039,0.156862745098039,0.156862745098039);
#111=FILL_AREA_STYLE_COLOUR('',#110);
#112=FILL_AREA_STYLE($,(#111));
#113=SURFACE_STYLE_FILL_AREA(#112);
#114=SURFACE_SIDE_STYLE('',(#113));
#115=SURFACE_STYLE_USAGE(.BOTH.,#114);
#116=PRESENTATION_STYLE_ASSIGNMENT((#115));
#117=STYLED_ITEM('',(#116),#109);
#118=ADVANCED_FACE('',(#536),#538,.T.);
#119=COLOUR_RGB('',0.156862745098039,0.156862745098039,0.156862745098039);
#120=FILL_AREA_STYLE_COLOUR('',#119);
#121=FILL_AREA_STYLE($,(#120));
#122=SURFACE_STYLE_FILL_AREA(#121);
#123=SURFACE_SIDE_STYLE('',(#122));
#124=SURFACE_STYLE_USAGE(.BOTH.,#123);
#125=PRESENTATION_STYLE_ASSIGNMENT((#124));
#126=STYLED_ITEM('',(#125),#118);
#127=ADVANCED_FACE('',(#543),#545,.T.);
#128=COLOUR_RGB('',0.156862745098039,0.156862745098039,0.156862745098039);
#129=FILL_AREA_STYLE_COLOUR('',#128);
#130=FILL_AREA_STYLE($,(#129));
#131=SURFACE_STYLE_FILL_AREA(#130);
#132=SURFACE_SIDE_STYLE('',(#131));
#133=SURFACE_STYLE_USAGE(.BOTH.,#132);
#134=PRESENTATION_STYLE_ASSIGNMENT((#133));
#135=STYLED_ITEM('',(#134),#127);
#136=ADVANCED_FACE('',(#550),#552,.T.);
#137=COLOUR_RGB('',0.156862745098039,0.156862745098039,0.156862745098039);
#138=FILL_AREA_STYLE_COLOUR('',#137);
#139=FILL_AREA_STYLE($,(#138));
#140=SURFACE_STYLE_FILL_AREA(#139);
#141=SURFACE_SIDE_STYLE('',(#140));
#142=SURFACE_STYLE_USAGE(.BOTH.,#141);
#143=PRESENTATION_STYLE_ASSIGNMENT((#142));
#144=STYLED_ITEM('',(#143),#136);
#145=ADVANCED_FACE('',(#557),#559,.T.);
#146=COLOUR_RGB('',0.156862745098039,0.156862745098039,0.156862745098039);
#147=FILL_AREA_STYLE_COLOUR('',#146);
#148=FILL_AREA_STYLE($,(#147));
#149=SURFACE_STYLE_FILL_AREA(#148);
#150=SURFACE_SIDE_STYLE('',(#149));
#151=SURFACE_STYLE_USAGE(.BOTH.,#150);
#152=PRESENTATION_STYLE_ASSIGNMENT((#151));
#153=STYLED_ITEM('',(#152),#145);
#154=ADVANCED_FACE('',(#564),#566,.T.);
#155=COLOUR_RGB('',0.156862745098039,0.156862745098039,0.156862745098039);
#156=FILL_AREA_STYLE_COLOUR('',#155);
#157=FILL_AREA_STYLE($,(#156));
#158=SURFACE_STYLE_FILL_AREA(#157);
#159=SURFACE_SIDE_STYLE('',(#158));
#160=SURFACE_STYLE_USAGE(.BOTH.,#159);
#161=PRESENTATION_STYLE_ASSIGNMENT((#160));
#162=STYLED_ITEM('',(#161),#154);
#163=ADVANCED_FACE('',(#571),#573,.T.);
#164=COLOUR_RGB('',0.156862745098039,0.156862745098039,0.156862745098039);
#165=FILL_AREA_STYLE_COLOUR('',#164);
#166=FILL_AREA_STYLE($,(#165));
#167=SURFACE_STYLE_FILL_AREA(#166);
#168=SURFACE_SIDE_STYLE('',(#167));
#169=SURFACE_STYLE_USAGE(.BOTH.,#168);
#170=PRESENTATION_STYLE_ASSIGNMENT((#169));
#171=STYLED_ITEM('',(#170),#163);
#172=ADVANCED_FACE('',(#578),#580,.T.);
#173=COLOUR_RGB('',0.156862745098039,0.156862745098039,0.156862745098039);
#174=FILL_AREA_STYLE_COLOUR('',#173);
#175=FILL_AREA_STYLE($,(#174));
#176=SURFACE_STYLE_FILL_AREA(#175);
#177=SURFACE_SIDE_STYLE('',(#176));
#178=SURFACE_STYLE_USAGE(.BOTH.,#177);
#179=PRESENTATION_STYLE_ASSIGNMENT((#178));
#180=STYLED_ITEM('',(#179),#172);
#181=ADVANCED_FACE('',(#585),#587,.T.);
#182=COLOUR_RGB('',0.156862745098039,0.156862745098039,0.156862745098039);
#183=FILL_AREA_STYLE_COLOUR('',#182);
#184=FILL_AREA_STYLE($,(#183));
#185=SURFACE_STYLE_FILL_AREA(#184);
#186=SURFACE_SIDE_STYLE('',(#185));
#187=SURFACE_STYLE_USAGE(.BOTH.,#186);
#188=PRESENTATION_STYLE_ASSIGNMENT((#187));
#189=STYLED_ITEM('',(#188),#181);
#190=ADVANCED_FACE('',(#592),#594,.T.);
#191=COLOUR_RGB('',0.156862745098039,0.156862745098039,0.156862745098039);
#192=FILL_AREA_STYLE_COLOUR('',#191);
#193=FILL_AREA_STYLE($,(#192));
#194=SURFACE_STYLE_FILL_AREA(#193);
#195=SURFACE_SIDE_STYLE('',(#194));
#196=SURFACE_STYLE_USAGE(.BOTH.,#195);
#197=PRESENTATION_STYLE_ASSIGNMENT((#196));
#198=STYLED_ITEM('',(#197),#190);
#199=ADVANCED_FACE('',(#599),#601,.T.);
#200=COLOUR_RGB('',0.156862745098039,0.156862745098039,0.156862745098039);
#201=FILL_AREA_STYLE_COLOUR('',#200);
#202=FILL_AREA_STYLE($,(#201));
#203=SURFACE_STYLE_FILL_AREA(#202);
#204=SURFACE_SIDE_STYLE('',(#203));
#205=SURFACE_STYLE_USAGE(.BOTH.,#204);
#206=PRESENTATION_STYLE_ASSIGNMENT((#205));
#207=STYLED_ITEM('',(#206),#199);
#208=ADVANCED_FACE('',(#606),#608,.T.);
#209=COLOUR_RGB('',0.156862745098039,0.156862745098039,0.156862745098039);
#210=FILL_AREA_STYLE_COLOUR('',#209);
#211=FILL_AREA_STYLE($,(#210));
#212=SURFACE_STYLE_FILL_AREA(#211);
#213=SURFACE_SIDE_STYLE('',(#212));
#214=SURFACE_STYLE_USAGE(.BOTH.,#213);
#215=PRESENTATION_STYLE_ASSIGNMENT((#214));
#216=STYLED_ITEM('',(#215),#208);
#217=ADVANCED_FACE('',(#613),#615,.T.);
#218=COLOUR_RGB('',0.156862745098039,0.156862745098039,0.156862745098039);
#219=FILL_AREA_STYLE_COLOUR('',#218);
#220=FILL_AREA_STYLE($,(#219));
#221=SURFACE_STYLE_FILL_AREA(#220);
#222=SURFACE_SIDE_STYLE('',(#221));
#223=SURFACE_STYLE_USAGE(.BOTH.,#222);
#224=PRESENTATION_STYLE_ASSIGNMENT((#223));
#225=STYLED_ITEM('',(#224),#217);
#226=ADVANCED_FACE('',(#620),#622,.T.);
#227=COLOUR_RGB('',0.156862745098039,0.156862745098039,0.156862745098039);
#228=FILL_AREA_STYLE_COLOUR('',#227);
#229=FILL_AREA_STYLE($,(#228));
#230=SURFACE_STYLE_FILL_AREA(#229);
#231=SURFACE_SIDE_STYLE('',(#230));
#232=SURFACE_STYLE_USAGE(.BOTH.,#231);
#233=PRESENTATION_STYLE_ASSIGNMENT((#232));
#234=STYLED_ITEM('',(#233),#226);
#235=ADVANCED_FACE('',(#627),#629,.T.);
#236=COLOUR_RGB('',0.156862745098039,0.156862745098039,0.156862745098039);
#237=FILL_AREA_STYLE_COLOUR('',#236);
#238=FILL_AREA_STYLE($,(#237));
#239=SURFACE_STYLE_FILL_AREA(#238);
#240=SURFACE_SIDE_STYLE('',(#239));
#241=SURFACE_STYLE_USAGE(.BOTH.,#240);
#242=PRESENTATION_STYLE_ASSIGNMENT((#241));
#243=STYLED_ITEM('',(#242),#235);
#244=ADVANCED_FACE('',(#634),#636,.T.);
#245=COLOUR_RGB('',0.156862745098039,0.156862745098039,0.156862745098039);
#246=FILL_AREA_STYLE_COLOUR('',#245);
#247=FILL_AREA_STYLE($,(#246));
#248=SURFACE_STYLE_FILL_AREA(#247);
#249=SURFACE_SIDE_STYLE('',(#248));
#250=SURFACE_STYLE_USAGE(.BOTH.,#249);
#251=PRESENTATION_STYLE_ASSIGNMENT((#250));
#252=STYLED_ITEM('',(#251),#244);
#253=ADVANCED_FACE('',(#641),#643,.T.);
#254=COLOUR_RGB('',0.156862745098039,0.156862745098039,0.156862745098039);
#255=FILL_AREA_STYLE_COLOUR('',#254);
#256=FILL_AREA_STYLE($,(#255));
#257=SURFACE_STYLE_FILL_AREA(#256);
#258=SURFACE_SIDE_STYLE('',(#257));
#259=SURFACE_STYLE_USAGE(.BOTH.,#258);
#260=PRESENTATION_STYLE_ASSIGNMENT((#259));
#261=STYLED_ITEM('',(#260),#253);
#262=ADVANCED_FACE('',(#648),#650,.T.);
#263=COLOUR_RGB('',0.156862745098039,0.156862745098039,0.156862745098039);
#264=FILL_AREA_STYLE_COLOUR('',#263);
#265=FILL_AREA_STYLE($,(#264));
#266=SURFACE_STYLE_FILL_AREA(#265);
#267=SURFACE_SIDE_STYLE('',(#266));
#268=SURFACE_STYLE_USAGE(.BOTH.,#267);
#269=PRESENTATION_STYLE_ASSIGNMENT((#268));
#270=STYLED_ITEM('',(#269),#262);
#271=ADVANCED_FACE('',(#655),#657,.T.);
#272=COLOUR_RGB('',0.156862745098039,0.156862745098039,0.156862745098039);
#273=FILL_AREA_STYLE_COLOUR('',#272);
#274=FILL_AREA_STYLE($,(#273));
#275=SURFACE_STYLE_FILL_AREA(#274);
#276=SURFACE_SIDE_STYLE('',(#275));
#277=SURFACE_STYLE_USAGE(.BOTH.,#276);
#278=PRESENTATION_STYLE_ASSIGNMENT((#277));
#279=STYLED_ITEM('',(#278),#271);
#280=ADVANCED_FACE('',(#662),#664,.T.);
#281=COLOUR_RGB('',0.156862745098039,0.156862745098039,0.156862745098039);
#282=FILL_AREA_STYLE_COLOUR('',#281);
#283=FILL_AREA_STYLE($,(#282));
#284=SURFACE_STYLE_FILL_AREA(#283);
#285=SURFACE_SIDE_STYLE('',(#284));
#286=SURFACE_STYLE_USAGE(.BOTH.,#285);
#287=PRESENTATION_STYLE_ASSIGNMENT((#286));
#288=STYLED_ITEM('',(#287),#280);
#289=ADVANCED_FACE('',(#669),#671,.T.);
#290=COLOUR_RGB('',0.156862745098039,0.156862745098039,0.156862745098039);
#291=FILL_AREA_STYLE_COLOUR('',#290);
#292=FILL_AREA_STYLE($,(#291));
#293=SURFACE_STYLE_FILL_AREA(#292);
#294=SURFACE_SIDE_STYLE('',(#293));
#295=SURFACE_STYLE_USAGE(.BOTH.,#294);
#296=PRESENTATION_STYLE_ASSIGNMENT((#295));
#297=STYLED_ITEM('',(#296),#289);
#298=ADVANCED_FACE('',(#676,#678),#680,.F.);
#299=COLOUR_RGB('',0.156862745098039,0.156862745098039,0.156862745098039);
#300=FILL_AREA_STYLE_COLOUR('',#299);
#301=FILL_AREA_STYLE($,(#300));
#302=SURFACE_STYLE_FILL_AREA(#301);
#303=SURFACE_SIDE_STYLE('',(#302));
#304=SURFACE_STYLE_USAGE(.BOTH.,#303);
#305=PRESENTATION_STYLE_ASSIGNMENT((#304));
#306=STYLED_ITEM('',(#305),#298);
#307=ADVANCED_FACE('',(#685,#687),#689,.F.);
#308=COLOUR_RGB('',0.156862745098039,0.156862745098039,0.156862745098039);
#309=FILL_AREA_STYLE_COLOUR('',#308);
#310=FILL_AREA_STYLE($,(#309));
#311=SURFACE_STYLE_FILL_AREA(#310);
#312=SURFACE_SIDE_STYLE('',(#311));
#313=SURFACE_STYLE_USAGE(.BOTH.,#312);
#314=PRESENTATION_STYLE_ASSIGNMENT((#313));
#315=STYLED_ITEM('',(#314),#307);
#316=ADVANCED_FACE('',(#694,#696),#698,.T.);
#317=COLOUR_RGB('',0.156862745098039,0.156862745098039,0.156862745098039);
#318=FILL_AREA_STYLE_COLOUR('',#317);
#319=FILL_AREA_STYLE($,(#318));
#320=SURFACE_STYLE_FILL_AREA(#319);
#321=SURFACE_SIDE_STYLE('',(#320));
#322=SURFACE_STYLE_USAGE(.BOTH.,#321);
#323=PRESENTATION_STYLE_ASSIGNMENT((#322));
#324=STYLED_ITEM('',(#323),#316);
#325=ADVANCED_FACE('',(#703),#705,.T.);
#326=COLOUR_RGB('',0.968627450980392,0.87843137254902,0.6);
#327=FILL_AREA_STYLE_COLOUR('',#326);
#328=FILL_AREA_STYLE($,(#327));
#329=SURFACE_STYLE_FILL_AREA(#328);
#330=SURFACE_SIDE_STYLE('',(#329));
#331=SURFACE_STYLE_USAGE(.BOTH.,#330);
#332=PRESENTATION_STYLE_ASSIGNMENT((#331));
#333=STYLED_ITEM('',(#332),#325);
#334=ADVANCED_FACE('',(#710,#712),#714,.T.);
#335=COLOUR_RGB('',0.968627450980392,0.87843137254902,0.6);
#336=FILL_AREA_STYLE_COLOUR('',#335);
#337=FILL_AREA_STYLE($,(#336));
#338=SURFACE_STYLE_FILL_AREA(#337);
#339=SURFACE_SIDE_STYLE('',(#338));
#340=SURFACE_STYLE_USAGE(.BOTH.,#339);
#341=PRESENTATION_STYLE_ASSIGNMENT((#340));
#342=STYLED_ITEM('',(#341),#334);
#343=ADVANCED_FACE('',(#719,#721),#723,.T.);
#344=COLOUR_RGB('',0.968627450980392,0.87843137254902,0.6);
#345=FILL_AREA_STYLE_COLOUR('',#344);
#346=FILL_AREA_STYLE($,(#345));
#347=SURFACE_STYLE_FILL_AREA(#346);
#348=SURFACE_SIDE_STYLE('',(#347));
#349=SURFACE_STYLE_USAGE(.BOTH.,#348);
#350=PRESENTATION_STYLE_ASSIGNMENT((#349));
#351=STYLED_ITEM('',(#350),#343);
#352=ADVANCED_FACE('',(#728,#730),#732,.T.);
#353=COLOUR_RGB('',0.968627450980392,0.87843137254902,0.6);
#354=FILL_AREA_STYLE_COLOUR('',#353);
#355=FILL_AREA_STYLE($,(#354));
#356=SURFACE_STYLE_FILL_AREA(#355);
#357=SURFACE_SIDE_STYLE('',(#356));
#358=SURFACE_STYLE_USAGE(.BOTH.,#357);
#359=PRESENTATION_STYLE_ASSIGNMENT((#358));
#360=STYLED_ITEM('',(#359),#352);
#361=ADVANCED_FACE('',(#737,#739),#741,.T.);
#362=COLOUR_RGB('',0.968627450980392,0.87843137254902,0.6);
#363=FILL_AREA_STYLE_COLOUR('',#362);
#364=FILL_AREA_STYLE($,(#363));
#365=SURFACE_STYLE_FILL_AREA(#364);
#366=SURFACE_SIDE_STYLE('',(#365));
#367=SURFACE_STYLE_USAGE(.BOTH.,#366);
#368=PRESENTATION_STYLE_ASSIGNMENT((#367));
#369=STYLED_ITEM('',(#368),#361);
#370=ADVANCED_FACE('',(#746,#748),#750,.T.);
#371=COLOUR_RGB('',0.968627450980392,0.87843137254902,0.6);
#372=FILL_AREA_STYLE_COLOUR('',#371);
#373=FILL_AREA_STYLE($,(#372));
#374=SURFACE_STYLE_FILL_AREA(#373);
#375=SURFACE_SIDE_STYLE('',(#374));
#376=SURFACE_STYLE_USAGE(.BOTH.,#375);
#377=PRESENTATION_STYLE_ASSIGNMENT((#376));
#378=STYLED_ITEM('',(#377),#370);
#379=ADVANCED_FACE('',(#755,#757),#759,.T.);
#380=COLOUR_RGB('',0.968627450980392,0.87843137254902,0.6);
#381=FILL_AREA_STYLE_COLOUR('',#380);
#382=FILL_AREA_STYLE($,(#381));
#383=SURFACE_STYLE_FILL_AREA(#382);
#384=SURFACE_SIDE_STYLE('',(#383));
#385=SURFACE_STYLE_USAGE(.BOTH.,#384);
#386=PRESENTATION_STYLE_ASSIGNMENT((#385));
#387=STYLED_ITEM('',(#386),#379);
#388=ADVANCED_FACE('',(#764,#766),#768,.T.);
#389=COLOUR_RGB('',0.968627450980392,0.87843137254902,0.6);
#390=FILL_AREA_STYLE_COLOUR('',#389);
#391=FILL_AREA_STYLE($,(#390));
#392=SURFACE_STYLE_FILL_AREA(#391);
#393=SURFACE_SIDE_STYLE('',(#392));
#394=SURFACE_STYLE_USAGE(.BOTH.,#393);
#395=PRESENTATION_STYLE_ASSIGNMENT((#394));
#396=STYLED_ITEM('',(#395),#388);
#397=ADVANCED_FACE('',(#773),#775,.T.);
#398=COLOUR_RGB('',0.968627450980392,0.87843137254902,0.6);
#399=FILL_AREA_STYLE_COLOUR('',#398);
#400=FILL_AREA_STYLE($,(#399));
#401=SURFACE_STYLE_FILL_AREA(#400);
#402=SURFACE_SIDE_STYLE('',(#401));
#403=SURFACE_STYLE_USAGE(.BOTH.,#402);
#404=PRESENTATION_STYLE_ASSIGNMENT((#403));
#405=STYLED_ITEM('',(#404),#397);
#406=ADVANCED_FACE('',(#780),#782,.T.);
#407=COLOUR_RGB('',0.968627450980392,0.87843137254902,0.6);
#408=FILL_AREA_STYLE_COLOUR('',#407);
#409=FILL_AREA_STYLE($,(#408));
#410=SURFACE_STYLE_FILL_AREA(#409);
#411=SURFACE_SIDE_STYLE('',(#410));
#412=SURFACE_STYLE_USAGE(.BOTH.,#411);
#413=PRESENTATION_STYLE_ASSIGNMENT((#412));
#414=STYLED_ITEM('',(#413),#406);
#415=ADVANCED_FACE('',(#787,#789),#791,.T.);
#416=COLOUR_RGB('',0.968627450980392,0.87843137254902,0.6);
#417=FILL_AREA_STYLE_COLOUR('',#416);
#418=FILL_AREA_STYLE($,(#417));
#419=SURFACE_STYLE_FILL_AREA(#418);
#420=SURFACE_SIDE_STYLE('',(#419));
#421=SURFACE_STYLE_USAGE(.BOTH.,#420);
#422=PRESENTATION_STYLE_ASSIGNMENT((#421));
#423=STYLED_ITEM('',(#422),#415);
#424=ADVANCED_FACE('',(#796,#798),#800,.T.);
#425=COLOUR_RGB('',0.968627450980392,0.87843137254902,0.6);
#426=FILL_AREA_STYLE_COLOUR('',#425);
#427=FILL_AREA_STYLE($,(#426));
#428=SURFACE_STYLE_FILL_AREA(#427);
#429=SURFACE_SIDE_STYLE('',(#428));
#430=SURFACE_STYLE_USAGE(.BOTH.,#429);
#431=PRESENTATION_STYLE_ASSIGNMENT((#430));
#432=STYLED_ITEM('',(#431),#424);
#433=ADVANCED_FACE('',(#805,#807),#809,.T.);
#434=COLOUR_RGB('',0.968627450980392,0.87843137254902,0.6);
#435=FILL_AREA_STYLE_COLOUR('',#434);
#436=FILL_AREA_STYLE($,(#435));
#437=SURFACE_STYLE_FILL_AREA(#436);
#438=SURFACE_SIDE_STYLE('',(#437));
#439=SURFACE_STYLE_USAGE(.BOTH.,#438);
#440=PRESENTATION_STYLE_ASSIGNMENT((#439));
#441=STYLED_ITEM('',(#440),#433);
#442=ADVANCED_FACE('',(#814,#816),#818,.T.);
#443=COLOUR_RGB('',0.968627450980392,0.87843137254902,0.6);
#444=FILL_AREA_STYLE_COLOUR('',#443);
#445=FILL_AREA_STYLE($,(#444));
#446=SURFACE_STYLE_FILL_AREA(#445);
#447=SURFACE_SIDE_STYLE('',(#446));
#448=SURFACE_STYLE_USAGE(.BOTH.,#447);
#449=PRESENTATION_STYLE_ASSIGNMENT((#448));
#450=STYLED_ITEM('',(#449),#442);
#451=ADVANCED_FACE('',(#823,#825),#827,.T.);
#452=COLOUR_RGB('',0.968627450980392,0.87843137254902,0.6);
#453=FILL_AREA_STYLE_COLOUR('',#452);
#454=FILL_AREA_STYLE($,(#453));
#455=SURFACE_STYLE_FILL_AREA(#454);
#456=SURFACE_SIDE_STYLE('',(#455));
#457=SURFACE_STYLE_USAGE(.BOTH.,#456);
#458=PRESENTATION_STYLE_ASSIGNMENT((#457));
#459=STYLED_ITEM('',(#458),#451);
#460=ADVANCED_FACE('',(#832,#834),#836,.T.);
#461=COLOUR_RGB('',0.968627450980392,0.87843137254902,0.6);
#462=FILL_AREA_STYLE_COLOUR('',#461);
#463=FILL_AREA_STYLE($,(#462));
#464=SURFACE_STYLE_FILL_AREA(#463);
#465=SURFACE_SIDE_STYLE('',(#464));
#466=SURFACE_STYLE_USAGE(.BOTH.,#465);
#467=PRESENTATION_STYLE_ASSIGNMENT((#466));
#468=STYLED_ITEM('',(#467),#460);
#469=ADVANCED_FACE('',(#841,#843),#845,.T.);
#470=COLOUR_RGB('',0.968627450980392,0.87843137254902,0.6);
#471=FILL_AREA_STYLE_COLOUR('',#470);
#472=FILL_AREA_STYLE($,(#471));
#473=SURFACE_STYLE_FILL_AREA(#472);
#474=SURFACE_SIDE_STYLE('',(#473));
#475=SURFACE_STYLE_USAGE(.BOTH.,#474);
#476=PRESENTATION_STYLE_ASSIGNMENT((#475));
#477=STYLED_ITEM('',(#476),#469);
#478=ADVANCED_FACE('',(#850),#852,.T.);
#479=COLOUR_RGB('',0.968627450980392,0.87843137254902,0.6);
#480=FILL_AREA_STYLE_COLOUR('',#479);
#481=FILL_AREA_STYLE($,(#480));
#482=SURFACE_STYLE_FILL_AREA(#481);
#483=SURFACE_SIDE_STYLE('',(#482));
#484=SURFACE_STYLE_USAGE(.BOTH.,#483);
#485=PRESENTATION_STYLE_ASSIGNMENT((#484));
#486=STYLED_ITEM('',(#485),#478);
#487=FACE_OUTER_BOUND('',#488,.T.);
#488=EDGE_LOOP('',(#857));
#489=FACE_OUTER_BOUND('',#490,.T.);
#490=EDGE_LOOP('',(#858));
#491=CYLINDRICAL_SURFACE('',#492,0.66);
#492=AXIS2_PLACEMENT_3D('',#493,#494,#495);
#493=CARTESIAN_POINT('',(2.54,0.,1.5));
#494=DIRECTION('',(0.,0.,1.));
#495=DIRECTION('',(1.,0.,0.));
#496=FACE_BOUND('',#497,.T.);
#497=EDGE_LOOP('',(#859,#860,#861,#862,#863,#864,#865,#866,#867,#868,#869,#870,#871,
#872,#873,#874,#875,#876,#877,#878));
#498=FACE_BOUND('',#499,.T.);
#499=EDGE_LOOP('',(#879));
#500=FACE_BOUND('',#501,.T.);
#501=EDGE_LOOP('',(#880));
#502=PLANE('',#503);
#503=AXIS2_PLACEMENT_3D('',#504,#505,#506);
#504=CARTESIAN_POINT('',(0.,0.,4.5));
#505=DIRECTION('',(0.,0.,1.));
#506=DIRECTION('',(1.,0.,0.));
#507=FACE_BOUND('',#508,.T.);
#508=EDGE_LOOP('',(#881));
#509=FACE_BOUND('',#510,.T.);
#510=EDGE_LOOP('',(#882));
#511=PLANE('',#512);
#512=AXIS2_PLACEMENT_3D('',#513,#514,#515);
#513=CARTESIAN_POINT('',(2.54,0.,4.));
#514=DIRECTION('',(0.,0.,1.));
#515=DIRECTION('',(1.,0.,0.));
#516=FACE_OUTER_BOUND('',#517,.T.);
#517=EDGE_LOOP('',(#883));
#518=FACE_OUTER_BOUND('',#519,.T.);
#519=EDGE_LOOP('',(#884));
#520=CYLINDRICAL_SURFACE('',#521,0.9);
#521=AXIS2_PLACEMENT_3D('',#522,#523,#524);
#522=CARTESIAN_POINT('',(2.54,0.,4.));
#523=DIRECTION('',(0.,0.,1.));
#524=DIRECTION('',(1.,0.,0.));
#525=FACE_BOUND('',#526,.T.);
#526=EDGE_LOOP('',(#885,#886,#887,#888,#889,#890,#891,#892,#893,#894,#895,#896,#897,
#898,#899,#900,#901,#902,#903,#904));
#527=FACE_BOUND('',#528,.T.);
#528=EDGE_LOOP('',(#905));
#529=FACE_BOUND('',#530,.T.);
#530=EDGE_LOOP('',(#906));
#531=PLANE('',#532);
#532=AXIS2_PLACEMENT_3D('',#533,#534,#535);
#533=CARTESIAN_POINT('',(0.,0.,1.5));
#534=DIRECTION('',(0.,0.,1.));
#535=DIRECTION('',(1.,0.,0.));
#536=FACE_BOUND('',#537,.T.);
#537=EDGE_LOOP('',(#907,#908,#909,#910));
#538=PLANE('',#539);
#539=AXIS2_PLACEMENT_3D('',#540,#541,#542);
#540=CARTESIAN_POINT('',(-1.27,-0.75,1.5));
#541=DIRECTION('',(0.,-1.,0.));
#542=DIRECTION('',(1.,0.,0.));
#543=FACE_BOUND('',#544,.T.);
#544=EDGE_LOOP('',(#911,#912,#913,#914));
#545=PLANE('',#546);
#546=AXIS2_PLACEMENT_3D('',#547,#548,#549);
#547=CARTESIAN_POINT('',(-1.12,-0.75,1.5));
#548=DIRECTION('',(-0.866025403784438,-0.5,0.));
#549=DIRECTION('',(0.5,-0.866025403784438,0.));
#550=FACE_BOUND('',#551,.T.);
#551=EDGE_LOOP('',(#915,#916,#917,#918));
#552=PLANE('',#553);
#553=AXIS2_PLACEMENT_3D('',#554,#555,#556);
#554=CARTESIAN_POINT('',(-0.819777860021394,-1.27,1.5));
#555=DIRECTION('',(0.,-1.,0.));
#556=DIRECTION('',(1.,0.,0.));
#557=FACE_BOUND('',#558,.T.);
#558=EDGE_LOOP('',(#919,#920,#921,#922));
#559=PLANE('',#560);
#560=AXIS2_PLACEMENT_3D('',#561,#562,#563);
#561=CARTESIAN_POINT('',(0.819777860021395,-1.27,1.5));
#562=DIRECTION('',(0.866025403784439,-0.5,0.));
#563=DIRECTION('',(0.5,0.866025403784439,0.));
#564=FACE_BOUND('',#565,.T.);
#565=EDGE_LOOP('',(#923,#924,#925,#926));
#566=PLANE('',#567);
#567=AXIS2_PLACEMENT_3D('',#568,#569,#570);
#568=CARTESIAN_POINT('',(1.12,-0.75,1.5));
#569=DIRECTION('',(0.,-1.,0.));
#570=DIRECTION('',(1.,0.,0.));
#571=FACE_BOUND('',#572,.T.);
#572=EDGE_LOOP('',(#927,#928,#929,#930));
#573=PLANE('',#574);
#574=AXIS2_PLACEMENT_3D('',#575,#576,#577);
#575=CARTESIAN_POINT('',(1.42,-0.75,1.5));
#576=DIRECTION('',(-0.866025403784438,-0.5,0.));
#577=DIRECTION('',(0.5,-0.866025403784438,0.));
#578=FACE_BOUND('',#579,.T.);
#579=EDGE_LOOP('',(#931,#932,#933,#934));
#580=PLANE('',#581);
#581=AXIS2_PLACEMENT_3D('',#582,#583,#584);
#582=CARTESIAN_POINT('',(1.72022213997861,-1.27,1.5));
#583=DIRECTION('',(0.,-1.,0.));
#584=DIRECTION('',(1.,0.,0.));
#585=FACE_BOUND('',#586,.T.);
#586=EDGE_LOOP('',(#935,#936,#937,#938));
#587=PLANE('',#588);
#588=AXIS2_PLACEMENT_3D('',#589,#590,#591);
#589=CARTESIAN_POINT('',(3.35977786002139,-1.27,1.5));
#590=DIRECTION('',(0.866025403784439,-0.5,0.));
#591=DIRECTION('',(0.5,0.866025403784439,0.));
#592=FACE_BOUND('',#593,.T.);
#593=EDGE_LOOP('',(#939,#940,#941,#942));
#594=PLANE('',#595);
#595=AXIS2_PLACEMENT_3D('',#596,#597,#598);
#596=CARTESIAN_POINT('',(3.66,-0.75,1.5));
#597=DIRECTION('',(0.,-1.,0.));
#598=DIRECTION('',(1.,0.,0.));
#599=FACE_BOUND('',#600,.T.);
#600=EDGE_LOOP('',(#943,#944,#945,#946));
#601=PLANE('',#602);
#602=AXIS2_PLACEMENT_3D('',#603,#604,#605);
#603=CARTESIAN_POINT('',(3.81,-0.75,1.5));
#604=DIRECTION('',(1.,0.,0.));
#605=DIRECTION('',(0.,1.,0.));
#606=FACE_BOUND('',#607,.T.);
#607=EDGE_LOOP('',(#947,#948,#949,#950));
#608=PLANE('',#609);
#609=AXIS2_PLACEMENT_3D('',#610,#611,#612);
#610=CARTESIAN_POINT('',(3.81,0.75,1.5));
#611=DIRECTION('',(0.,1.,-0.));
#612=DIRECTION('',(-1.,0.,0.));
#613=FACE_BOUND('',#614,.T.);
#614=EDGE_LOOP('',(#951,#952,#953,#954));
#615=PLANE('',#616);
#616=AXIS2_PLACEMENT_3D('',#617,#618,#619);
#617=CARTESIAN_POINT('',(3.66,0.75,1.5));
#618=DIRECTION('',(0.866025403784438,0.5,-0.));
#619=DIRECTION('',(-0.5,0.866025403784438,0.));
#620=FACE_BOUND('',#621,.T.);
#621=EDGE_LOOP('',(#955,#956,#957,#958));
#622=PLANE('',#623);
#623=AXIS2_PLACEMENT_3D('',#624,#625,#626);
#624=CARTESIAN_POINT('',(3.35977786002139,1.27,1.5));
#625=DIRECTION('',(0.,1.,-0.));
#626=DIRECTION('',(-1.,0.,0.));
#627=FACE_BOUND('',#628,.T.);
#628=EDGE_LOOP('',(#959,#960,#961,#962));
#629=PLANE('',#630);
#630=AXIS2_PLACEMENT_3D('',#631,#632,#633);
#631=CARTESIAN_POINT('',(1.72022213997861,1.27,1.5));
#632=DIRECTION('',(-0.866025403784439,0.5,0.));
#633=DIRECTION('',(-0.5,-0.866025403784439,0.));
#634=FACE_BOUND('',#635,.T.);
#635=EDGE_LOOP('',(#963,#964,#965,#966));
#636=PLANE('',#637);
#637=AXIS2_PLACEMENT_3D('',#638,#639,#640);
#638=CARTESIAN_POINT('',(1.27,0.75,1.5));
#639=DIRECTION('',(0.,1.,-0.));
#640=DIRECTION('',(-1.,0.,0.));
#641=FACE_BOUND('',#642,.T.);
#642=EDGE_LOOP('',(#967,#968,#969,#970));
#643=PLANE('',#644);
#644=AXIS2_PLACEMENT_3D('',#645,#646,#647);
#645=CARTESIAN_POINT('',(1.12,0.75,1.5));
#646=DIRECTION('',(0.866025403784438,0.5,-0.));
#647=DIRECTION('',(-0.5,0.866025403784438,0.));
#648=FACE_BOUND('',#649,.T.);
#649=EDGE_LOOP('',(#971,#972,#973,#974));
#650=PLANE('',#651);
#651=AXIS2_PLACEMENT_3D('',#652,#653,#654);
#652=CARTESIAN_POINT('',(0.819777860021394,1.27,1.5));
#653=DIRECTION('',(0.,1.,-0.));
#654=DIRECTION('',(-1.,0.,0.));
#655=FACE_BOUND('',#656,.T.);
#656=EDGE_LOOP('',(#975,#976,#977,#978));
#657=PLANE('',#658);
#658=AXIS2_PLACEMENT_3D('',#659,#660,#661);
#659=CARTESIAN_POINT('',(-0.819777860021395,1.27,1.5));
#660=DIRECTION('',(-0.866025403784439,0.5,0.));
#661=DIRECTION('',(-0.5,-0.866025403784439,0.));
#662=FACE_BOUND('',#663,.T.);
#663=EDGE_LOOP('',(#979,#980,#981,#982));
#664=PLANE('',#665);
#665=AXIS2_PLACEMENT_3D('',#666,#667,#668);
#666=CARTESIAN_POINT('',(-1.12,0.75,1.5));
#667=DIRECTION('',(0.,1.,-0.));
#668=DIRECTION('',(-1.,0.,0.));
#669=FACE_BOUND('',#670,.T.);
#670=EDGE_LOOP('',(#983,#984,#985,#986));
#671=PLANE('',#672);
#672=AXIS2_PLACEMENT_3D('',#673,#674,#675);
#673=CARTESIAN_POINT('',(-1.27,0.75,1.5));
#674=DIRECTION('',(-1.,0.,0.));
#675=DIRECTION('',(0.,-1.,0.));
#676=FACE_OUTER_BOUND('',#677,.T.);
#677=EDGE_LOOP('',(#987));
#678=FACE_OUTER_BOUND('',#679,.T.);
#679=EDGE_LOOP('',(#988));
#680=CYLINDRICAL_SURFACE('',#681,0.9);
#681=AXIS2_PLACEMENT_3D('',#682,#683,#684);
#682=CARTESIAN_POINT('',(0.,0.,4.));
#683=DIRECTION('',(0.,0.,1.));
#684=DIRECTION('',(1.,0.,0.));
#685=FACE_OUTER_BOUND('',#686,.T.);
#686=EDGE_LOOP('',(#989));
#687=FACE_OUTER_BOUND('',#688,.T.);
#688=EDGE_LOOP('',(#990));
#689=CYLINDRICAL_SURFACE('',#690,0.66);
#690=AXIS2_PLACEMENT_3D('',#691,#692,#693);
#691=CARTESIAN_POINT('',(0.,0.,1.5));
#692=DIRECTION('',(0.,0.,1.));
#693=DIRECTION('',(1.,0.,0.));
#694=FACE_BOUND('',#695,.T.);
#695=EDGE_LOOP('',(#991));
#696=FACE_BOUND('',#697,.T.);
#697=EDGE_LOOP('',(#992));
#698=PLANE('',#699);
#699=AXIS2_PLACEMENT_3D('',#700,#701,#702);
#700=CARTESIAN_POINT('',(0.,0.,4.));
#701=DIRECTION('',(0.,0.,1.));
#702=DIRECTION('',(1.,0.,0.));
#703=FACE_OUTER_BOUND('',#704,.T.);
#704=EDGE_LOOP('',(#993));
#705=SPHERICAL_SURFACE('',#706,0.3);
#706=AXIS2_PLACEMENT_3D('',#707,#708,#709);
#707=CARTESIAN_POINT('',(-4.71489017671731E-016,-4.71489017671731E-016,7.7));
#708=DIRECTION('',(-6.12323399573677E-017,-6.12323399573677E-017,1.));
#709=DIRECTION('',(-1.,-1.22464679914736E-016,-6.12323399573677E-017));
#710=FACE_OUTER_BOUND('',#711,.T.);
#711=EDGE_LOOP('',(#994));
#712=FACE_OUTER_BOUND('',#713,.T.);
#713=EDGE_LOOP('',(#995));
#714=CYLINDRICAL_SURFACE('',#715,0.3);
#715=AXIS2_PLACEMENT_3D('',#716,#717,#718);
#716=CARTESIAN_POINT('',(-3.06161699786838E-016,-3.06161699786838E-016,5.));
#717=DIRECTION('',(-6.12323399573677E-017,-6.12323399573677E-017,1.));
#718=DIRECTION('',(-1.,-1.22464679914735E-016,-6.12323399573677E-017));
#719=FACE_BOUND('',#720,.T.);
#720=EDGE_LOOP('',(#996));
#721=FACE_BOUND('',#722,.T.);
#722=EDGE_LOOP('',(#997));
#723=PLANE('',#724);
#724=AXIS2_PLACEMENT_3D('',#725,#726,#727);
#725=CARTESIAN_POINT('',(-3.06161699786838E-016,-3.06161699786838E-016,5.));
#726=DIRECTION('',(-6.12323399573677E-017,-6.12323399573677E-017,1.));
#727=DIRECTION('',(-1.,-1.22464679914735E-016,-6.12323399573677E-017));
#728=FACE_OUTER_BOUND('',#729,.T.);
#729=EDGE_LOOP('',(#998));
#730=FACE_OUTER_BOUND('',#731,.T.);
#731=EDGE_LOOP('',(#999));
#732=CYLINDRICAL_SURFACE('',#733,0.9);
#733=AXIS2_PLACEMENT_3D('',#734,#735,#736);
#734=CARTESIAN_POINT('',(-2.44929359829471E-016,-2.44929359829471E-016,4.));
#735=DIRECTION('',(-6.12323399573677E-017,-6.12323399573677E-017,1.));
#736=DIRECTION('',(-1.,-1.22464679914735E-016,-6.12323399573677E-017));
#737=FACE_BOUND('',#738,.T.);
#738=EDGE_LOOP('',(#1000));
#739=FACE_BOUND('',#740,.T.);
#740=EDGE_LOOP('',(#1001));
#741=PLANE('',#742);
#742=AXIS2_PLACEMENT_3D('',#743,#744,#745);
#743=CARTESIAN_POINT('',(-2.44929359829471E-016,-2.44929359829471E-016,4.));
#744=DIRECTION('',(6.12323399573677E-017,6.12323399573677E-017,-1.));
#745=DIRECTION('',(-1.,-1.22464679914735E-016,-6.12323399573677E-017));
#746=FACE_OUTER_BOUND('',#747,.T.);
#747=EDGE_LOOP('',(#1002));
#748=FACE_OUTER_BOUND('',#749,.T.);
#749=EDGE_LOOP('',(#1003));
#750=CYLINDRICAL_SURFACE('',#751,0.66);
#751=AXIS2_PLACEMENT_3D('',#752,#753,#754);
#752=CARTESIAN_POINT('',(-2.63299061816681E-017,-2.63299061816681E-017,0.43));
#753=DIRECTION('',(-6.12323399573677E-017,-6.12323399573677E-017,1.));
#754=DIRECTION('',(-1.,-1.22464679914735E-016,-6.12323399573677E-017));
#755=FACE_OUTER_BOUND('',#756,.T.);
#756=EDGE_LOOP('',(#1004));
#757=FACE_OUTER_BOUND('',#758,.T.);
#758=EDGE_LOOP('',(#1005));
#759=CONICAL_SURFACE('',#760,0.445,0.785398163397448);
#760=AXIS2_PLACEMENT_3D('',#761,#762,#763);
#761=CARTESIAN_POINT('',(-1.3164953090834E-017,-1.3164953090834E-017,0.215));
#762=DIRECTION('',(-6.12323399573677E-017,-6.12323399573677E-017,1.));
#763=DIRECTION('',(-1.,-1.22464679914735E-016,-6.12323399573677E-017));
#764=FACE_OUTER_BOUND('',#765,.T.);
#765=EDGE_LOOP('',(#1006));
#766=FACE_OUTER_BOUND('',#767,.T.);
#767=EDGE_LOOP('',(#1007));
#768=CYLINDRICAL_SURFACE('',#769,0.23);
#769=AXIS2_PLACEMENT_3D('',#770,#771,#772);
#770=CARTESIAN_POINT('',(2.11863896252492E-016,2.11863896252492E-016,-3.46));
#771=DIRECTION('',(-6.12323399573677E-017,-6.12323399573677E-017,1.));
#772=DIRECTION('',(-1.,-1.22464679914735E-016,-6.12323399573675E-017));
#773=FACE_OUTER_BOUND('',#774,.T.);
#774=EDGE_LOOP('',(#1008));
#775=SPHERICAL_SURFACE('',#776,0.23);
#776=AXIS2_PLACEMENT_3D('',#777,#778,#779);
#777=CARTESIAN_POINT('',(2.11863896252492E-016,2.11863896252492E-016,-3.46));
#778=DIRECTION('',(-6.12323399573677E-017,-6.12323399573677E-017,1.));
#779=DIRECTION('',(-1.,-1.22464679914735E-016,-6.12323399573677E-017));
#780=FACE_OUTER_BOUND('',#781,.T.);
#781=EDGE_LOOP('',(#1009));
#782=SPHERICAL_SURFACE('',#783,0.3);
#783=AXIS2_PLACEMENT_3D('',#784,#785,#786);
#784=CARTESIAN_POINT('',(2.54,-4.71489017671731E-016,7.7));
#785=DIRECTION('',(-6.12323399573677E-017,-6.12323399573677E-017,1.));
#786=DIRECTION('',(-1.,-1.22464679914736E-016,-6.12323399573677E-017));
#787=FACE_OUTER_BOUND('',#788,.T.);
#788=EDGE_LOOP('',(#1010));
#789=FACE_OUTER_BOUND('',#790,.T.);
#790=EDGE_LOOP('',(#1011));
#791=CYLINDRICAL_SURFACE('',#792,0.3);
#792=AXIS2_PLACEMENT_3D('',#793,#794,#795);
#793=CARTESIAN_POINT('',(2.54,-3.06161699786838E-016,5.));
#794=DIRECTION('',(-6.12323399573677E-017,-6.12323399573677E-017,1.));
#795=DIRECTION('',(-1.,-1.22464679914735E-016,-6.12323399573677E-017));
#796=FACE_BOUND('',#797,.T.);
#797=EDGE_LOOP('',(#1012));
#798=FACE_BOUND('',#799,.T.);
#799=EDGE_LOOP('',(#1013));
#800=PLANE('',#801);
#801=AXIS2_PLACEMENT_3D('',#802,#803,#804);
#802=CARTESIAN_POINT('',(2.54,-3.06161699786838E-016,5.));
#803=DIRECTION('',(-6.12323399573677E-017,-6.12323399573677E-017,1.));
#804=DIRECTION('',(-1.,-1.22464679914735E-016,-6.12323399573677E-017));
#805=FACE_OUTER_BOUND('',#806,.T.);
#806=EDGE_LOOP('',(#1014));
#807=FACE_OUTER_BOUND('',#808,.T.);
#808=EDGE_LOOP('',(#1015));
#809=CYLINDRICAL_SURFACE('',#810,0.9);
#810=AXIS2_PLACEMENT_3D('',#811,#812,#813);
#811=CARTESIAN_POINT('',(2.54,-2.44929359829471E-016,4.));
#812=DIRECTION('',(-6.12323399573677E-017,-6.12323399573677E-017,1.));
#813=DIRECTION('',(-1.,-1.22464679914735E-016,-6.12323399573677E-017));
#814=FACE_BOUND('',#815,.T.);
#815=EDGE_LOOP('',(#1016));
#816=FACE_BOUND('',#817,.T.);
#817=EDGE_LOOP('',(#1017));
#818=PLANE('',#819);
#819=AXIS2_PLACEMENT_3D('',#820,#821,#822);
#820=CARTESIAN_POINT('',(2.54,-2.44929359829471E-016,4.));
#821=DIRECTION('',(6.12323399573677E-017,6.12323399573677E-017,-1.));
#822=DIRECTION('',(-1.,-1.22464679914735E-016,-6.12323399573677E-017));
#823=FACE_OUTER_BOUND('',#824,.T.);
#824=EDGE_LOOP('',(#1018));
#825=FACE_OUTER_BOUND('',#826,.T.);
#826=EDGE_LOOP('',(#1019));
#827=CYLINDRICAL_SURFACE('',#828,0.66);
#828=AXIS2_PLACEMENT_3D('',#829,#830,#831);
#829=CARTESIAN_POINT('',(2.54,-2.63299061816681E-017,0.43));
#830=DIRECTION('',(-6.12323399573677E-017,-6.12323399573677E-017,1.));
#831=DIRECTION('',(-1.,-1.22464679914735E-016,-6.12323399573677E-017));
#832=FACE_OUTER_BOUND('',#833,.T.);
#833=EDGE_LOOP('',(#1020));
#834=FACE_OUTER_BOUND('',#835,.T.);
#835=EDGE_LOOP('',(#1021));
#836=CONICAL_SURFACE('',#837,0.445,0.785398163397448);
#837=AXIS2_PLACEMENT_3D('',#838,#839,#840);
#838=CARTESIAN_POINT('',(2.54,-1.3164953090834E-017,0.215));
#839=DIRECTION('',(-6.12323399573677E-017,-6.12323399573677E-017,1.));
#840=DIRECTION('',(-1.,-1.22464679914735E-016,-6.12323399573677E-017));
#841=FACE_OUTER_BOUND('',#842,.T.);
#842=EDGE_LOOP('',(#1022));
#843=FACE_OUTER_BOUND('',#844,.T.);
#844=EDGE_LOOP('',(#1023));
#845=CYLINDRICAL_SURFACE('',#846,0.23);
#846=AXIS2_PLACEMENT_3D('',#847,#848,#849);
#847=CARTESIAN_POINT('',(2.54,2.11863896252492E-016,-3.46));
#848=DIRECTION('',(-6.12323399573677E-017,-6.12323399573677E-017,1.));
#849=DIRECTION('',(-1.,-1.22464679914735E-016,-6.12323399573675E-017));
#850=FACE_OUTER_BOUND('',#851,.T.);
#851=EDGE_LOOP('',(#1024));
#852=SPHERICAL_SURFACE('',#853,0.23);
#853=AXIS2_PLACEMENT_3D('',#854,#855,#856);
#854=CARTESIAN_POINT('',(2.54,2.11863896252492E-016,-3.46));
#855=DIRECTION('',(-6.12323399573677E-017,-6.12323399573677E-017,1.));
#856=DIRECTION('',(-1.,-1.22464679914735E-016,-6.12323399573677E-017));
#857=ORIENTED_EDGE('',*,*,#1025,.T.);
#858=ORIENTED_EDGE('',*,*,#1026,.F.);
#859=ORIENTED_EDGE('',*,*,#1027,.T.);
#860=ORIENTED_EDGE('',*,*,#1028,.T.);
#861=ORIENTED_EDGE('',*,*,#1029,.T.);
#862=ORIENTED_EDGE('',*,*,#1030,.T.);
#863=ORIENTED_EDGE('',*,*,#1031,.T.);
#864=ORIENTED_EDGE('',*,*,#1032,.T.);
#865=ORIENTED_EDGE('',*,*,#1033,.T.);
#866=ORIENTED_EDGE('',*,*,#1034,.T.);
#867=ORIENTED_EDGE('',*,*,#1035,.T.);
#868=ORIENTED_EDGE('',*,*,#1036,.T.);
#869=ORIENTED_EDGE('',*,*,#1037,.T.);
#870=ORIENTED_EDGE('',*,*,#1038,.T.);
#871=ORIENTED_EDGE('',*,*,#1039,.T.);
#872=ORIENTED_EDGE('',*,*,#1040,.T.);
#873=ORIENTED_EDGE('',*,*,#1041,.T.);
#874=ORIENTED_EDGE('',*,*,#1042,.T.);
#875=ORIENTED_EDGE('',*,*,#1043,.T.);
#876=ORIENTED_EDGE('',*,*,#1044,.T.);
#877=ORIENTED_EDGE('',*,*,#1045,.T.);
#878=ORIENTED_EDGE('',*,*,#1046,.T.);
#879=ORIENTED_EDGE('',*,*,#1047,.T.);
#880=ORIENTED_EDGE('',*,*,#1048,.T.);
#881=ORIENTED_EDGE('',*,*,#1049,.T.);
#882=ORIENTED_EDGE('',*,*,#1025,.F.);
#883=ORIENTED_EDGE('',*,*,#1047,.F.);
#884=ORIENTED_EDGE('',*,*,#1049,.F.);
#885=ORIENTED_EDGE('',*,*,#1050,.F.);
#886=ORIENTED_EDGE('',*,*,#1051,.F.);
#887=ORIENTED_EDGE('',*,*,#1052,.F.);
#888=ORIENTED_EDGE('',*,*,#1053,.F.);
#889=ORIENTED_EDGE('',*,*,#1054,.F.);
#890=ORIENTED_EDGE('',*,*,#1055,.F.);
#891=ORIENTED_EDGE('',*,*,#1056,.F.);
#892=ORIENTED_EDGE('',*,*,#1057,.F.);
#893=ORIENTED_EDGE('',*,*,#1058,.F.);
#894=ORIENTED_EDGE('',*,*,#1059,.F.);
#895=ORIENTED_EDGE('',*,*,#1060,.F.);
#896=ORIENTED_EDGE('',*,*,#1061,.F.);
#897=ORIENTED_EDGE('',*,*,#1062,.F.);
#898=ORIENTED_EDGE('',*,*,#1063,.F.);
#899=ORIENTED_EDGE('',*,*,#1064,.F.);
#900=ORIENTED_EDGE('',*,*,#1065,.F.);
#901=ORIENTED_EDGE('',*,*,#1066,.F.);
#902=ORIENTED_EDGE('',*,*,#1067,.F.);
#903=ORIENTED_EDGE('',*,*,#1068,.F.);
#904=ORIENTED_EDGE('',*,*,#1069,.F.);
#905=ORIENTED_EDGE('',*,*,#1070,.T.);
#906=ORIENTED_EDGE('',*,*,#1026,.T.);
#907=ORIENTED_EDGE('',*,*,#1069,.T.);
#908=ORIENTED_EDGE('',*,*,#1071,.T.);
#909=ORIENTED_EDGE('',*,*,#1027,.F.);
#910=ORIENTED_EDGE('',*,*,#1072,.F.);
#911=ORIENTED_EDGE('',*,*,#1068,.T.);
#912=ORIENTED_EDGE('',*,*,#1073,.T.);
#913=ORIENTED_EDGE('',*,*,#1028,.F.);
#914=ORIENTED_EDGE('',*,*,#1071,.F.);
#915=ORIENTED_EDGE('',*,*,#1067,.T.);
#916=ORIENTED_EDGE('',*,*,#1074,.T.);
#917=ORIENTED_EDGE('',*,*,#1029,.F.);
#918=ORIENTED_EDGE('',*,*,#1073,.F.);
#919=ORIENTED_EDGE('',*,*,#1066,.T.);
#920=ORIENTED_EDGE('',*,*,#1075,.T.);
#921=ORIENTED_EDGE('',*,*,#1030,.F.);
#922=ORIENTED_EDGE('',*,*,#1074,.F.);
#923=ORIENTED_EDGE('',*,*,#1065,.T.);
#924=ORIENTED_EDGE('',*,*,#1076,.T.);
#925=ORIENTED_EDGE('',*,*,#1031,.F.);
#926=ORIENTED_EDGE('',*,*,#1075,.F.);
#927=ORIENTED_EDGE('',*,*,#1064,.T.);
#928=ORIENTED_EDGE('',*,*,#1077,.T.);
#929=ORIENTED_EDGE('',*,*,#1032,.F.);
#930=ORIENTED_EDGE('',*,*,#1076,.F.);
#931=ORIENTED_EDGE('',*,*,#1063,.T.);
#932=ORIENTED_EDGE('',*,*,#1078,.T.);
#933=ORIENTED_EDGE('',*,*,#1033,.F.);
#934=ORIENTED_EDGE('',*,*,#1077,.F.);
#935=ORIENTED_EDGE('',*,*,#1062,.T.);
#936=ORIENTED_EDGE('',*,*,#1079,.T.);
#937=ORIENTED_EDGE('',*,*,#1034,.F.);
#938=ORIENTED_EDGE('',*,*,#1078,.F.);
#939=ORIENTED_EDGE('',*,*,#1061,.T.);
#940=ORIENTED_EDGE('',*,*,#1080,.T.);
#941=ORIENTED_EDGE('',*,*,#1035,.F.);
#942=ORIENTED_EDGE('',*,*,#1079,.F.);
#943=ORIENTED_EDGE('',*,*,#1060,.T.);
#944=ORIENTED_EDGE('',*,*,#1081,.T.);
#945=ORIENTED_EDGE('',*,*,#1036,.F.);
#946=ORIENTED_EDGE('',*,*,#1080,.F.);
#947=ORIENTED_EDGE('',*,*,#1059,.T.);
#948=ORIENTED_EDGE('',*,*,#1082,.T.);
#949=ORIENTED_EDGE('',*,*,#1037,.F.);
#950=ORIENTED_EDGE('',*,*,#1081,.F.);
#951=ORIENTED_EDGE('',*,*,#1058,.T.);
#952=ORIENTED_EDGE('',*,*,#1083,.T.);
#953=ORIENTED_EDGE('',*,*,#1038,.F.);
#954=ORIENTED_EDGE('',*,*,#1082,.F.);
#955=ORIENTED_EDGE('',*,*,#1057,.T.);
#956=ORIENTED_EDGE('',*,*,#1084,.T.);
#957=ORIENTED_EDGE('',*,*,#1039,.F.);
#958=ORIENTED_EDGE('',*,*,#1083,.F.);
#959=ORIENTED_EDGE('',*,*,#1056,.T.);
#960=ORIENTED_EDGE('',*,*,#1085,.T.);
#961=ORIENTED_EDGE('',*,*,#1040,.F.);
#962=ORIENTED_EDGE('',*,*,#1084,.F.);
#963=ORIENTED_EDGE('',*,*,#1086,.T.);
#964=ORIENTED_EDGE('',*,*,#1041,.F.);
#965=ORIENTED_EDGE('',*,*,#1085,.F.);
#966=ORIENTED_EDGE('',*,*,#1055,.T.);
#967=ORIENTED_EDGE('',*,*,#1054,.T.);
#968=ORIENTED_EDGE('',*,*,#1087,.T.);
#969=ORIENTED_EDGE('',*,*,#1042,.F.);
#970=ORIENTED_EDGE('',*,*,#1086,.F.);
#971=ORIENTED_EDGE('',*,*,#1053,.T.);
#972=ORIENTED_EDGE('',*,*,#1088,.T.);
#973=ORIENTED_EDGE('',*,*,#1043,.F.);
#974=ORIENTED_EDGE('',*,*,#1087,.F.);
#975=ORIENTED_EDGE('',*,*,#1052,.T.);
#976=ORIENTED_EDGE('',*,*,#1089,.T.);
#977=ORIENTED_EDGE('',*,*,#1044,.F.);
#978=ORIENTED_EDGE('',*,*,#1088,.F.);
#979=ORIENTED_EDGE('',*,*,#1051,.T.);
#980=ORIENTED_EDGE('',*,*,#1090,.T.);
#981=ORIENTED_EDGE('',*,*,#1045,.F.);
#982=ORIENTED_EDGE('',*,*,#1089,.F.);
#983=ORIENTED_EDGE('',*,*,#1050,.T.);
#984=ORIENTED_EDGE('',*,*,#1072,.T.);
#985=ORIENTED_EDGE('',*,*,#1046,.F.);
#986=ORIENTED_EDGE('',*,*,#1090,.F.);
#987=ORIENTED_EDGE('',*,*,#1048,.F.);
#988=ORIENTED_EDGE('',*,*,#1091,.F.);
#989=ORIENTED_EDGE('',*,*,#1092,.T.);
#990=ORIENTED_EDGE('',*,*,#1070,.F.);
#991=ORIENTED_EDGE('',*,*,#1091,.T.);
#992=ORIENTED_EDGE('',*,*,#1092,.F.);
#993=ORIENTED_EDGE('',*,*,#1093,.T.);
#994=ORIENTED_EDGE('',*,*,#1093,.F.);
#995=ORIENTED_EDGE('',*,*,#1094,.T.);
#996=ORIENTED_EDGE('',*,*,#1095,.T.);
#997=ORIENTED_EDGE('',*,*,#1094,.F.);
#998=ORIENTED_EDGE('',*,*,#1095,.F.);
#999=ORIENTED_EDGE('',*,*,#1096,.T.);
#1000=ORIENTED_EDGE('',*,*,#1096,.F.);
#1001=ORIENTED_EDGE('',*,*,#1097,.T.);
#1002=ORIENTED_EDGE('',*,*,#1097,.F.);
#1003=ORIENTED_EDGE('',*,*,#1098,.T.);
#1004=ORIENTED_EDGE('',*,*,#1099,.T.);
#1005=ORIENTED_EDGE('',*,*,#1098,.F.);
#1006=ORIENTED_EDGE('',*,*,#1099,.F.);
#1007=ORIENTED_EDGE('',*,*,#1100,.T.);
#1008=ORIENTED_EDGE('',*,*,#1100,.F.);
#1009=ORIENTED_EDGE('',*,*,#1101,.T.);
#1010=ORIENTED_EDGE('',*,*,#1101,.F.);
#1011=ORIENTED_EDGE('',*,*,#1102,.T.);
#1012=ORIENTED_EDGE('',*,*,#1103,.T.);
#1013=ORIENTED_EDGE('',*,*,#1102,.F.);
#1014=ORIENTED_EDGE('',*,*,#1103,.F.);
#1015=ORIENTED_EDGE('',*,*,#1104,.T.);
#1016=ORIENTED_EDGE('',*,*,#1104,.F.);
#1017=ORIENTED_EDGE('',*,*,#1105,.T.);
#1018=ORIENTED_EDGE('',*,*,#1105,.F.);
#1019=ORIENTED_EDGE('',*,*,#1106,.T.);
#1020=ORIENTED_EDGE('',*,*,#1107,.T.);
#1021=ORIENTED_EDGE('',*,*,#1106,.F.);
#1022=ORIENTED_EDGE('',*,*,#1107,.F.);
#1023=ORIENTED_EDGE('',*,*,#1108,.T.);
#1024=ORIENTED_EDGE('',*,*,#1108,.F.);
#1025=EDGE_CURVE('',#1109,#1109,#1110,.T.);
#1026=EDGE_CURVE('',#1111,#1111,#1112,.T.);
#1027=EDGE_CURVE('',#1113,#1114,#1115,.T.);
#1028=EDGE_CURVE('',#1114,#1116,#1117,.T.);
#1029=EDGE_CURVE('',#1116,#1118,#1119,.T.);
#1030=EDGE_CURVE('',#1118,#1120,#1121,.T.);
#1031=EDGE_CURVE('',#1120,#1122,#1123,.T.);
#1032=EDGE_CURVE('',#1122,#1124,#1125,.T.);
#1033=EDGE_CURVE('',#1124,#1126,#1127,.T.);
#1034=EDGE_CURVE('',#1126,#1128,#1129,.T.);
#1035=EDGE_CURVE('',#1128,#1130,#1131,.T.);
#1036=EDGE_CURVE('',#1130,#1132,#1133,.T.);
#1037=EDGE_CURVE('',#1132,#1134,#1135,.T.);
#1038=EDGE_CURVE('',#1134,#1136,#1137,.T.);
#1039=EDGE_CURVE('',#1136,#1138,#1139,.T.);
#1040=EDGE_CURVE('',#1138,#1140,#1141,.T.);
#1041=EDGE_CURVE('',#1140,#1142,#1143,.T.);
#1042=EDGE_CURVE('',#1142,#1144,#1145,.T.);
#1043=EDGE_CURVE('',#1144,#1146,#1147,.T.);
#1044=EDGE_CURVE('',#1146,#1148,#1149,.T.);
#1045=EDGE_CURVE('',#1148,#1150,#1151,.T.);
#1046=EDGE_CURVE('',#1150,#1113,#1152,.T.);
#1047=EDGE_CURVE('',#1153,#1153,#1154,.F.);
#1048=EDGE_CURVE('',#1155,#1155,#1156,.F.);
#1049=EDGE_CURVE('',#1157,#1157,#1158,.T.);
#1050=EDGE_CURVE('',#1159,#1160,#1161,.T.);
#1051=EDGE_CURVE('',#1162,#1159,#1163,.T.);
#1052=EDGE_CURVE('',#1164,#1162,#1165,.T.);
#1053=EDGE_CURVE('',#1166,#1164,#1167,.T.);
#1054=EDGE_CURVE('',#1168,#1166,#1169,.T.);
#1055=EDGE_CURVE('',#1170,#1168,#1171,.T.);
#1056=EDGE_CURVE('',#1172,#1170,#1173,.T.);
#1057=EDGE_CURVE('',#1174,#1172,#1175,.T.);
#1058=EDGE_CURVE('',#1176,#1174,#1177,.T.);
#1059=EDGE_CURVE('',#1178,#1176,#1179,.T.);
#1060=EDGE_CURVE('',#1180,#1178,#1181,.T.);
#1061=EDGE_CURVE('',#1182,#1180,#1183,.T.);
#1062=EDGE_CURVE('',#1184,#1182,#1185,.T.);
#1063=EDGE_CURVE('',#1186,#1184,#1187,.T.);
#1064=EDGE_CURVE('',#1188,#1186,#1189,.T.);
#1065=EDGE_CURVE('',#1190,#1188,#1191,.T.);
#1066=EDGE_CURVE('',#1192,#1190,#1193,.T.);
#1067=EDGE_CURVE('',#1194,#1192,#1195,.T.);
#1068=EDGE_CURVE('',#1196,#1194,#1197,.T.);
#1069=EDGE_CURVE('',#1160,#1196,#1198,.T.);
#1070=EDGE_CURVE('',#1199,#1199,#1200,.T.);
#1071=EDGE_CURVE('',#1196,#1114,#1201,.T.);
#1072=EDGE_CURVE('',#1160,#1113,#1202,.T.);
#1073=EDGE_CURVE('',#1194,#1116,#1203,.T.);
#1074=EDGE_CURVE('',#1192,#1118,#1204,.T.);
#1075=EDGE_CURVE('',#1190,#1120,#1205,.T.);
#1076=EDGE_CURVE('',#1188,#1122,#1206,.T.);
#1077=EDGE_CURVE('',#1186,#1124,#1207,.T.);
#1078=EDGE_CURVE('',#1184,#1126,#1208,.T.);
#1079=EDGE_CURVE('',#1182,#1128,#1209,.T.);
#1080=EDGE_CURVE('',#1180,#1130,#1210,.T.);
#1081=EDGE_CURVE('',#1178,#1132,#1211,.T.);
#1082=EDGE_CURVE('',#1176,#1134,#1212,.T.);
#1083=EDGE_CURVE('',#1174,#1136,#1213,.T.);
#1084=EDGE_CURVE('',#1172,#1138,#1214,.T.);
#1085=EDGE_CURVE('',#1170,#1140,#1215,.T.);
#1086=EDGE_CURVE('',#1168,#1142,#1216,.T.);
#1087=EDGE_CURVE('',#1166,#1144,#1217,.T.);
#1088=EDGE_CURVE('',#1164,#1146,#1218,.T.);
#1089=EDGE_CURVE('',#1162,#1148,#1219,.T.);
#1090=EDGE_CURVE('',#1159,#1150,#1220,.T.);
#1091=EDGE_CURVE('',#1221,#1221,#1222,.T.);
#1092=EDGE_CURVE('',#1223,#1223,#1224,.T.);
#1093=EDGE_CURVE('',#1225,#1225,#1226,.T.);
#1094=EDGE_CURVE('',#1227,#1227,#1228,.T.);
#1095=EDGE_CURVE('',#1229,#1229,#1230,.T.);
#1096=EDGE_CURVE('',#1231,#1231,#1232,.T.);
#1097=EDGE_CURVE('',#1233,#1233,#1234,.T.);
#1098=EDGE_CURVE('',#1235,#1235,#1236,.T.);
#1099=EDGE_CURVE('',#1237,#1237,#1238,.T.);
#1100=EDGE_CURVE('',#1239,#1239,#1240,.T.);
#1101=EDGE_CURVE('',#1241,#1241,#1242,.T.);
#1102=EDGE_CURVE('',#1243,#1243,#1244,.T.);
#1103=EDGE_CURVE('',#1245,#1245,#1246,.T.);
#1104=EDGE_CURVE('',#1247,#1247,#1248,.T.);
#1105=EDGE_CURVE('',#1249,#1249,#1250,.T.);
#1106=EDGE_CURVE('',#1251,#1251,#1252,.T.);
#1107=EDGE_CURVE('',#1253,#1253,#1254,.T.);
#1108=EDGE_CURVE('',#1255,#1255,#1256,.T.);
#1109=VERTEX_POINT('',#1257);
#1110=CIRCLE('',#1258,0.66);
#1111=VERTEX_POINT('',#1262);
#1112=CIRCLE('',#1263,0.66);
#1113=VERTEX_POINT('',#1267);
#1114=VERTEX_POINT('',#1268);
#1115=LINE('',#1269,#1270);
#1116=VERTEX_POINT('',#1272);
#1117=LINE('',#1273,#1274);
#1118=VERTEX_POINT('',#1276);
#1119=LINE('',#1277,#1278);
#1120=VERTEX_POINT('',#1280);
#1121=LINE('',#1281,#1282);
#1122=VERTEX_POINT('',#1284);
#1123=LINE('',#1285,#1286);
#1124=VERTEX_POINT('',#1288);
#1125=LINE('',#1289,#1290);
#1126=VERTEX_POINT('',#1292);
#1127=LINE('',#1293,#1294);
#1128=VERTEX_POINT('',#1296);
#1129=LINE('',#1297,#1298);
#1130=VERTEX_POINT('',#1300);
#1131=LINE('',#1301,#1302);
#1132=VERTEX_POINT('',#1304);
#1133=LINE('',#1305,#1306);
#1134=VERTEX_POINT('',#1308);
#1135=LINE('',#1309,#1310);
#1136=VERTEX_POINT('',#1312);
#1137=LINE('',#1313,#1314);
#1138=VERTEX_POINT('',#1316);
#1139=LINE('',#1317,#1318);
#1140=VERTEX_POINT('',#1320);
#1141=LINE('',#1321,#1322);
#1142=VERTEX_POINT('',#1324);
#1143=LINE('',#1325,#1326);
#1144=VERTEX_POINT('',#1328);
#1145=LINE('',#1329,#1330);
#1146=VERTEX_POINT('',#1332);
#1147=LINE('',#1333,#1334);
#1148=VERTEX_POINT('',#1336);
#1149=LINE('',#1337,#1338);
#1150=VERTEX_POINT('',#1340);
#1151=LINE('',#1341,#1342);
#1152=LINE('',#1344,#1345);
#1153=VERTEX_POINT('',#1347);
#1154=CIRCLE('',#1348,0.9);
#1155=VERTEX_POINT('',#1352);
#1156=CIRCLE('',#1353,0.9);
#1157=VERTEX_POINT('',#1357);
#1158=CIRCLE('',#1358,0.9);
#1159=VERTEX_POINT('',#1362);
#1160=VERTEX_POINT('',#1363);
#1161=LINE('',#1364,#1365);
#1162=VERTEX_POINT('',#1367);
#1163=LINE('',#1368,#1369);
#1164=VERTEX_POINT('',#1371);
#1165=LINE('',#1372,#1373);
#1166=VERTEX_POINT('',#1375);
#1167=LINE('',#1376,#1377);
#1168=VERTEX_POINT('',#1379);
#1169=LINE('',#1380,#1381);
#1170=VERTEX_POINT('',#1383);
#1171=LINE('',#1384,#1385);
#1172=VERTEX_POINT('',#1387);
#1173=LINE('',#1388,#1389);
#1174=VERTEX_POINT('',#1391);
#1175=LINE('',#1392,#1393);
#1176=VERTEX_POINT('',#1395);
#1177=LINE('',#1396,#1397);
#1178=VERTEX_POINT('',#1399);
#1179=LINE('',#1400,#1401);
#1180=VERTEX_POINT('',#1403);
#1181=LINE('',#1404,#1405);
#1182=VERTEX_POINT('',#1407);
#1183=LINE('',#1408,#1409);
#1184=VERTEX_POINT('',#1411);
#1185=LINE('',#1412,#1413);
#1186=VERTEX_POINT('',#1415);
#1187=LINE('',#1416,#1417);
#1188=VERTEX_POINT('',#1419);
#1189=LINE('',#1420,#1421);
#1190=VERTEX_POINT('',#1423);
#1191=LINE('',#1424,#1425);
#1192=VERTEX_POINT('',#1427);
#1193=LINE('',#1428,#1429);
#1194=VERTEX_POINT('',#1431);
#1195=LINE('',#1432,#1433);
#1196=VERTEX_POINT('',#1435);
#1197=LINE('',#1436,#1437);
#1198=LINE('',#1439,#1440);
#1199=VERTEX_POINT('',#1442);
#1200=CIRCLE('',#1443,0.66);
#1201=LINE('',#1447,#1448);
#1202=LINE('',#1450,#1451);
#1203=LINE('',#1453,#1454);
#1204=LINE('',#1456,#1457);
#1205=LINE('',#1459,#1460);
#1206=LINE('',#1462,#1463);
#1207=LINE('',#1465,#1466);
#1208=LINE('',#1468,#1469);
#1209=LINE('',#1471,#1472);
#1210=LINE('',#1474,#1475);
#1211=LINE('',#1477,#1478);
#1212=LINE('',#1480,#1481);
#1213=LINE('',#1483,#1484);
#1214=LINE('',#1486,#1487);
#1215=LINE('',#1489,#1490);
#1216=LINE('',#1492,#1493);
#1217=LINE('',#1495,#1496);
#1218=LINE('',#1498,#1499);
#1219=LINE('',#1501,#1502);
#1220=LINE('',#1504,#1505);
#1221=VERTEX_POINT('',#1507);
#1222=CIRCLE('',#1508,0.9);
#1223=VERTEX_POINT('',#1512);
#1224=CIRCLE('',#1513,0.66);
#1225=VERTEX_POINT('',#1517);
#1226=CIRCLE('',#1518,0.3);
#1227=VERTEX_POINT('',#1522);
#1228=CIRCLE('',#1523,0.3);
#1229=VERTEX_POINT('',#1527);
#1230=CIRCLE('',#1528,0.9);
#1231=VERTEX_POINT('',#1532);
#1232=CIRCLE('',#1533,0.9);
#1233=VERTEX_POINT('',#1537);
#1234=CIRCLE('',#1538,0.66);
#1235=VERTEX_POINT('',#1542);
#1236=CIRCLE('',#1543,0.66);
#1237=VERTEX_POINT('',#1547);
#1238=CIRCLE('',#1548,0.23);
#1239=VERTEX_POINT('',#1552);
#1240=CIRCLE('',#1553,0.23);
#1241=VERTEX_POINT('',#1557);
#1242=CIRCLE('',#1558,0.3);
#1243=VERTEX_POINT('',#1562);
#1244=CIRCLE('',#1563,0.3);
#1245=VERTEX_POINT('',#1567);
#1246=CIRCLE('',#1568,0.9);
#1247=VERTEX_POINT('',#1572);
#1248=CIRCLE('',#1573,0.9);
#1249=VERTEX_POINT('',#1577);
#1250=CIRCLE('',#1578,0.66);
#1251=VERTEX_POINT('',#1582);
#1252=CIRCLE('',#1583,0.66);
#1253=VERTEX_POINT('',#1587);
#1254=CIRCLE('',#1588,0.23);
#1255=VERTEX_POINT('',#1592);
#1256=CIRCLE('',#1593,0.23);
#1257=CARTESIAN_POINT('',(3.2,-8.08266887437253E-017,4.));
#1258=AXIS2_PLACEMENT_3D('',#1259,#1260,#1261);
#1259=CARTESIAN_POINT('',(2.54,0.,4.));
#1260=DIRECTION('',(0.,0.,1.));
#1261=DIRECTION('',(1.,0.,0.));
#1262=CARTESIAN_POINT('',(3.2,0.,1.5));
#1263=AXIS2_PLACEMENT_3D('',#1264,#1265,#1266);
#1264=CARTESIAN_POINT('',(2.54,0.,1.5));
#1265=DIRECTION('',(0.,0.,1.));
#1266=DIRECTION('',(1.,0.,0.));
#1267=CARTESIAN_POINT('',(-1.27,-0.75,4.5));
#1268=CARTESIAN_POINT('',(-1.12,-0.75,4.5));
#1269=CARTESIAN_POINT('',(-1.27,-0.75,4.5));
#1270=VECTOR('',#1271,1.);
#1271=DIRECTION('',(1.,0.,0.));
#1272=CARTESIAN_POINT('',(-0.819777860021394,-1.27,4.5));
#1273=CARTESIAN_POINT('',(-1.12,-0.75,4.5));
#1274=VECTOR('',#1275,1.);
#1275=DIRECTION('',(0.5,-0.866025403784438,0.));
#1276=CARTESIAN_POINT('',(0.819777860021395,-1.27,4.5));
#1277=CARTESIAN_POINT('',(-0.819777860021394,-1.27,4.5));
#1278=VECTOR('',#1279,1.);
#1279=DIRECTION('',(1.,0.,0.));
#1280=CARTESIAN_POINT('',(1.12,-0.75,4.5));
#1281=CARTESIAN_POINT('',(0.819777860021395,-1.27,4.5));
#1282=VECTOR('',#1283,1.);
#1283=DIRECTION('',(0.5,0.866025403784439,0.));
#1284=CARTESIAN_POINT('',(1.42,-0.75,4.5));
#1285=CARTESIAN_POINT('',(1.12,-0.75,4.5));
#1286=VECTOR('',#1287,1.);
#1287=DIRECTION('',(1.,0.,0.));
#1288=CARTESIAN_POINT('',(1.72022213997861,-1.27,4.5));
#1289=CARTESIAN_POINT('',(1.42,-0.75,4.5));
#1290=VECTOR('',#1291,1.);
#1291=DIRECTION('',(0.5,-0.866025403784438,0.));
#1292=CARTESIAN_POINT('',(3.35977786002139,-1.27,4.5));
#1293=CARTESIAN_POINT('',(1.72022213997861,-1.27,4.5));
#1294=VECTOR('',#1295,1.);
#1295=DIRECTION('',(1.,0.,0.));
#1296=CARTESIAN_POINT('',(3.66,-0.75,4.5));
#1297=CARTESIAN_POINT('',(3.35977786002139,-1.27,4.5));
#1298=VECTOR('',#1299,1.);
#1299=DIRECTION('',(0.5,0.866025403784439,0.));
#1300=CARTESIAN_POINT('',(3.81,-0.75,4.5));
#1301=CARTESIAN_POINT('',(3.66,-0.75,4.5));
#1302=VECTOR('',#1303,1.);
#1303=DIRECTION('',(1.,0.,0.));
#1304=CARTESIAN_POINT('',(3.81,0.75,4.5));
#1305=CARTESIAN_POINT('',(3.81,-0.75,4.5));
#1306=VECTOR('',#1307,1.);
#1307=DIRECTION('',(0.,1.,0.));
#1308=CARTESIAN_POINT('',(3.66,0.75,4.5));
#1309=CARTESIAN_POINT('',(3.81,0.75,4.5));
#1310=VECTOR('',#1311,1.);
#1311=DIRECTION('',(-1.,0.,0.));
#1312=CARTESIAN_POINT('',(3.35977786002139,1.27,4.5));
#1313=CARTESIAN_POINT('',(3.66,0.75,4.5));
#1314=VECTOR('',#1315,1.);
#1315=DIRECTION('',(-0.5,0.866025403784439,0.));
#1316=CARTESIAN_POINT('',(1.72022213997861,1.27,4.5));
#1317=CARTESIAN_POINT('',(3.35977786002139,1.27,4.5));
#1318=VECTOR('',#1319,1.);
#1319=DIRECTION('',(-1.,0.,0.));
#1320=CARTESIAN_POINT('',(1.42,0.75,4.5));
#1321=CARTESIAN_POINT('',(1.72022213997861,1.27,4.5));
#1322=VECTOR('',#1323,1.);
#1323=DIRECTION('',(-0.5,-0.866025403784439,0.));
#1324=CARTESIAN_POINT('',(1.12,0.75,4.5));
#1325=CARTESIAN_POINT('',(1.42,0.75,4.5));
#1326=VECTOR('',#1327,1.);
#1327=DIRECTION('',(-1.,0.,0.));
#1328=CARTESIAN_POINT('',(0.819777860021394,1.27,4.5));
#1329=CARTESIAN_POINT('',(1.12,0.75,4.5));
#1330=VECTOR('',#1331,1.);
#1331=DIRECTION('',(-0.5,0.866025403784438,0.));
#1332=CARTESIAN_POINT('',(-0.819777860021395,1.27,4.5));
#1333=CARTESIAN_POINT('',(0.819777860021394,1.27,4.5));
#1334=VECTOR('',#1335,1.);
#1335=DIRECTION('',(-1.,0.,0.));
#1336=CARTESIAN_POINT('',(-1.12,0.75,4.5));
#1337=CARTESIAN_POINT('',(-0.819777860021395,1.27,4.5));
#1338=VECTOR('',#1339,1.);
#1339=DIRECTION('',(-0.5,-0.866025403784439,0.));
#1340=CARTESIAN_POINT('',(-1.27,0.75,4.5));
#1341=CARTESIAN_POINT('',(-1.12,0.75,4.5));
#1342=VECTOR('',#1343,1.);
#1343=DIRECTION('',(-1.,0.,0.));
#1344=CARTESIAN_POINT('',(-1.27,0.75,4.5));
#1345=VECTOR('',#1346,1.);
#1346=DIRECTION('',(0.,-1.,0.));
#1347=CARTESIAN_POINT('',(3.44,0.,4.5));
#1348=AXIS2_PLACEMENT_3D('',#1349,#1350,#1351);
#1349=CARTESIAN_POINT('',(2.54,0.,4.5));
#1350=DIRECTION('',(0.,0.,1.));
#1351=DIRECTION('',(1.,0.,0.));
#1352=CARTESIAN_POINT('',(0.9,0.,4.5));
#1353=AXIS2_PLACEMENT_3D('',#1354,#1355,#1356);
#1354=CARTESIAN_POINT('',(0.,0.,4.5));
#1355=DIRECTION('',(0.,0.,1.));
#1356=DIRECTION('',(1.,0.,0.));
#1357=CARTESIAN_POINT('',(3.44,0.,4.));
#1358=AXIS2_PLACEMENT_3D('',#1359,#1360,#1361);
#1359=CARTESIAN_POINT('',(2.54,0.,4.));
#1360=DIRECTION('',(0.,0.,1.));
#1361=DIRECTION('',(1.,0.,0.));
#1362=CARTESIAN_POINT('',(-1.27,0.75,1.5));
#1363=CARTESIAN_POINT('',(-1.27,-0.75,1.5));
#1364=CARTESIAN_POINT('',(-1.27,0.75,1.5));
#1365=VECTOR('',#1366,1.);
#1366=DIRECTION('',(0.,-1.,0.));
#1367=CARTESIAN_POINT('',(-1.12,0.75,1.5));
#1368=CARTESIAN_POINT('',(-1.12,0.75,1.5));
#1369=VECTOR('',#1370,1.);
#1370=DIRECTION('',(-1.,0.,0.));
#1371=CARTESIAN_POINT('',(-0.819777860021395,1.27,1.5));
#1372=CARTESIAN_POINT('',(-0.819777860021395,1.27,1.5));
#1373=VECTOR('',#1374,1.);
#1374=DIRECTION('',(-0.5,-0.866025403784439,0.));
#1375=CARTESIAN_POINT('',(0.819777860021394,1.27,1.5));
#1376=CARTESIAN_POINT('',(0.819777860021394,1.27,1.5));
#1377=VECTOR('',#1378,1.);
#1378=DIRECTION('',(-1.,0.,0.));
#1379=CARTESIAN_POINT('',(1.12,0.75,1.5));
#1380=CARTESIAN_POINT('',(1.12,0.75,1.5));
#1381=VECTOR('',#1382,1.);
#1382=DIRECTION('',(-0.5,0.866025403784438,0.));
#1383=CARTESIAN_POINT('',(1.42,0.75,1.5));
#1384=CARTESIAN_POINT('',(1.42,0.75,1.5));
#1385=VECTOR('',#1386,1.);
#1386=DIRECTION('',(-1.,0.,0.));
#1387=CARTESIAN_POINT('',(1.72022213997861,1.27,1.5));
#1388=CARTESIAN_POINT('',(1.72022213997861,1.27,1.5));
#1389=VECTOR('',#1390,1.);
#1390=DIRECTION('',(-0.5,-0.866025403784439,0.));
#1391=CARTESIAN_POINT('',(3.35977786002139,1.27,1.5));
#1392=CARTESIAN_POINT('',(3.35977786002139,1.27,1.5));
#1393=VECTOR('',#1394,1.);
#1394=DIRECTION('',(-1.,0.,0.));
#1395=CARTESIAN_POINT('',(3.66,0.75,1.5));
#1396=CARTESIAN_POINT('',(3.66,0.75,1.5));
#1397=VECTOR('',#1398,1.);
#1398=DIRECTION('',(-0.5,0.866025403784439,0.));
#1399=CARTESIAN_POINT('',(3.81,0.75,1.5));
#1400=CARTESIAN_POINT('',(3.81,0.75,1.5));
#1401=VECTOR('',#1402,1.);
#1402=DIRECTION('',(-1.,0.,0.));
#1403=CARTESIAN_POINT('',(3.81,-0.75,1.5));
#1404=CARTESIAN_POINT('',(3.81,-0.75,1.5));
#1405=VECTOR('',#1406,1.);
#1406=DIRECTION('',(0.,1.,0.));
#1407=CARTESIAN_POINT('',(3.66,-0.75,1.5));
#1408=CARTESIAN_POINT('',(3.66,-0.75,1.5));
#1409=VECTOR('',#1410,1.);
#1410=DIRECTION('',(1.,0.,0.));
#1411=CARTESIAN_POINT('',(3.35977786002139,-1.27,1.5));
#1412=CARTESIAN_POINT('',(3.35977786002139,-1.27,1.5));
#1413=VECTOR('',#1414,1.);
#1414=DIRECTION('',(0.5,0.866025403784439,0.));
#1415=CARTESIAN_POINT('',(1.72022213997861,-1.27,1.5));
#1416=CARTESIAN_POINT('',(1.72022213997861,-1.27,1.5));
#1417=VECTOR('',#1418,1.);
#1418=DIRECTION('',(1.,0.,0.));
#1419=CARTESIAN_POINT('',(1.42,-0.75,1.5));
#1420=CARTESIAN_POINT('',(1.42,-0.75,1.5));
#1421=VECTOR('',#1422,1.);
#1422=DIRECTION('',(0.5,-0.866025403784438,0.));
#1423=CARTESIAN_POINT('',(1.12,-0.75,1.5));
#1424=CARTESIAN_POINT('',(1.12,-0.75,1.5));
#1425=VECTOR('',#1426,1.);
#1426=DIRECTION('',(1.,0.,0.));
#1427=CARTESIAN_POINT('',(0.819777860021395,-1.27,1.5));
#1428=CARTESIAN_POINT('',(0.819777860021395,-1.27,1.5));
#1429=VECTOR('',#1430,1.);
#1430=DIRECTION('',(0.5,0.866025403784439,0.));
#1431=CARTESIAN_POINT('',(-0.819777860021394,-1.27,1.5));
#1432=CARTESIAN_POINT('',(-0.819777860021394,-1.27,1.5));
#1433=VECTOR('',#1434,1.);
#1434=DIRECTION('',(1.,0.,0.));
#1435=CARTESIAN_POINT('',(-1.12,-0.75,1.5));
#1436=CARTESIAN_POINT('',(-1.12,-0.75,1.5));
#1437=VECTOR('',#1438,1.);
#1438=DIRECTION('',(0.5,-0.866025403784438,0.));
#1439=CARTESIAN_POINT('',(-1.27,-0.75,1.5));
#1440=VECTOR('',#1441,1.);
#1441=DIRECTION('',(1.,0.,0.));
#1442=CARTESIAN_POINT('',(0.66,0.,1.5));
#1443=AXIS2_PLACEMENT_3D('',#1444,#1445,#1446);
#1444=CARTESIAN_POINT('',(0.,0.,1.5));
#1445=DIRECTION('',(0.,0.,1.));
#1446=DIRECTION('',(1.,0.,0.));
#1447=CARTESIAN_POINT('',(-1.12,-0.75,1.5));
#1448=VECTOR('',#1449,1.);
#1449=DIRECTION('',(0.,0.,1.));
#1450=CARTESIAN_POINT('',(-1.27,-0.75,1.5));
#1451=VECTOR('',#1452,1.);
#1452=DIRECTION('',(0.,0.,1.));
#1453=CARTESIAN_POINT('',(-0.819777860021395,-1.27,1.5));
#1454=VECTOR('',#1455,1.);
#1455=DIRECTION('',(0.,0.,1.));
#1456=CARTESIAN_POINT('',(0.819777860021395,-1.27,1.5));
#1457=VECTOR('',#1458,1.);
#1458=DIRECTION('',(0.,0.,1.));
#1459=CARTESIAN_POINT('',(1.12,-0.75,1.5));
#1460=VECTOR('',#1461,1.);
#1461=DIRECTION('',(0.,0.,1.));
#1462=CARTESIAN_POINT('',(1.42,-0.75,1.5));
#1463=VECTOR('',#1464,1.);
#1464=DIRECTION('',(0.,0.,1.));
#1465=CARTESIAN_POINT('',(1.72022213997861,-1.27,1.5));
#1466=VECTOR('',#1467,1.);
#1467=DIRECTION('',(0.,0.,1.));
#1468=CARTESIAN_POINT('',(3.35977786002139,-1.27,1.5));
#1469=VECTOR('',#1470,1.);
#1470=DIRECTION('',(0.,0.,1.));
#1471=CARTESIAN_POINT('',(3.66,-0.75,1.5));
#1472=VECTOR('',#1473,1.);
#1473=DIRECTION('',(0.,0.,1.));
#1474=CARTESIAN_POINT('',(3.81,-0.75,1.5));
#1475=VECTOR('',#1476,1.);
#1476=DIRECTION('',(0.,0.,1.));
#1477=CARTESIAN_POINT('',(3.81,0.75,1.5));
#1478=VECTOR('',#1479,1.);
#1479=DIRECTION('',(0.,0.,1.));
#1480=CARTESIAN_POINT('',(3.66,0.75,1.5));
#1481=VECTOR('',#1482,1.);
#1482=DIRECTION('',(0.,0.,1.));
#1483=CARTESIAN_POINT('',(3.35977786002139,1.27,1.5));
#1484=VECTOR('',#1485,1.);
#1485=DIRECTION('',(0.,0.,1.));
#1486=CARTESIAN_POINT('',(1.72022213997861,1.27,1.5));
#1487=VECTOR('',#1488,1.);
#1488=DIRECTION('',(0.,0.,1.));
#1489=CARTESIAN_POINT('',(1.42,0.75,1.5));
#1490=VECTOR('',#1491,1.);
#1491=DIRECTION('',(0.,0.,1.));
#1492=CARTESIAN_POINT('',(1.12,0.75,1.5));
#1493=VECTOR('',#1494,1.);
#1494=DIRECTION('',(0.,0.,1.));
#1495=CARTESIAN_POINT('',(0.819777860021395,1.27,1.5));
#1496=VECTOR('',#1497,1.);
#1497=DIRECTION('',(0.,0.,1.));
#1498=CARTESIAN_POINT('',(-0.819777860021395,1.27,1.5));
#1499=VECTOR('',#1500,1.);
#1500=DIRECTION('',(0.,0.,1.));
#1501=CARTESIAN_POINT('',(-1.12,0.75,1.5));
#1502=VECTOR('',#1503,1.);
#1503=DIRECTION('',(0.,0.,1.));
#1504=CARTESIAN_POINT('',(-1.27,0.75,1.5));
#1505=VECTOR('',#1506,1.);
#1506=DIRECTION('',(0.,0.,1.));
#1507=CARTESIAN_POINT('',(0.9,0.,4.));
#1508=AXIS2_PLACEMENT_3D('',#1509,#1510,#1511);
#1509=CARTESIAN_POINT('',(0.,0.,4.));
#1510=DIRECTION('',(0.,0.,1.));
#1511=DIRECTION('',(1.,0.,0.));
#1512=CARTESIAN_POINT('',(0.66,-8.08266887437253E-017,4.));
#1513=AXIS2_PLACEMENT_3D('',#1514,#1515,#1516);
#1514=CARTESIAN_POINT('',(0.,0.,4.));
#1515=DIRECTION('',(0.,0.,1.));
#1516=DIRECTION('',(1.,0.,0.));
#1517=CARTESIAN_POINT('',(-0.3,-5.08228421646152E-016,7.7));
#1518=AXIS2_PLACEMENT_3D('',#1519,#1520,#1521);
#1519=CARTESIAN_POINT('',(-4.71489017671731E-016,-4.71489017671731E-016,7.7));
#1520=DIRECTION('',(-6.12323399573677E-017,-6.12323399573677E-017,1.));
#1521=DIRECTION('',(-1.,-1.22464679914736E-016,-6.12323399573677E-017));
#1522=CARTESIAN_POINT('',(-0.3,-3.42901103761259E-016,5.));
#1523=AXIS2_PLACEMENT_3D('',#1524,#1525,#1526);
#1524=CARTESIAN_POINT('',(-3.06161699786838E-016,-3.06161699786838E-016,5.));
#1525=DIRECTION('',(-6.12323399573677E-017,-6.12323399573677E-017,1.));
#1526=DIRECTION('',(-1.,-1.22464679914735E-016,-6.12323399573677E-017));
#1527=CARTESIAN_POINT('',(-0.9,-4.163799117101E-016,5.));
#1528=AXIS2_PLACEMENT_3D('',#1529,#1530,#1531);
#1529=CARTESIAN_POINT('',(-3.06161699786838E-016,-3.06161699786838E-016,5.));
#1530=DIRECTION('',(-6.12323399573677E-017,-6.12323399573677E-017,1.));
#1531=DIRECTION('',(-1.,-1.22464679914735E-016,-6.12323399573677E-017));
#1532=CARTESIAN_POINT('',(-0.9,-3.55147571752732E-016,4.));
#1533=AXIS2_PLACEMENT_3D('',#1534,#1535,#1536);
#1534=CARTESIAN_POINT('',(-2.44929359829471E-016,-2.44929359829471E-016,4.));
#1535=DIRECTION('',(-6.12323399573677E-017,-6.12323399573677E-017,1.));
#1536=DIRECTION('',(-1.,-1.22464679914735E-016,-6.12323399573677E-017));
#1537=CARTESIAN_POINT('',(-0.66,-3.25756048573196E-016,4.));
#1538=AXIS2_PLACEMENT_3D('',#1539,#1540,#1541);
#1539=CARTESIAN_POINT('',(-2.44929359829471E-016,-2.44929359829471E-016,4.));
#1540=DIRECTION('',(-6.12323399573677E-017,-6.12323399573677E-017,1.));
#1541=DIRECTION('',(-1.,-1.22464679914735E-016,-6.12323399573677E-017));
#1542=CARTESIAN_POINT('',(-0.66,-1.07156594925393E-016,0.43));
#1543=AXIS2_PLACEMENT_3D('',#1544,#1545,#1546);
#1544=CARTESIAN_POINT('',(-2.63299061816681E-017,-2.63299061816681E-017,0.43));
#1545=DIRECTION('',(-6.12323399573677E-017,-6.12323399573677E-017,1.));
#1546=DIRECTION('',(-1.,-1.22464679914735E-016,-6.12323399573677E-017));
#1547=CARTESIAN_POINT('',(-0.23,-2.81668763803891E-017,-2.81668763803891E-017));
#1548=AXIS2_PLACEMENT_3D('',#1549,#1550,#1551);
#1549=CARTESIAN_POINT('',(0.,0.,0.));
#1550=DIRECTION('',(-6.12323399573677E-017,-6.12323399573676E-017,1.));
#1551=DIRECTION('',(-1.,-1.22464679914735E-016,-6.12323399573677E-017));
#1552=CARTESIAN_POINT('',(-0.23,1.83697019872103E-016,-3.46));
#1553=AXIS2_PLACEMENT_3D('',#1554,#1555,#1556);
#1554=CARTESIAN_POINT('',(2.11863896252492E-016,2.11863896252492E-016,-3.46));
#1555=DIRECTION('',(-6.12323399573675E-017,-6.12323399573677E-017,1.));
#1556=DIRECTION('',(-1.,-1.22464679914735E-016,-6.12323399573675E-017));
#1557=CARTESIAN_POINT('',(2.24,-5.08228421646152E-016,7.7));
#1558=AXIS2_PLACEMENT_3D('',#1559,#1560,#1561);
#1559=CARTESIAN_POINT('',(2.54,-4.71489017671731E-016,7.7));
#1560=DIRECTION('',(-6.12323399573677E-017,-6.12323399573677E-017,1.));
#1561=DIRECTION('',(-1.,-1.22464679914736E-016,-6.12323399573677E-017));
#1562=CARTESIAN_POINT('',(2.24,-3.42901103761259E-016,5.));
#1563=AXIS2_PLACEMENT_3D('',#1564,#1565,#1566);
#1564=CARTESIAN_POINT('',(2.54,-3.06161699786838E-016,5.));
#1565=DIRECTION('',(-6.12323399573677E-017,-6.12323399573677E-017,1.));
#1566=DIRECTION('',(-1.,-1.22464679914735E-016,-6.12323399573677E-017));
#1567=CARTESIAN_POINT('',(1.64,-4.163799117101E-016,5.));
#1568=AXIS2_PLACEMENT_3D('',#1569,#1570,#1571);
#1569=CARTESIAN_POINT('',(2.54,-3.06161699786838E-016,5.));
#1570=DIRECTION('',(-6.12323399573677E-017,-6.12323399573677E-017,1.));
#1571=DIRECTION('',(-1.,-1.22464679914735E-016,-6.12323399573677E-017));
#1572=CARTESIAN_POINT('',(1.64,-3.55147571752732E-016,4.));
#1573=AXIS2_PLACEMENT_3D('',#1574,#1575,#1576);
#1574=CARTESIAN_POINT('',(2.54,-2.44929359829471E-016,4.));
#1575=DIRECTION('',(-6.12323399573677E-017,-6.12323399573677E-017,1.));
#1576=DIRECTION('',(-1.,-1.22464679914735E-016,-6.12323399573677E-017));
#1577=CARTESIAN_POINT('',(1.88,-3.25756048573196E-016,4.));
#1578=AXIS2_PLACEMENT_3D('',#1579,#1580,#1581);
#1579=CARTESIAN_POINT('',(2.54,-2.44929359829471E-016,4.));
#1580=DIRECTION('',(-6.12323399573677E-017,-6.12323399573677E-017,1.));
#1581=DIRECTION('',(-1.,-1.22464679914735E-016,-6.12323399573677E-017));
#1582=CARTESIAN_POINT('',(1.88,-1.07156594925393E-016,0.43));
#1583=AXIS2_PLACEMENT_3D('',#1584,#1585,#1586);
#1584=CARTESIAN_POINT('',(2.54,-2.63299061816681E-017,0.43));
#1585=DIRECTION('',(-6.12323399573677E-017,-6.12323399573677E-017,1.));
#1586=DIRECTION('',(-1.,-1.22464679914735E-016,-6.12323399573677E-017));
#1587=CARTESIAN_POINT('',(2.31,-2.81668763803891E-017,-2.81668763803891E-017));
#1588=AXIS2_PLACEMENT_3D('',#1589,#1590,#1591);
#1589=CARTESIAN_POINT('',(2.54,0.,0.));
#1590=DIRECTION('',(-6.12323399573677E-017,-6.12323399573676E-017,1.));
#1591=DIRECTION('',(-1.,-1.22464679914735E-016,-6.12323399573677E-017));
#1592=CARTESIAN_POINT('',(2.31,1.83697019872103E-016,-3.46));
#1593=AXIS2_PLACEMENT_3D('',#1594,#1595,#1596);
#1594=CARTESIAN_POINT('',(2.54,2.11863896252492E-016,-3.46));
#1595=DIRECTION('',(-6.12323399573675E-017,-6.12323399573677E-017,1.));
#1596=DIRECTION('',(-1.,-1.22464679914735E-016,-6.12323399573675E-017));
ENDSEC;
END-ISO-10303-21;
