ISO-10303-21;
HEADER;
/* Generated by software containing ST-Developer
 * from STEP Tools, Inc. (www.steptools.com) 
 */

FILE_DESCRIPTION(
/* description */ (''),
/* implementation_level */ '2;1');

FILE_NAME(
/* name */ 
'D:\\_work\\_Projects\\inventor_models\\Component''s Body\\Inventor\\E
PCOS_B40K550\\B3292\\B32924_22x36.5x31.5.stp',
/* time_stamp */ '2024-01-20T16:54:12+04:00',
/* author */ ('ATwice'),
/* organization */ (''),
/* preprocessor_version */ 'ST-DEVELOPER v17.2',
/* originating_system */ 'Autodesk Inventor 2019',
/* authorisation */ '');

FILE_SCHEMA (('AUTOMOTIVE_DESIGN { 1 0 10303 214 3 1 1 }'));
ENDSEC;

DATA;
#10=MECHANICAL_DESIGN_GEOMETRIC_PRESENTATION_REPRESENTATION('',(#574,#575,
#576,#577,#578,#579,#580,#581,#582,#583),#1012);
#11=SHAPE_REPRESENTATION_RELATIONSHIP('SRR','None',#1019,#12);
#12=ADVANCED_BREP_SHAPE_REPRESENTATION('',(#13),#1011);
#13=MANIFOLD_SOLID_BREP('\X2\04220432043504400434043E0435\X0\ \X2\04420435043B043E\X0\1',
#618);
#14=FACE_BOUND('',#91,.T.);
#15=FACE_BOUND('',#92,.T.);
#16=CIRCLE('',#651,0.4);
#17=CIRCLE('',#652,0.4);
#18=CIRCLE('',#672,0.4);
#19=CIRCLE('',#675,0.4);
#20=PLANE('',#646);
#21=PLANE('',#647);
#22=PLANE('',#648);
#23=PLANE('',#649);
#24=PLANE('',#650);
#25=PLANE('',#653);
#26=PLANE('',#654);
#27=PLANE('',#655);
#28=PLANE('',#656);
#29=PLANE('',#657);
#30=PLANE('',#658);
#31=PLANE('',#659);
#32=PLANE('',#660);
#33=PLANE('',#661);
#34=PLANE('',#662);
#35=PLANE('',#663);
#36=PLANE('',#664);
#37=PLANE('',#665);
#38=PLANE('',#666);
#39=PLANE('',#667);
#40=PLANE('',#668);
#41=PLANE('',#669);
#42=PLANE('',#670);
#43=PLANE('',#673);
#44=PLANE('',#676);
#45=PLANE('',#677);
#46=PLANE('',#678);
#47=PLANE('',#679);
#48=FACE_OUTER_BOUND('',#82,.T.);
#49=FACE_OUTER_BOUND('',#83,.T.);
#50=FACE_OUTER_BOUND('',#84,.T.);
#51=FACE_OUTER_BOUND('',#85,.T.);
#52=FACE_OUTER_BOUND('',#86,.T.);
#53=FACE_OUTER_BOUND('',#87,.T.);
#54=FACE_OUTER_BOUND('',#88,.T.);
#55=FACE_OUTER_BOUND('',#89,.T.);
#56=FACE_OUTER_BOUND('',#90,.T.);
#57=FACE_OUTER_BOUND('',#93,.T.);
#58=FACE_OUTER_BOUND('',#94,.T.);
#59=FACE_OUTER_BOUND('',#95,.T.);
#60=FACE_OUTER_BOUND('',#96,.T.);
#61=FACE_OUTER_BOUND('',#97,.T.);
#62=FACE_OUTER_BOUND('',#98,.T.);
#63=FACE_OUTER_BOUND('',#99,.T.);
#64=FACE_OUTER_BOUND('',#100,.T.);
#65=FACE_OUTER_BOUND('',#101,.T.);
#66=FACE_OUTER_BOUND('',#102,.T.);
#67=FACE_OUTER_BOUND('',#103,.T.);
#68=FACE_OUTER_BOUND('',#104,.T.);
#69=FACE_OUTER_BOUND('',#105,.T.);
#70=FACE_OUTER_BOUND('',#106,.T.);
#71=FACE_OUTER_BOUND('',#107,.T.);
#72=FACE_OUTER_BOUND('',#108,.T.);
#73=FACE_OUTER_BOUND('',#109,.T.);
#74=FACE_OUTER_BOUND('',#110,.T.);
#75=FACE_OUTER_BOUND('',#111,.T.);
#76=FACE_OUTER_BOUND('',#112,.T.);
#77=FACE_OUTER_BOUND('',#113,.T.);
#78=FACE_OUTER_BOUND('',#114,.T.);
#79=FACE_OUTER_BOUND('',#115,.T.);
#80=FACE_OUTER_BOUND('',#116,.T.);
#81=FACE_OUTER_BOUND('',#117,.T.);
#82=EDGE_LOOP('',(#404,#405,#406,#407));
#83=EDGE_LOOP('',(#408,#409,#410,#411,#412,#413,#414,#415));
#84=EDGE_LOOP('',(#416,#417,#418,#419));
#85=EDGE_LOOP('',(#420,#421,#422,#423,#424,#425,#426,#427));
#86=EDGE_LOOP('',(#428,#429,#430,#431));
#87=EDGE_LOOP('',(#432,#433,#434,#435));
#88=EDGE_LOOP('',(#436,#437,#438,#439));
#89=EDGE_LOOP('',(#440,#441,#442,#443));
#90=EDGE_LOOP('',(#444,#445,#446,#447));
#91=EDGE_LOOP('',(#448));
#92=EDGE_LOOP('',(#449));
#93=EDGE_LOOP('',(#450,#451,#452,#453));
#94=EDGE_LOOP('',(#454,#455,#456,#457));
#95=EDGE_LOOP('',(#458,#459,#460,#461,#462,#463,#464,#465,#466,#467,#468,
#469));
#96=EDGE_LOOP('',(#470,#471,#472,#473));
#97=EDGE_LOOP('',(#474,#475,#476,#477,#478,#479,#480,#481,#482,#483,#484,
#485));
#98=EDGE_LOOP('',(#486,#487,#488,#489));
#99=EDGE_LOOP('',(#490,#491,#492,#493));
#100=EDGE_LOOP('',(#494,#495,#496,#497));
#101=EDGE_LOOP('',(#498,#499,#500,#501));
#102=EDGE_LOOP('',(#502,#503,#504,#505));
#103=EDGE_LOOP('',(#506,#507,#508,#509));
#104=EDGE_LOOP('',(#510,#511,#512,#513));
#105=EDGE_LOOP('',(#514,#515,#516,#517));
#106=EDGE_LOOP('',(#518,#519,#520,#521,#522,#523,#524,#525));
#107=EDGE_LOOP('',(#526,#527,#528,#529));
#108=EDGE_LOOP('',(#530,#531,#532,#533,#534,#535,#536,#537));
#109=EDGE_LOOP('',(#538,#539,#540,#541));
#110=EDGE_LOOP('',(#542,#543,#544,#545));
#111=EDGE_LOOP('',(#546,#547,#548,#549));
#112=EDGE_LOOP('',(#550));
#113=EDGE_LOOP('',(#551,#552,#553,#554));
#114=EDGE_LOOP('',(#555));
#115=EDGE_LOOP('',(#556,#557,#558,#559));
#116=EDGE_LOOP('',(#560,#561,#562,#563));
#117=EDGE_LOOP('',(#564,#565,#566,#567));
#118=ELLIPSE('',#639,0.282842712474619,0.2);
#119=ELLIPSE('',#640,0.282842712474619,0.2);
#120=ELLIPSE('',#642,0.282842712474618,0.2);
#121=ELLIPSE('',#644,0.282842712474619,0.2);
#122=LINE('',#844,#196);
#123=LINE('',#848,#197);
#124=LINE('',#853,#198);
#125=LINE('',#855,#199);
#126=LINE('',#857,#200);
#127=LINE('',#859,#201);
#128=LINE('',#860,#202);
#129=LINE('',#862,#203);
#130=LINE('',#866,#204);
#131=LINE('',#868,#205);
#132=LINE('',#872,#206);
#133=LINE('',#874,#207);
#134=LINE('',#876,#208);
#135=LINE('',#878,#209);
#136=LINE('',#879,#210);
#137=LINE('',#880,#211);
#138=LINE('',#883,#212);
#139=LINE('',#885,#213);
#140=LINE('',#886,#214);
#141=LINE('',#889,#215);
#142=LINE('',#891,#216);
#143=LINE('',#892,#217);
#144=LINE('',#895,#218);
#145=LINE('',#897,#219);
#146=LINE('',#898,#220);
#147=LINE('',#901,#221);
#148=LINE('',#903,#222);
#149=LINE('',#904,#223);
#150=LINE('',#913,#224);
#151=LINE('',#914,#225);
#152=LINE('',#915,#226);
#153=LINE('',#918,#227);
#154=LINE('',#919,#228);
#155=LINE('',#922,#229);
#156=LINE('',#924,#230);
#157=LINE('',#926,#231);
#158=LINE('',#928,#232);
#159=LINE('',#930,#233);
#160=LINE('',#932,#234);
#161=LINE('',#934,#235);
#162=LINE('',#936,#236);
#163=LINE('',#938,#237);
#164=LINE('',#939,#238);
#165=LINE('',#942,#239);
#166=LINE('',#944,#240);
#167=LINE('',#945,#241);
#168=LINE('',#948,#242);
#169=LINE('',#950,#243);
#170=LINE('',#952,#244);
#171=LINE('',#954,#245);
#172=LINE('',#956,#246);
#173=LINE('',#958,#247);
#174=LINE('',#960,#248);
#175=LINE('',#962,#249);
#176=LINE('',#964,#250);
#177=LINE('',#966,#251);
#178=LINE('',#967,#252);
#179=LINE('',#969,#253);
#180=LINE('',#971,#254);
#181=LINE('',#973,#255);
#182=LINE('',#975,#256);
#183=LINE('',#976,#257);
#184=LINE('',#978,#258);
#185=LINE('',#980,#259);
#186=LINE('',#982,#260);
#187=LINE('',#983,#261);
#188=LINE('',#985,#262);
#189=LINE('',#986,#263);
#190=LINE('',#988,#264);
#191=LINE('',#991,#265);
#192=LINE('',#997,#266);
#193=LINE('',#1002,#267);
#194=LINE('',#1005,#268);
#195=LINE('',#1007,#269);
#196=VECTOR('',#684,10.);
#197=VECTOR('',#687,10.);
#198=VECTOR('',#692,10.);
#199=VECTOR('',#693,10.);
#200=VECTOR('',#694,10.);
#201=VECTOR('',#695,10.);
#202=VECTOR('',#696,10.);
#203=VECTOR('',#697,10.);
#204=VECTOR('',#702,10.);
#205=VECTOR('',#703,10.);
#206=VECTOR('',#708,10.);
#207=VECTOR('',#709,10.);
#208=VECTOR('',#710,10.);
#209=VECTOR('',#711,10.);
#210=VECTOR('',#712,10.);
#211=VECTOR('',#713,10.);
#212=VECTOR('',#716,10.);
#213=VECTOR('',#717,10.);
#214=VECTOR('',#718,10.);
#215=VECTOR('',#721,10.);
#216=VECTOR('',#722,10.);
#217=VECTOR('',#723,10.);
#218=VECTOR('',#726,10.);
#219=VECTOR('',#727,10.);
#220=VECTOR('',#728,10.);
#221=VECTOR('',#731,10.);
#222=VECTOR('',#732,10.);
#223=VECTOR('',#733,10.);
#224=VECTOR('',#742,10.);
#225=VECTOR('',#743,10.);
#226=VECTOR('',#744,10.);
#227=VECTOR('',#747,10.);
#228=VECTOR('',#748,10.);
#229=VECTOR('',#751,10.);
#230=VECTOR('',#752,10.);
#231=VECTOR('',#753,10.);
#232=VECTOR('',#754,10.);
#233=VECTOR('',#755,10.);
#234=VECTOR('',#756,10.);
#235=VECTOR('',#757,10.);
#236=VECTOR('',#758,10.);
#237=VECTOR('',#759,10.);
#238=VECTOR('',#760,10.);
#239=VECTOR('',#763,10.);
#240=VECTOR('',#764,10.);
#241=VECTOR('',#765,10.);
#242=VECTOR('',#768,10.);
#243=VECTOR('',#769,10.);
#244=VECTOR('',#770,10.);
#245=VECTOR('',#771,10.);
#246=VECTOR('',#772,10.);
#247=VECTOR('',#773,10.);
#248=VECTOR('',#774,10.);
#249=VECTOR('',#775,10.);
#250=VECTOR('',#776,10.);
#251=VECTOR('',#777,10.);
#252=VECTOR('',#778,10.);
#253=VECTOR('',#781,10.);
#254=VECTOR('',#784,10.);
#255=VECTOR('',#787,10.);
#256=VECTOR('',#790,10.);
#257=VECTOR('',#791,10.);
#258=VECTOR('',#794,10.);
#259=VECTOR('',#797,10.);
#260=VECTOR('',#800,10.);
#261=VECTOR('',#801,10.);
#262=VECTOR('',#804,10.);
#263=VECTOR('',#805,10.);
#264=VECTOR('',#808,10.);
#265=VECTOR('',#813,10.);
#266=VECTOR('',#822,0.4);
#267=VECTOR('',#829,0.4);
#268=VECTOR('',#834,10.);
#269=VECTOR('',#837,10.);
#270=VERTEX_POINT('',#842);
#271=VERTEX_POINT('',#843);
#272=VERTEX_POINT('',#845);
#273=VERTEX_POINT('',#847);
#274=VERTEX_POINT('',#851);
#275=VERTEX_POINT('',#852);
#276=VERTEX_POINT('',#854);
#277=VERTEX_POINT('',#856);
#278=VERTEX_POINT('',#858);
#279=VERTEX_POINT('',#861);
#280=VERTEX_POINT('',#865);
#281=VERTEX_POINT('',#867);
#282=VERTEX_POINT('',#871);
#283=VERTEX_POINT('',#873);
#284=VERTEX_POINT('',#875);
#285=VERTEX_POINT('',#877);
#286=VERTEX_POINT('',#882);
#287=VERTEX_POINT('',#884);
#288=VERTEX_POINT('',#888);
#289=VERTEX_POINT('',#890);
#290=VERTEX_POINT('',#894);
#291=VERTEX_POINT('',#896);
#292=VERTEX_POINT('',#900);
#293=VERTEX_POINT('',#902);
#294=VERTEX_POINT('',#906);
#295=VERTEX_POINT('',#908);
#296=VERTEX_POINT('',#911);
#297=VERTEX_POINT('',#912);
#298=VERTEX_POINT('',#917);
#299=VERTEX_POINT('',#921);
#300=VERTEX_POINT('',#923);
#301=VERTEX_POINT('',#925);
#302=VERTEX_POINT('',#927);
#303=VERTEX_POINT('',#929);
#304=VERTEX_POINT('',#931);
#305=VERTEX_POINT('',#933);
#306=VERTEX_POINT('',#935);
#307=VERTEX_POINT('',#937);
#308=VERTEX_POINT('',#941);
#309=VERTEX_POINT('',#943);
#310=VERTEX_POINT('',#947);
#311=VERTEX_POINT('',#949);
#312=VERTEX_POINT('',#951);
#313=VERTEX_POINT('',#953);
#314=VERTEX_POINT('',#955);
#315=VERTEX_POINT('',#957);
#316=VERTEX_POINT('',#959);
#317=VERTEX_POINT('',#961);
#318=VERTEX_POINT('',#963);
#319=VERTEX_POINT('',#965);
#320=VERTEX_POINT('',#995);
#321=VERTEX_POINT('',#1000);
#322=EDGE_CURVE('',#270,#271,#122,.T.);
#323=EDGE_CURVE('',#271,#272,#118,.T.);
#324=EDGE_CURVE('',#272,#273,#123,.T.);
#325=EDGE_CURVE('',#270,#273,#119,.T.);
#326=EDGE_CURVE('',#274,#275,#124,.T.);
#327=EDGE_CURVE('',#275,#276,#125,.T.);
#328=EDGE_CURVE('',#276,#277,#126,.T.);
#329=EDGE_CURVE('',#277,#278,#127,.T.);
#330=EDGE_CURVE('',#278,#272,#128,.T.);
#331=EDGE_CURVE('',#271,#279,#129,.T.);
#332=EDGE_CURVE('',#279,#274,#120,.T.);
#333=EDGE_CURVE('',#280,#274,#130,.T.);
#334=EDGE_CURVE('',#279,#281,#131,.T.);
#335=EDGE_CURVE('',#281,#280,#121,.T.);
#336=EDGE_CURVE('',#273,#282,#132,.T.);
#337=EDGE_CURVE('',#282,#283,#133,.T.);
#338=EDGE_CURVE('',#283,#284,#134,.T.);
#339=EDGE_CURVE('',#284,#285,#135,.T.);
#340=EDGE_CURVE('',#285,#280,#136,.T.);
#341=EDGE_CURVE('',#281,#270,#137,.T.);
#342=EDGE_CURVE('',#286,#277,#138,.T.);
#343=EDGE_CURVE('',#287,#286,#139,.T.);
#344=EDGE_CURVE('',#278,#287,#140,.T.);
#345=EDGE_CURVE('',#288,#275,#141,.T.);
#346=EDGE_CURVE('',#289,#288,#142,.T.);
#347=EDGE_CURVE('',#276,#289,#143,.T.);
#348=EDGE_CURVE('',#290,#282,#144,.T.);
#349=EDGE_CURVE('',#291,#290,#145,.T.);
#350=EDGE_CURVE('',#283,#291,#146,.T.);
#351=EDGE_CURVE('',#292,#284,#147,.T.);
#352=EDGE_CURVE('',#293,#292,#148,.T.);
#353=EDGE_CURVE('',#285,#293,#149,.T.);
#354=EDGE_CURVE('',#294,#294,#16,.T.);
#355=EDGE_CURVE('',#295,#295,#17,.T.);
#356=EDGE_CURVE('',#296,#297,#150,.T.);
#357=EDGE_CURVE('',#297,#288,#151,.T.);
#358=EDGE_CURVE('',#275,#296,#152,.T.);
#359=EDGE_CURVE('',#297,#298,#153,.T.);
#360=EDGE_CURVE('',#289,#298,#154,.T.);
#361=EDGE_CURVE('',#296,#299,#155,.T.);
#362=EDGE_CURVE('',#299,#300,#156,.T.);
#363=EDGE_CURVE('',#301,#300,#157,.T.);
#364=EDGE_CURVE('',#302,#301,#158,.T.);
#365=EDGE_CURVE('',#302,#303,#159,.T.);
#366=EDGE_CURVE('',#304,#303,#160,.T.);
#367=EDGE_CURVE('',#305,#304,#161,.T.);
#368=EDGE_CURVE('',#306,#305,#162,.T.);
#369=EDGE_CURVE('',#306,#307,#163,.T.);
#370=EDGE_CURVE('',#298,#307,#164,.T.);
#371=EDGE_CURVE('',#293,#308,#165,.T.);
#372=EDGE_CURVE('',#308,#309,#166,.T.);
#373=EDGE_CURVE('',#309,#285,#167,.T.);
#374=EDGE_CURVE('',#310,#308,#168,.T.);
#375=EDGE_CURVE('',#311,#310,#169,.T.);
#376=EDGE_CURVE('',#311,#312,#170,.T.);
#377=EDGE_CURVE('',#313,#312,#171,.T.);
#378=EDGE_CURVE('',#314,#313,#172,.T.);
#379=EDGE_CURVE('',#315,#314,#173,.T.);
#380=EDGE_CURVE('',#315,#316,#174,.T.);
#381=EDGE_CURVE('',#316,#317,#175,.T.);
#382=EDGE_CURVE('',#318,#317,#176,.T.);
#383=EDGE_CURVE('',#319,#318,#177,.T.);
#384=EDGE_CURVE('',#319,#309,#178,.T.);
#385=EDGE_CURVE('',#310,#292,#179,.T.);
#386=EDGE_CURVE('',#307,#276,#180,.T.);
#387=EDGE_CURVE('',#284,#311,#181,.T.);
#388=EDGE_CURVE('',#314,#290,#182,.T.);
#389=EDGE_CURVE('',#282,#315,#183,.T.);
#390=EDGE_CURVE('',#291,#313,#184,.T.);
#391=EDGE_CURVE('',#312,#283,#185,.T.);
#392=EDGE_CURVE('',#287,#304,#186,.T.);
#393=EDGE_CURVE('',#303,#278,#187,.T.);
#394=EDGE_CURVE('',#305,#286,#188,.T.);
#395=EDGE_CURVE('',#277,#306,#189,.T.);
#396=EDGE_CURVE('',#316,#302,#190,.T.);
#397=EDGE_CURVE('',#299,#319,#191,.T.);
#398=EDGE_CURVE('',#320,#320,#18,.T.);
#399=EDGE_CURVE('',#320,#294,#192,.T.);
#400=EDGE_CURVE('',#321,#321,#19,.T.);
#401=EDGE_CURVE('',#321,#295,#193,.T.);
#402=EDGE_CURVE('',#300,#318,#194,.T.);
#403=EDGE_CURVE('',#317,#301,#195,.T.);
#404=ORIENTED_EDGE('',*,*,#322,.T.);
#405=ORIENTED_EDGE('',*,*,#323,.T.);
#406=ORIENTED_EDGE('',*,*,#324,.T.);
#407=ORIENTED_EDGE('',*,*,#325,.F.);
#408=ORIENTED_EDGE('',*,*,#326,.T.);
#409=ORIENTED_EDGE('',*,*,#327,.T.);
#410=ORIENTED_EDGE('',*,*,#328,.T.);
#411=ORIENTED_EDGE('',*,*,#329,.T.);
#412=ORIENTED_EDGE('',*,*,#330,.T.);
#413=ORIENTED_EDGE('',*,*,#323,.F.);
#414=ORIENTED_EDGE('',*,*,#331,.T.);
#415=ORIENTED_EDGE('',*,*,#332,.T.);
#416=ORIENTED_EDGE('',*,*,#333,.T.);
#417=ORIENTED_EDGE('',*,*,#332,.F.);
#418=ORIENTED_EDGE('',*,*,#334,.T.);
#419=ORIENTED_EDGE('',*,*,#335,.T.);
#420=ORIENTED_EDGE('',*,*,#336,.T.);
#421=ORIENTED_EDGE('',*,*,#337,.T.);
#422=ORIENTED_EDGE('',*,*,#338,.T.);
#423=ORIENTED_EDGE('',*,*,#339,.T.);
#424=ORIENTED_EDGE('',*,*,#340,.T.);
#425=ORIENTED_EDGE('',*,*,#335,.F.);
#426=ORIENTED_EDGE('',*,*,#341,.T.);
#427=ORIENTED_EDGE('',*,*,#325,.T.);
#428=ORIENTED_EDGE('',*,*,#329,.F.);
#429=ORIENTED_EDGE('',*,*,#342,.F.);
#430=ORIENTED_EDGE('',*,*,#343,.F.);
#431=ORIENTED_EDGE('',*,*,#344,.F.);
#432=ORIENTED_EDGE('',*,*,#327,.F.);
#433=ORIENTED_EDGE('',*,*,#345,.F.);
#434=ORIENTED_EDGE('',*,*,#346,.F.);
#435=ORIENTED_EDGE('',*,*,#347,.F.);
#436=ORIENTED_EDGE('',*,*,#337,.F.);
#437=ORIENTED_EDGE('',*,*,#348,.F.);
#438=ORIENTED_EDGE('',*,*,#349,.F.);
#439=ORIENTED_EDGE('',*,*,#350,.F.);
#440=ORIENTED_EDGE('',*,*,#339,.F.);
#441=ORIENTED_EDGE('',*,*,#351,.F.);
#442=ORIENTED_EDGE('',*,*,#352,.F.);
#443=ORIENTED_EDGE('',*,*,#353,.F.);
#444=ORIENTED_EDGE('',*,*,#322,.F.);
#445=ORIENTED_EDGE('',*,*,#341,.F.);
#446=ORIENTED_EDGE('',*,*,#334,.F.);
#447=ORIENTED_EDGE('',*,*,#331,.F.);
#448=ORIENTED_EDGE('',*,*,#354,.F.);
#449=ORIENTED_EDGE('',*,*,#355,.F.);
#450=ORIENTED_EDGE('',*,*,#356,.T.);
#451=ORIENTED_EDGE('',*,*,#357,.T.);
#452=ORIENTED_EDGE('',*,*,#345,.T.);
#453=ORIENTED_EDGE('',*,*,#358,.T.);
#454=ORIENTED_EDGE('',*,*,#357,.F.);
#455=ORIENTED_EDGE('',*,*,#359,.T.);
#456=ORIENTED_EDGE('',*,*,#360,.F.);
#457=ORIENTED_EDGE('',*,*,#346,.T.);
#458=ORIENTED_EDGE('',*,*,#356,.F.);
#459=ORIENTED_EDGE('',*,*,#361,.T.);
#460=ORIENTED_EDGE('',*,*,#362,.T.);
#461=ORIENTED_EDGE('',*,*,#363,.F.);
#462=ORIENTED_EDGE('',*,*,#364,.F.);
#463=ORIENTED_EDGE('',*,*,#365,.T.);
#464=ORIENTED_EDGE('',*,*,#366,.F.);
#465=ORIENTED_EDGE('',*,*,#367,.F.);
#466=ORIENTED_EDGE('',*,*,#368,.F.);
#467=ORIENTED_EDGE('',*,*,#369,.T.);
#468=ORIENTED_EDGE('',*,*,#370,.F.);
#469=ORIENTED_EDGE('',*,*,#359,.F.);
#470=ORIENTED_EDGE('',*,*,#353,.T.);
#471=ORIENTED_EDGE('',*,*,#371,.T.);
#472=ORIENTED_EDGE('',*,*,#372,.T.);
#473=ORIENTED_EDGE('',*,*,#373,.T.);
#474=ORIENTED_EDGE('',*,*,#372,.F.);
#475=ORIENTED_EDGE('',*,*,#374,.F.);
#476=ORIENTED_EDGE('',*,*,#375,.F.);
#477=ORIENTED_EDGE('',*,*,#376,.T.);
#478=ORIENTED_EDGE('',*,*,#377,.F.);
#479=ORIENTED_EDGE('',*,*,#378,.F.);
#480=ORIENTED_EDGE('',*,*,#379,.F.);
#481=ORIENTED_EDGE('',*,*,#380,.T.);
#482=ORIENTED_EDGE('',*,*,#381,.T.);
#483=ORIENTED_EDGE('',*,*,#382,.F.);
#484=ORIENTED_EDGE('',*,*,#383,.F.);
#485=ORIENTED_EDGE('',*,*,#384,.T.);
#486=ORIENTED_EDGE('',*,*,#371,.F.);
#487=ORIENTED_EDGE('',*,*,#352,.T.);
#488=ORIENTED_EDGE('',*,*,#385,.F.);
#489=ORIENTED_EDGE('',*,*,#374,.T.);
#490=ORIENTED_EDGE('',*,*,#347,.T.);
#491=ORIENTED_EDGE('',*,*,#360,.T.);
#492=ORIENTED_EDGE('',*,*,#370,.T.);
#493=ORIENTED_EDGE('',*,*,#386,.T.);
#494=ORIENTED_EDGE('',*,*,#375,.T.);
#495=ORIENTED_EDGE('',*,*,#385,.T.);
#496=ORIENTED_EDGE('',*,*,#351,.T.);
#497=ORIENTED_EDGE('',*,*,#387,.T.);
#498=ORIENTED_EDGE('',*,*,#379,.T.);
#499=ORIENTED_EDGE('',*,*,#388,.T.);
#500=ORIENTED_EDGE('',*,*,#348,.T.);
#501=ORIENTED_EDGE('',*,*,#389,.T.);
#502=ORIENTED_EDGE('',*,*,#388,.F.);
#503=ORIENTED_EDGE('',*,*,#378,.T.);
#504=ORIENTED_EDGE('',*,*,#390,.F.);
#505=ORIENTED_EDGE('',*,*,#349,.T.);
#506=ORIENTED_EDGE('',*,*,#350,.T.);
#507=ORIENTED_EDGE('',*,*,#390,.T.);
#508=ORIENTED_EDGE('',*,*,#377,.T.);
#509=ORIENTED_EDGE('',*,*,#391,.T.);
#510=ORIENTED_EDGE('',*,*,#344,.T.);
#511=ORIENTED_EDGE('',*,*,#392,.T.);
#512=ORIENTED_EDGE('',*,*,#366,.T.);
#513=ORIENTED_EDGE('',*,*,#393,.T.);
#514=ORIENTED_EDGE('',*,*,#368,.T.);
#515=ORIENTED_EDGE('',*,*,#394,.T.);
#516=ORIENTED_EDGE('',*,*,#342,.T.);
#517=ORIENTED_EDGE('',*,*,#395,.T.);
#518=ORIENTED_EDGE('',*,*,#324,.F.);
#519=ORIENTED_EDGE('',*,*,#330,.F.);
#520=ORIENTED_EDGE('',*,*,#393,.F.);
#521=ORIENTED_EDGE('',*,*,#365,.F.);
#522=ORIENTED_EDGE('',*,*,#396,.F.);
#523=ORIENTED_EDGE('',*,*,#380,.F.);
#524=ORIENTED_EDGE('',*,*,#389,.F.);
#525=ORIENTED_EDGE('',*,*,#336,.F.);
#526=ORIENTED_EDGE('',*,*,#328,.F.);
#527=ORIENTED_EDGE('',*,*,#386,.F.);
#528=ORIENTED_EDGE('',*,*,#369,.F.);
#529=ORIENTED_EDGE('',*,*,#395,.F.);
#530=ORIENTED_EDGE('',*,*,#361,.F.);
#531=ORIENTED_EDGE('',*,*,#358,.F.);
#532=ORIENTED_EDGE('',*,*,#326,.F.);
#533=ORIENTED_EDGE('',*,*,#333,.F.);
#534=ORIENTED_EDGE('',*,*,#340,.F.);
#535=ORIENTED_EDGE('',*,*,#373,.F.);
#536=ORIENTED_EDGE('',*,*,#384,.F.);
#537=ORIENTED_EDGE('',*,*,#397,.F.);
#538=ORIENTED_EDGE('',*,*,#338,.F.);
#539=ORIENTED_EDGE('',*,*,#391,.F.);
#540=ORIENTED_EDGE('',*,*,#376,.F.);
#541=ORIENTED_EDGE('',*,*,#387,.F.);
#542=ORIENTED_EDGE('',*,*,#392,.F.);
#543=ORIENTED_EDGE('',*,*,#343,.T.);
#544=ORIENTED_EDGE('',*,*,#394,.F.);
#545=ORIENTED_EDGE('',*,*,#367,.T.);
#546=ORIENTED_EDGE('',*,*,#398,.F.);
#547=ORIENTED_EDGE('',*,*,#399,.T.);
#548=ORIENTED_EDGE('',*,*,#354,.T.);
#549=ORIENTED_EDGE('',*,*,#399,.F.);
#550=ORIENTED_EDGE('',*,*,#398,.T.);
#551=ORIENTED_EDGE('',*,*,#400,.F.);
#552=ORIENTED_EDGE('',*,*,#401,.T.);
#553=ORIENTED_EDGE('',*,*,#355,.T.);
#554=ORIENTED_EDGE('',*,*,#401,.F.);
#555=ORIENTED_EDGE('',*,*,#400,.T.);
#556=ORIENTED_EDGE('',*,*,#397,.T.);
#557=ORIENTED_EDGE('',*,*,#383,.T.);
#558=ORIENTED_EDGE('',*,*,#402,.F.);
#559=ORIENTED_EDGE('',*,*,#362,.F.);
#560=ORIENTED_EDGE('',*,*,#396,.T.);
#561=ORIENTED_EDGE('',*,*,#364,.T.);
#562=ORIENTED_EDGE('',*,*,#403,.F.);
#563=ORIENTED_EDGE('',*,*,#381,.F.);
#564=ORIENTED_EDGE('',*,*,#382,.T.);
#565=ORIENTED_EDGE('',*,*,#403,.T.);
#566=ORIENTED_EDGE('',*,*,#363,.T.);
#567=ORIENTED_EDGE('',*,*,#402,.T.);
#568=CYLINDRICAL_SURFACE('',#638,0.2);
#569=CYLINDRICAL_SURFACE('',#641,0.2);
#570=CYLINDRICAL_SURFACE('',#643,0.2);
#571=CYLINDRICAL_SURFACE('',#645,0.2);
#572=CYLINDRICAL_SURFACE('',#671,0.4);
#573=CYLINDRICAL_SURFACE('',#674,0.4);
#574=STYLED_ITEM('',(#1029),#584);
#575=STYLED_ITEM('',(#1029),#585);
#576=STYLED_ITEM('',(#1029),#586);
#577=STYLED_ITEM('',(#1029),#587);
#578=STYLED_ITEM('',(#1029),#592);
#579=STYLED_ITEM('',(#1030),#611);
#580=STYLED_ITEM('',(#1030),#612);
#581=STYLED_ITEM('',(#1030),#613);
#582=STYLED_ITEM('',(#1030),#614);
#583=STYLED_ITEM('',(#1028),#13);
#584=ADVANCED_FACE('',(#48),#568,.F.);
#585=ADVANCED_FACE('',(#49),#569,.F.);
#586=ADVANCED_FACE('',(#50),#570,.F.);
#587=ADVANCED_FACE('',(#51),#571,.F.);
#588=ADVANCED_FACE('',(#52),#20,.F.);
#589=ADVANCED_FACE('',(#53),#21,.F.);
#590=ADVANCED_FACE('',(#54),#22,.F.);
#591=ADVANCED_FACE('',(#55),#23,.F.);
#592=ADVANCED_FACE('',(#56,#14,#15),#24,.F.);
#593=ADVANCED_FACE('',(#57),#25,.T.);
#594=ADVANCED_FACE('',(#58),#26,.F.);
#595=ADVANCED_FACE('',(#59),#27,.T.);
#596=ADVANCED_FACE('',(#60),#28,.T.);
#597=ADVANCED_FACE('',(#61),#29,.T.);
#598=ADVANCED_FACE('',(#62),#30,.F.);
#599=ADVANCED_FACE('',(#63),#31,.T.);
#600=ADVANCED_FACE('',(#64),#32,.T.);
#601=ADVANCED_FACE('',(#65),#33,.T.);
#602=ADVANCED_FACE('',(#66),#34,.F.);
#603=ADVANCED_FACE('',(#67),#35,.T.);
#604=ADVANCED_FACE('',(#68),#36,.T.);
#605=ADVANCED_FACE('',(#69),#37,.T.);
#606=ADVANCED_FACE('',(#70),#38,.F.);
#607=ADVANCED_FACE('',(#71),#39,.F.);
#608=ADVANCED_FACE('',(#72),#40,.F.);
#609=ADVANCED_FACE('',(#73),#41,.F.);
#610=ADVANCED_FACE('',(#74),#42,.F.);
#611=ADVANCED_FACE('',(#75),#572,.T.);
#612=ADVANCED_FACE('',(#76),#43,.F.);
#613=ADVANCED_FACE('',(#77),#573,.T.);
#614=ADVANCED_FACE('',(#78),#44,.F.);
#615=ADVANCED_FACE('',(#79),#45,.T.);
#616=ADVANCED_FACE('',(#80),#46,.T.);
#617=ADVANCED_FACE('',(#81),#47,.T.);
#618=CLOSED_SHELL('',(#584,#585,#586,#587,#588,#589,#590,#591,#592,#593,
#594,#595,#596,#597,#598,#599,#600,#601,#602,#603,#604,#605,#606,#607,#608,
#609,#610,#611,#612,#613,#614,#615,#616,#617));
#619=DERIVED_UNIT_ELEMENT(#621,1.);
#620=DERIVED_UNIT_ELEMENT(#1014,3.);
#621=(
MASS_UNIT()
NAMED_UNIT(*)
SI_UNIT($,.GRAM.)
);
#622=DERIVED_UNIT((#619,#620));
#623=MEASURE_REPRESENTATION_ITEM('density measure',
POSITIVE_RATIO_MEASURE(1.),#622);
#624=PROPERTY_DEFINITION_REPRESENTATION(#629,#626);
#625=PROPERTY_DEFINITION_REPRESENTATION(#630,#627);
#626=REPRESENTATION('material name',(#628),#1011);
#627=REPRESENTATION('density',(#623),#1011);
#628=DESCRIPTIVE_REPRESENTATION_ITEM('\X2\04220438043F043E0432044B0435\X0\',
'\X2\04220438043F043E0432044B0435\X0\');
#629=PROPERTY_DEFINITION('material property','material name',#1021);
#630=PROPERTY_DEFINITION('material property','density of part',#1021);
#631=DATE_TIME_ROLE('creation_date');
#632=APPLIED_DATE_AND_TIME_ASSIGNMENT(#633,#631,(#1021));
#633=DATE_AND_TIME(#634,#635);
#634=CALENDAR_DATE(2024,20,1);
#635=LOCAL_TIME(6,58,8.,#636);
#636=COORDINATED_UNIVERSAL_TIME_OFFSET(0,0,.BEHIND.);
#637=AXIS2_PLACEMENT_3D('placement',#840,#680,#681);
#638=AXIS2_PLACEMENT_3D('',#841,#682,#683);
#639=AXIS2_PLACEMENT_3D('',#846,#685,#686);
#640=AXIS2_PLACEMENT_3D('',#849,#688,#689);
#641=AXIS2_PLACEMENT_3D('',#850,#690,#691);
#642=AXIS2_PLACEMENT_3D('',#863,#698,#699);
#643=AXIS2_PLACEMENT_3D('',#864,#700,#701);
#644=AXIS2_PLACEMENT_3D('',#869,#704,#705);
#645=AXIS2_PLACEMENT_3D('',#870,#706,#707);
#646=AXIS2_PLACEMENT_3D('',#881,#714,#715);
#647=AXIS2_PLACEMENT_3D('',#887,#719,#720);
#648=AXIS2_PLACEMENT_3D('',#893,#724,#725);
#649=AXIS2_PLACEMENT_3D('',#899,#729,#730);
#650=AXIS2_PLACEMENT_3D('',#905,#734,#735);
#651=AXIS2_PLACEMENT_3D('',#907,#736,#737);
#652=AXIS2_PLACEMENT_3D('',#909,#738,#739);
#653=AXIS2_PLACEMENT_3D('',#910,#740,#741);
#654=AXIS2_PLACEMENT_3D('',#916,#745,#746);
#655=AXIS2_PLACEMENT_3D('',#920,#749,#750);
#656=AXIS2_PLACEMENT_3D('',#940,#761,#762);
#657=AXIS2_PLACEMENT_3D('',#946,#766,#767);
#658=AXIS2_PLACEMENT_3D('',#968,#779,#780);
#659=AXIS2_PLACEMENT_3D('',#970,#782,#783);
#660=AXIS2_PLACEMENT_3D('',#972,#785,#786);
#661=AXIS2_PLACEMENT_3D('',#974,#788,#789);
#662=AXIS2_PLACEMENT_3D('',#977,#792,#793);
#663=AXIS2_PLACEMENT_3D('',#979,#795,#796);
#664=AXIS2_PLACEMENT_3D('',#981,#798,#799);
#665=AXIS2_PLACEMENT_3D('',#984,#802,#803);
#666=AXIS2_PLACEMENT_3D('',#987,#806,#807);
#667=AXIS2_PLACEMENT_3D('',#989,#809,#810);
#668=AXIS2_PLACEMENT_3D('',#990,#811,#812);
#669=AXIS2_PLACEMENT_3D('',#992,#814,#815);
#670=AXIS2_PLACEMENT_3D('',#993,#816,#817);
#671=AXIS2_PLACEMENT_3D('',#994,#818,#819);
#672=AXIS2_PLACEMENT_3D('',#996,#820,#821);
#673=AXIS2_PLACEMENT_3D('',#998,#823,#824);
#674=AXIS2_PLACEMENT_3D('',#999,#825,#826);
#675=AXIS2_PLACEMENT_3D('',#1001,#827,#828);
#676=AXIS2_PLACEMENT_3D('',#1003,#830,#831);
#677=AXIS2_PLACEMENT_3D('',#1004,#832,#833);
#678=AXIS2_PLACEMENT_3D('',#1006,#835,#836);
#679=AXIS2_PLACEMENT_3D('',#1008,#838,#839);
#680=DIRECTION('axis',(0.,0.,1.));
#681=DIRECTION('refdir',(1.,0.,0.));
#682=DIRECTION('center_axis',(1.02798428206365E-16,-1.,0.));
#683=DIRECTION('ref_axis',(-0.707106781186548,0.,0.707106781186547));
#684=DIRECTION('',(1.02798428206365E-16,-1.,0.));
#685=DIRECTION('center_axis',(0.707106781186548,-0.707106781186548,0.));
#686=DIRECTION('ref_axis',(0.707106781186547,0.707106781186547,0.));
#687=DIRECTION('',(-1.02798428206365E-16,1.,0.));
#688=DIRECTION('center_axis',(-0.707106781186548,-0.707106781186548,-7.85046229341888E-15));
#689=DIRECTION('ref_axis',(0.707106781186547,-0.707106781186547,-7.85046229341887E-15));
#690=DIRECTION('center_axis',(1.,0.,0.));
#691=DIRECTION('ref_axis',(0.,-0.707106781186548,0.707106781186547));
#692=DIRECTION('',(-1.,0.,0.));
#693=DIRECTION('',(-1.,0.,0.));
#694=DIRECTION('',(-1.,0.,0.));
#695=DIRECTION('',(-1.,0.,0.));
#696=DIRECTION('',(-1.,0.,0.));
#697=DIRECTION('',(1.,0.,0.));
#698=DIRECTION('center_axis',(0.707106781186551,0.707106781186544,0.));
#699=DIRECTION('ref_axis',(-0.707106781186544,0.707106781186551,0.));
#700=DIRECTION('center_axis',(1.02798428206365E-16,1.,0.));
#701=DIRECTION('ref_axis',(0.70710678118654,0.,0.707106781186555));
#702=DIRECTION('',(-1.02798428206365E-16,-1.,0.));
#703=DIRECTION('',(1.02798428206365E-16,1.,0.));
#704=DIRECTION('center_axis',(-0.707106781186548,0.707106781186548,0.));
#705=DIRECTION('ref_axis',(-0.707106781186547,-0.707106781186547,0.));
#706=DIRECTION('center_axis',(-1.,7.13969790757331E-17,0.));
#707=DIRECTION('ref_axis',(0.,0.707106781186548,0.707106781186547));
#708=DIRECTION('',(1.,-7.13969790757331E-17,0.));
#709=DIRECTION('',(1.,-7.13969790757331E-17,0.));
#710=DIRECTION('',(1.,-7.13969790757331E-17,0.));
#711=DIRECTION('',(1.,-7.13969790757331E-17,0.));
#712=DIRECTION('',(1.,-7.13969790757331E-17,0.));
#713=DIRECTION('',(-1.,7.13969790757331E-17,0.));
#714=DIRECTION('center_axis',(0.,-1.,0.));
#715=DIRECTION('ref_axis',(1.,0.,0.));
#716=DIRECTION('',(0.707106781186548,0.,0.707106781186547));
#717=DIRECTION('',(1.,0.,0.));
#718=DIRECTION('',(0.707106781186548,0.,-0.707106781186547));
#719=DIRECTION('center_axis',(0.,-1.,0.));
#720=DIRECTION('ref_axis',(1.,0.,0.));
#721=DIRECTION('',(0.707106781186548,0.,0.707106781186547));
#722=DIRECTION('',(1.,0.,0.));
#723=DIRECTION('',(0.707106781186547,0.,-0.707106781186548));
#724=DIRECTION('center_axis',(7.13969790757331E-17,1.,0.));
#725=DIRECTION('ref_axis',(-1.,7.13969790757331E-17,0.));
#726=DIRECTION('',(-0.707106781186548,5.04852880606849E-17,0.707106781186547));
#727=DIRECTION('',(-1.,7.13969790757331E-17,0.));
#728=DIRECTION('',(-0.707106781186547,5.04852880606849E-17,-0.707106781186548));
#729=DIRECTION('center_axis',(7.13969790757331E-17,1.,0.));
#730=DIRECTION('ref_axis',(-1.,7.13969790757331E-17,0.));
#731=DIRECTION('',(-0.707106781186547,5.04852880606849E-17,0.707106781186548));
#732=DIRECTION('',(-1.,7.13969790757331E-17,0.));
#733=DIRECTION('',(-0.707106781186548,5.04852880606849E-17,-0.707106781186547));
#734=DIRECTION('center_axis',(0.,0.,1.));
#735=DIRECTION('ref_axis',(1.,0.,0.));
#736=DIRECTION('center_axis',(0.,0.,-1.));
#737=DIRECTION('ref_axis',(1.,0.,0.));
#738=DIRECTION('center_axis',(0.,0.,-1.));
#739=DIRECTION('ref_axis',(1.,0.,0.));
#740=DIRECTION('center_axis',(0.707106781186547,0.,-0.707106781186548));
#741=DIRECTION('ref_axis',(-0.707106781186548,0.,-0.707106781186547));
#742=DIRECTION('',(-0.707106781186548,-9.96884100751604E-17,-0.707106781186547));
#743=DIRECTION('',(0.,1.,0.));
#744=DIRECTION('',(0.,-1.,0.));
#745=DIRECTION('center_axis',(0.,0.,1.));
#746=DIRECTION('ref_axis',(1.,0.,0.));
#747=DIRECTION('',(-1.,-1.40980701539702E-16,0.));
#748=DIRECTION('',(2.7755575610782E-15,-1.,0.));
#749=DIRECTION('center_axis',(1.40980701539702E-16,-1.,0.));
#750=DIRECTION('ref_axis',(1.,1.40980701539702E-16,0.));
#751=DIRECTION('',(1.,1.40980701539702E-16,0.));
#752=DIRECTION('',(0.,0.,1.));
#753=DIRECTION('',(1.,1.40980701539702E-16,0.));
#754=DIRECTION('',(0.,0.,1.));
#755=DIRECTION('',(1.,1.40980701539702E-16,0.));
#756=DIRECTION('',(-0.707106781186548,-9.96884100751604E-17,0.707106781186547));
#757=DIRECTION('',(-1.,-1.40980701539702E-16,0.));
#758=DIRECTION('',(-0.707106781186548,-9.96884100751604E-17,-0.707106781186547));
#759=DIRECTION('',(1.,1.40980701539702E-16,0.));
#760=DIRECTION('',(-0.707106781186547,-9.96884100751602E-17,0.707106781186548));
#761=DIRECTION('center_axis',(0.707106781186547,0.,-0.707106781186548));
#762=DIRECTION('ref_axis',(-0.707106781186548,0.,-0.707106781186547));
#763=DIRECTION('',(0.,1.,0.));
#764=DIRECTION('',(0.707106781186548,0.,0.707106781186547));
#765=DIRECTION('',(0.,-1.,0.));
#766=DIRECTION('center_axis',(0.,1.,0.));
#767=DIRECTION('ref_axis',(-1.,0.,0.));
#768=DIRECTION('',(1.,0.,0.));
#769=DIRECTION('',(0.707106781186547,0.,-0.707106781186548));
#770=DIRECTION('',(-1.,0.,0.));
#771=DIRECTION('',(0.707106781186547,0.,0.707106781186548));
#772=DIRECTION('',(1.,0.,0.));
#773=DIRECTION('',(0.707106781186548,0.,-0.707106781186547));
#774=DIRECTION('',(-1.,0.,0.));
#775=DIRECTION('',(0.,0.,1.));
#776=DIRECTION('',(-1.,0.,0.));
#777=DIRECTION('',(0.,0.,1.));
#778=DIRECTION('',(-1.,0.,0.));
#779=DIRECTION('center_axis',(0.,0.,1.));
#780=DIRECTION('ref_axis',(1.,0.,0.));
#781=DIRECTION('',(-2.7755575610782E-15,-1.,0.));
#782=DIRECTION('center_axis',(-0.707106781186548,-1.96261557301199E-15,
-0.707106781186547));
#783=DIRECTION('ref_axis',(-0.707106781186547,0.,0.707106781186548));
#784=DIRECTION('',(-2.7755575610782E-15,1.,0.));
#785=DIRECTION('center_axis',(-0.707106781186548,1.96261557301199E-15,-0.707106781186547));
#786=DIRECTION('ref_axis',(-0.707106781186547,0.,0.707106781186548));
#787=DIRECTION('',(2.7755575610782E-15,1.,0.));
#788=DIRECTION('center_axis',(-0.707106781186547,-7.85046229204805E-15,
-0.707106781186548));
#789=DIRECTION('ref_axis',(-0.707106781186548,0.,0.707106781186547));
#790=DIRECTION('',(1.11022302443129E-14,-1.,0.));
#791=DIRECTION('',(-1.11022302443129E-14,1.,0.));
#792=DIRECTION('center_axis',(0.,0.,1.));
#793=DIRECTION('ref_axis',(1.,0.,0.));
#794=DIRECTION('',(5.5511151221564E-15,1.,0.));
#795=DIRECTION('center_axis',(0.707106781186548,-3.92523114602399E-15,-0.707106781186547));
#796=DIRECTION('ref_axis',(-0.707106781186547,0.,-0.707106781186548));
#797=DIRECTION('',(-5.5511151221564E-15,-1.,0.));
#798=DIRECTION('center_axis',(-0.707106781186547,0.,-0.707106781186548));
#799=DIRECTION('ref_axis',(-0.707106781186548,0.,0.707106781186547));
#800=DIRECTION('',(0.,-1.,0.));
#801=DIRECTION('',(0.,1.,0.));
#802=DIRECTION('center_axis',(0.707106781186547,1.96261557301199E-15,-0.707106781186548));
#803=DIRECTION('ref_axis',(-0.707106781186548,0.,-0.707106781186547));
#804=DIRECTION('',(-2.7755575610782E-15,1.,0.));
#805=DIRECTION('',(2.7755575610782E-15,-1.,0.));
#806=DIRECTION('center_axis',(0.,0.,1.));
#807=DIRECTION('ref_axis',(1.,0.,0.));
#808=DIRECTION('',(2.01858731750028E-16,-1.,0.));
#809=DIRECTION('center_axis',(0.,0.,1.));
#810=DIRECTION('ref_axis',(1.,0.,0.));
#811=DIRECTION('center_axis',(0.,0.,1.));
#812=DIRECTION('ref_axis',(1.,0.,0.));
#813=DIRECTION('',(0.,1.,0.));
#814=DIRECTION('center_axis',(0.,0.,1.));
#815=DIRECTION('ref_axis',(1.,0.,0.));
#816=DIRECTION('center_axis',(0.,0.,1.));
#817=DIRECTION('ref_axis',(1.,0.,0.));
#818=DIRECTION('center_axis',(0.,0.,-1.));
#819=DIRECTION('ref_axis',(1.,0.,0.));
#820=DIRECTION('center_axis',(0.,0.,-1.));
#821=DIRECTION('ref_axis',(1.,0.,0.));
#822=DIRECTION('',(0.,0.,1.));
#823=DIRECTION('center_axis',(0.,0.,1.));
#824=DIRECTION('ref_axis',(1.,0.,0.));
#825=DIRECTION('center_axis',(0.,0.,-1.));
#826=DIRECTION('ref_axis',(1.,0.,0.));
#827=DIRECTION('center_axis',(0.,0.,-1.));
#828=DIRECTION('ref_axis',(1.,0.,0.));
#829=DIRECTION('',(0.,0.,1.));
#830=DIRECTION('center_axis',(0.,0.,1.));
#831=DIRECTION('ref_axis',(1.,0.,0.));
#832=DIRECTION('center_axis',(1.,0.,0.));
#833=DIRECTION('ref_axis',(0.,1.,0.));
#834=DIRECTION('',(0.,1.,0.));
#835=DIRECTION('center_axis',(-1.,-2.01858731750028E-16,0.));
#836=DIRECTION('ref_axis',(2.01858731750028E-16,-1.,0.));
#837=DIRECTION('',(2.01858731750028E-16,-1.,0.));
#838=DIRECTION('center_axis',(0.,0.,1.));
#839=DIRECTION('ref_axis',(1.,0.,0.));
#840=CARTESIAN_POINT('',(0.,0.,0.));
#841=CARTESIAN_POINT('Origin',(-15.3499999999651,5.39999999998254,0.3));
#842=CARTESIAN_POINT('',(-15.3499999999651,10.5999999999651,0.5));
#843=CARTESIAN_POINT('',(-15.3499999999651,-10.5999999999651,0.5));
#844=CARTESIAN_POINT('',(-15.3499999999651,5.39999999998254,0.5));
#845=CARTESIAN_POINT('',(-15.5499999999651,-10.7999999999651,0.3));
#846=CARTESIAN_POINT('Origin',(-15.3499999999651,-10.5999999999651,0.3));
#847=CARTESIAN_POINT('',(-15.5499999999651,10.7999999999651,0.3));
#848=CARTESIAN_POINT('',(-15.5499999999651,5.39999999998254,0.3));
#849=CARTESIAN_POINT('Origin',(-15.3499999999651,10.5999999999651,0.3));
#850=CARTESIAN_POINT('Origin',(-7.77499999998254,-10.5999999999651,0.3));
#851=CARTESIAN_POINT('',(15.5499999999651,-10.7999999999651,0.3));
#852=CARTESIAN_POINT('',(9.45,-10.7999999999651,0.3));
#853=CARTESIAN_POINT('',(-0.302758007109024,-10.7999999999651,0.3));
#854=CARTESIAN_POINT('',(3.15,-10.7999999999651,0.3));
#855=CARTESIAN_POINT('',(-7.77499999998254,-10.7999999999651,0.3));
#856=CARTESIAN_POINT('',(-3.15000000000001,-10.7999999999651,0.3));
#857=CARTESIAN_POINT('',(-7.77499999998254,-10.7999999999651,0.3));
#858=CARTESIAN_POINT('',(-9.45,-10.7999999999651,0.3));
#859=CARTESIAN_POINT('',(-7.77499999998254,-10.7999999999651,0.3));
#860=CARTESIAN_POINT('',(-15.0236918604385,-10.7999999999651,0.3));
#861=CARTESIAN_POINT('',(15.3499999999651,-10.5999999999651,0.5));
#862=CARTESIAN_POINT('',(-7.77499999998254,-10.5999999999651,0.5));
#863=CARTESIAN_POINT('Origin',(15.3499999999651,-10.5999999999651,0.3));
#864=CARTESIAN_POINT('Origin',(15.3499999999651,-5.39999999998254,0.3));
#865=CARTESIAN_POINT('',(15.5499999999651,10.7999999999651,0.3));
#866=CARTESIAN_POINT('',(15.5499999999651,-6.62224199286479,0.3));
#867=CARTESIAN_POINT('',(15.3499999999651,10.5999999999651,0.5));
#868=CARTESIAN_POINT('',(15.3499999999651,-5.39999999998254,0.5));
#869=CARTESIAN_POINT('Origin',(15.3499999999651,10.5999999999651,0.3));
#870=CARTESIAN_POINT('Origin',(7.77499999998254,10.5999999999651,0.3));
#871=CARTESIAN_POINT('',(-9.44999999999999,10.7999999999651,0.3));
#872=CARTESIAN_POINT('',(0.526308139526533,10.7999999999651,0.3));
#873=CARTESIAN_POINT('',(-3.15,10.7999999999651,0.3));
#874=CARTESIAN_POINT('',(7.77499999998254,10.7999999999651,0.3));
#875=CARTESIAN_POINT('',(3.15,10.7999999999651,0.3));
#876=CARTESIAN_POINT('',(7.77499999998254,10.7999999999651,0.3));
#877=CARTESIAN_POINT('',(9.45,10.7999999999651,0.3));
#878=CARTESIAN_POINT('',(7.77499999998254,10.7999999999651,0.3));
#879=CARTESIAN_POINT('',(15.2472419928561,10.7999999999651,0.3));
#880=CARTESIAN_POINT('',(7.77499999998254,10.5999999999651,0.5));
#881=CARTESIAN_POINT('Origin',(-15.5499999999651,-10.7999999999651,0.));
#882=CARTESIAN_POINT('',(-3.45000000000001,-10.7999999999651,0.));
#883=CARTESIAN_POINT('',(-6.39999999999128,-10.7999999999651,-2.94999999999127));
#884=CARTESIAN_POINT('',(-9.15,-10.7999999999651,0.));
#885=CARTESIAN_POINT('',(-7.77499999998254,-10.7999999999651,0.));
#886=CARTESIAN_POINT('',(-10.8249999999913,-10.7999999999651,1.67499999999127));
#887=CARTESIAN_POINT('Origin',(-15.5499999999651,-10.7999999999651,0.));
#888=CARTESIAN_POINT('',(9.15,-10.7999999999651,0.));
#889=CARTESIAN_POINT('',(3.05000000000872,-10.7999999999651,-6.09999999999127));
#890=CARTESIAN_POINT('',(3.44999999999999,-10.7999999999651,0.));
#891=CARTESIAN_POINT('',(-7.77499999998254,-10.7999999999651,0.));
#892=CARTESIAN_POINT('',(-1.37499999999127,-10.7999999999651,4.82499999999127));
#893=CARTESIAN_POINT('Origin',(15.5499999999651,10.7999999999651,0.));
#894=CARTESIAN_POINT('',(-9.14999999999999,10.7999999999651,0.));
#895=CARTESIAN_POINT('',(-3.0500000000087,10.7999999999651,-6.09999999999128));
#896=CARTESIAN_POINT('',(-3.45,10.7999999999651,0.));
#897=CARTESIAN_POINT('',(7.77499999998254,10.7999999999651,0.));
#898=CARTESIAN_POINT('',(1.37499999999126,10.7999999999651,4.82499999999126));
#899=CARTESIAN_POINT('Origin',(15.5499999999651,10.7999999999651,0.));
#900=CARTESIAN_POINT('',(3.45,10.7999999999651,0.));
#901=CARTESIAN_POINT('',(6.39999999999126,10.7999999999651,-2.94999999999126));
#902=CARTESIAN_POINT('',(9.15,10.7999999999651,0.));
#903=CARTESIAN_POINT('',(7.77499999998254,10.7999999999651,0.));
#904=CARTESIAN_POINT('',(10.8249999999913,10.7999999999651,1.67499999999127));
#905=CARTESIAN_POINT('Origin',(-4.44089209850063E-15,-2.22044604925031E-15,
0.5));
#906=CARTESIAN_POINT('',(-14.15,4.89858719658941E-17,0.5));
#907=CARTESIAN_POINT('Origin',(-13.75,0.,0.5));
#908=CARTESIAN_POINT('',(13.35,4.89858719658941E-17,0.5));
#909=CARTESIAN_POINT('Origin',(13.75,0.,0.5));
#910=CARTESIAN_POINT('Origin',(9.3,-5.39999999998254,0.15));
#911=CARTESIAN_POINT('',(9.45,-11.,0.3));
#912=CARTESIAN_POINT('',(9.15,-11.,0.));
#913=CARTESIAN_POINT('',(2.99999999999999,-11.,-6.15));
#914=CARTESIAN_POINT('',(9.15,-5.39999999998254,0.));
#915=CARTESIAN_POINT('',(9.45,-11.,0.3));
#916=CARTESIAN_POINT('Origin',(-4.35788476955669E-15,-4.56540309191653E-16,
0.));
#917=CARTESIAN_POINT('',(3.45,-11.,0.));
#918=CARTESIAN_POINT('',(15.75,-11.,0.));
#919=CARTESIAN_POINT('',(3.44999999999998,-5.5,0.));
#920=CARTESIAN_POINT('Origin',(-15.75,-11.,0.));
#921=CARTESIAN_POINT('',(15.75,-11.,0.3));
#922=CARTESIAN_POINT('',(-0.402758007126485,-11.,0.3));
#923=CARTESIAN_POINT('',(15.75,-11.,36.5));
#924=CARTESIAN_POINT('',(15.75,-11.,0.));
#925=CARTESIAN_POINT('',(-15.75,-11.,36.5));
#926=CARTESIAN_POINT('',(15.75,-11.,36.5));
#927=CARTESIAN_POINT('',(-15.75,-11.,0.3));
#928=CARTESIAN_POINT('',(-15.75,-11.,0.));
#929=CARTESIAN_POINT('',(-9.45,-11.,0.3));
#930=CARTESIAN_POINT('',(-15.123691860456,-11.,0.3));
#931=CARTESIAN_POINT('',(-9.15,-11.,0.));
#932=CARTESIAN_POINT('',(-10.875,-11.,1.725));
#933=CARTESIAN_POINT('',(-3.45000000000001,-11.,0.));
#934=CARTESIAN_POINT('',(15.75,-11.,0.));
#935=CARTESIAN_POINT('',(-3.15000000000001,-11.,0.3));
#936=CARTESIAN_POINT('',(-6.45000000000001,-11.,-3.));
#937=CARTESIAN_POINT('',(3.15,-11.,0.3));
#938=CARTESIAN_POINT('',(-7.87500000000001,-11.,0.3));
#939=CARTESIAN_POINT('',(-1.42499999999999,-11.,4.875));
#940=CARTESIAN_POINT('Origin',(9.3,5.5,0.15));
#941=CARTESIAN_POINT('',(9.15,11.,0.));
#942=CARTESIAN_POINT('',(9.15,5.5,0.));
#943=CARTESIAN_POINT('',(9.45,11.,0.3));
#944=CARTESIAN_POINT('',(10.875,11.,1.725));
#945=CARTESIAN_POINT('',(9.45,11.,0.3));
#946=CARTESIAN_POINT('Origin',(15.75,11.,0.));
#947=CARTESIAN_POINT('',(3.45,11.,0.));
#948=CARTESIAN_POINT('',(-15.75,11.,0.));
#949=CARTESIAN_POINT('',(3.15,11.,0.3));
#950=CARTESIAN_POINT('',(6.44999999999999,11.,-2.99999999999999));
#951=CARTESIAN_POINT('',(-3.15,11.,0.3));
#952=CARTESIAN_POINT('',(7.875,11.,0.3));
#953=CARTESIAN_POINT('',(-3.45,11.,0.));
#954=CARTESIAN_POINT('',(1.42499999999999,11.,4.87499999999999));
#955=CARTESIAN_POINT('',(-9.14999999999999,11.,0.));
#956=CARTESIAN_POINT('',(-15.75,11.,0.));
#957=CARTESIAN_POINT('',(-9.44999999999999,11.,0.3));
#958=CARTESIAN_POINT('',(-2.99999999999997,11.,-6.15000000000001));
#959=CARTESIAN_POINT('',(-15.75,11.,0.3));
#960=CARTESIAN_POINT('',(0.626308139543995,11.,0.3));
#961=CARTESIAN_POINT('',(-15.75,11.,36.5));
#962=CARTESIAN_POINT('',(-15.75,11.,0.));
#963=CARTESIAN_POINT('',(15.75,11.,36.5));
#964=CARTESIAN_POINT('',(-15.75,11.,36.5));
#965=CARTESIAN_POINT('',(15.75,11.,0.3));
#966=CARTESIAN_POINT('',(15.75,11.,0.));
#967=CARTESIAN_POINT('',(15.3472419928735,11.,0.3));
#968=CARTESIAN_POINT('Origin',(-4.35788476955669E-15,-4.56540309191653E-16,
0.));
#969=CARTESIAN_POINT('',(3.44999999999998,5.39999999998253,0.));
#970=CARTESIAN_POINT('Origin',(3.29999999999998,-5.5,0.15));
#971=CARTESIAN_POINT('',(3.15,-11.,0.3));
#972=CARTESIAN_POINT('Origin',(3.29999999999998,5.39999999998253,0.15));
#973=CARTESIAN_POINT('',(3.15,10.7999999999651,0.3));
#974=CARTESIAN_POINT('Origin',(-9.29999999999993,5.39999999998249,0.15));
#975=CARTESIAN_POINT('',(-9.14999999999993,5.39999999998249,0.));
#976=CARTESIAN_POINT('',(-9.44999999999999,11.,0.3));
#977=CARTESIAN_POINT('Origin',(-4.35788476955669E-15,-4.56540309191653E-16,
0.));
#978=CARTESIAN_POINT('',(-3.45000000000003,5.50000000000001,0.));
#979=CARTESIAN_POINT('Origin',(-3.30000000000003,5.50000000000001,0.15));
#980=CARTESIAN_POINT('',(-3.15,11.,0.3));
#981=CARTESIAN_POINT('Origin',(-9.3,-5.5,0.15));
#982=CARTESIAN_POINT('',(-9.15,-5.5,0.));
#983=CARTESIAN_POINT('',(-9.45,-10.7999999999651,0.3));
#984=CARTESIAN_POINT('Origin',(-3.30000000000002,-5.39999999998254,0.15));
#985=CARTESIAN_POINT('',(-3.45000000000002,-5.39999999998254,0.));
#986=CARTESIAN_POINT('',(-3.15000000000001,-10.7999999999651,0.3));
#987=CARTESIAN_POINT('Origin',(-14.497383720912,0.,0.3));
#988=CARTESIAN_POINT('',(-15.75,5.5,0.3));
#989=CARTESIAN_POINT('Origin',(-5.55111512312578E-15,-10.8999999999825,
0.3));
#990=CARTESIAN_POINT('Origin',(14.944483985747,-2.4444839857645,0.3));
#991=CARTESIAN_POINT('',(15.75,-6.72224199288225,0.3));
#992=CARTESIAN_POINT('Origin',(-1.11022302462516E-15,10.8999999999825,0.3));
#993=CARTESIAN_POINT('Origin',(-4.35788476955669E-15,-4.56540309191653E-16,
0.));
#994=CARTESIAN_POINT('Origin',(-13.75,0.,0.));
#995=CARTESIAN_POINT('',(-14.15,4.89858719658941E-17,-4.));
#996=CARTESIAN_POINT('Origin',(-13.75,0.,-4.));
#997=CARTESIAN_POINT('',(-14.15,4.89858719658941E-17,0.));
#998=CARTESIAN_POINT('Origin',(-13.75,0.,-4.));
#999=CARTESIAN_POINT('Origin',(13.75,0.,0.));
#1000=CARTESIAN_POINT('',(13.35,4.89858719658941E-17,-4.));
#1001=CARTESIAN_POINT('Origin',(13.75,0.,-4.));
#1002=CARTESIAN_POINT('',(13.35,4.89858719658941E-17,0.));
#1003=CARTESIAN_POINT('Origin',(13.75,0.,-4.));
#1004=CARTESIAN_POINT('Origin',(15.75,-11.,0.));
#1005=CARTESIAN_POINT('',(15.75,11.,36.5));
#1006=CARTESIAN_POINT('Origin',(-15.75,11.,0.));
#1007=CARTESIAN_POINT('',(-15.75,-11.,36.5));
#1008=CARTESIAN_POINT('Origin',(-4.44089209850063E-15,0.,36.5));
#1009=UNCERTAINTY_MEASURE_WITH_UNIT(LENGTH_MEASURE(0.01),#1013,
'DISTANCE_ACCURACY_VALUE',
'Maximum model space distance between geometric entities at asserted c
onnectivities');
#1010=UNCERTAINTY_MEASURE_WITH_UNIT(LENGTH_MEASURE(0.01),#1013,
'DISTANCE_ACCURACY_VALUE',
'Maximum model space distance between geometric entities at asserted c
onnectivities');
#1011=(
GEOMETRIC_REPRESENTATION_CONTEXT(3)
GLOBAL_UNCERTAINTY_ASSIGNED_CONTEXT((#1009))
GLOBAL_UNIT_ASSIGNED_CONTEXT((#1013,#1015,#1016))
REPRESENTATION_CONTEXT('','3D')
);
#1012=(
GEOMETRIC_REPRESENTATION_CONTEXT(3)
GLOBAL_UNCERTAINTY_ASSIGNED_CONTEXT((#1010))
GLOBAL_UNIT_ASSIGNED_CONTEXT((#1013,#1015,#1016))
REPRESENTATION_CONTEXT('','3D')
);
#1013=(
LENGTH_UNIT()
NAMED_UNIT(*)
SI_UNIT(.MILLI.,.METRE.)
);
#1014=(
LENGTH_UNIT()
NAMED_UNIT(*)
SI_UNIT(.CENTI.,.METRE.)
);
#1015=(
NAMED_UNIT(*)
PLANE_ANGLE_UNIT()
SI_UNIT($,.RADIAN.)
);
#1016=(
NAMED_UNIT(*)
SI_UNIT($,.STERADIAN.)
SOLID_ANGLE_UNIT()
);
#1017=SHAPE_DEFINITION_REPRESENTATION(#1018,#1019);
#1018=PRODUCT_DEFINITION_SHAPE('',$,#1021);
#1019=SHAPE_REPRESENTATION('',(#637),#1011);
#1020=PRODUCT_DEFINITION_CONTEXT('part definition',#1025,'design');
#1021=PRODUCT_DEFINITION('B32924_22x36.5x31.5','B32924_22x36.5x31.5',#1022,
#1020);
#1022=PRODUCT_DEFINITION_FORMATION('',$,#1027);
#1023=PRODUCT_RELATED_PRODUCT_CATEGORY('B32924_22x36.5x31.5',
'B32924_22x36.5x31.5',(#1027));
#1024=APPLICATION_PROTOCOL_DEFINITION('international standard',
'automotive_design',2009,#1025);
#1025=APPLICATION_CONTEXT(
'Core Data for Automotive Mechanical Design Process');
#1026=PRODUCT_CONTEXT('part definition',#1025,'mechanical');
#1027=PRODUCT('B32924_22x36.5x31.5','B32924_22x36.5x31.5',$,(#1026));
#1028=PRESENTATION_STYLE_ASSIGNMENT((#1031));
#1029=PRESENTATION_STYLE_ASSIGNMENT((#1032));
#1030=PRESENTATION_STYLE_ASSIGNMENT((#1033));
#1031=SURFACE_STYLE_USAGE(.BOTH.,#1040);
#1032=SURFACE_STYLE_USAGE(.BOTH.,#1041);
#1033=SURFACE_STYLE_USAGE(.BOTH.,#1042);
#1034=SURFACE_STYLE_RENDERING_WITH_PROPERTIES($,#1052,(#1037));
#1035=SURFACE_STYLE_RENDERING_WITH_PROPERTIES($,#1053,(#1038));
#1036=SURFACE_STYLE_RENDERING_WITH_PROPERTIES($,#1054,(#1039));
#1037=SURFACE_STYLE_TRANSPARENT(1.);
#1038=SURFACE_STYLE_TRANSPARENT(1.);
#1039=SURFACE_STYLE_TRANSPARENT(1.);
#1040=SURFACE_SIDE_STYLE('',(#1043,#1034));
#1041=SURFACE_SIDE_STYLE('',(#1044,#1035));
#1042=SURFACE_SIDE_STYLE('',(#1045,#1036));
#1043=SURFACE_STYLE_FILL_AREA(#1046);
#1044=SURFACE_STYLE_FILL_AREA(#1047);
#1045=SURFACE_STYLE_FILL_AREA(#1048);
#1046=FILL_AREA_STYLE('',(#1049));
#1047=FILL_AREA_STYLE('',(#1050));
#1048=FILL_AREA_STYLE('',(#1051));
#1049=FILL_AREA_STYLE_COLOUR('',#1052);
#1050=FILL_AREA_STYLE_COLOUR('',#1053);
#1051=FILL_AREA_STYLE_COLOUR('',#1054);
#1052=COLOUR_RGB('',0.,0.6,0.8);
#1053=COLOUR_RGB('',0.,0.490196078431373,0.658823529411765);
#1054=COLOUR_RGB('',0.968627450980392,0.933333333333333,0.792156862745098);
ENDSEC;
END-ISO-10303-21;
